%TF.GenerationSoftware,KiCad,Pcbnew,8.0.1*%
%TF.CreationDate,2024-04-25T00:57:37+03:00*%
%TF.ProjectId,Modul_LCD,4d6f6475-6c5f-44c4-9344-2e6b69636164,rev?*%
%TF.SameCoordinates,Original*%
%TF.FileFunction,Copper,L2,Bot*%
%TF.FilePolarity,Positive*%
%FSLAX46Y46*%
G04 Gerber Fmt 4.6, Leading zero omitted, Abs format (unit mm)*
G04 Created by KiCad (PCBNEW 8.0.1) date 2024-04-25 00:57:37*
%MOMM*%
%LPD*%
G01*
G04 APERTURE LIST*
G04 Aperture macros list*
%AMRoundRect*
0 Rectangle with rounded corners*
0 $1 Rounding radius*
0 $2 $3 $4 $5 $6 $7 $8 $9 X,Y pos of 4 corners*
0 Add a 4 corners polygon primitive as box body*
4,1,4,$2,$3,$4,$5,$6,$7,$8,$9,$2,$3,0*
0 Add four circle primitives for the rounded corners*
1,1,$1+$1,$2,$3*
1,1,$1+$1,$4,$5*
1,1,$1+$1,$6,$7*
1,1,$1+$1,$8,$9*
0 Add four rect primitives between the rounded corners*
20,1,$1+$1,$2,$3,$4,$5,0*
20,1,$1+$1,$4,$5,$6,$7,0*
20,1,$1+$1,$6,$7,$8,$9,0*
20,1,$1+$1,$8,$9,$2,$3,0*%
G04 Aperture macros list end*
%TA.AperFunction,ComponentPad*%
%ADD10RoundRect,0.250000X0.600000X-0.600000X0.600000X0.600000X-0.600000X0.600000X-0.600000X-0.600000X0*%
%TD*%
%TA.AperFunction,ComponentPad*%
%ADD11C,1.700000*%
%TD*%
%TA.AperFunction,ComponentPad*%
%ADD12C,2.400000*%
%TD*%
%TA.AperFunction,ComponentPad*%
%ADD13O,2.400000X2.400000*%
%TD*%
%TA.AperFunction,ComponentPad*%
%ADD14R,1.700000X1.700000*%
%TD*%
%TA.AperFunction,ComponentPad*%
%ADD15O,1.700000X1.700000*%
%TD*%
%TA.AperFunction,ComponentPad*%
%ADD16C,6.000000*%
%TD*%
%TA.AperFunction,ComponentPad*%
%ADD17R,6.000000X6.000000*%
%TD*%
%TA.AperFunction,ComponentPad*%
%ADD18C,2.100000*%
%TD*%
%TA.AperFunction,ComponentPad*%
%ADD19RoundRect,0.250000X-0.600000X-0.725000X0.600000X-0.725000X0.600000X0.725000X-0.600000X0.725000X0*%
%TD*%
%TA.AperFunction,ComponentPad*%
%ADD20O,1.700000X1.950000*%
%TD*%
%TA.AperFunction,ComponentPad*%
%ADD21R,2.000000X2.000000*%
%TD*%
%TA.AperFunction,ComponentPad*%
%ADD22C,2.000000*%
%TD*%
%TA.AperFunction,ComponentPad*%
%ADD23C,1.665000*%
%TD*%
%TA.AperFunction,ComponentPad*%
%ADD24RoundRect,0.250000X-0.600000X-0.750000X0.600000X-0.750000X0.600000X0.750000X-0.600000X0.750000X0*%
%TD*%
%TA.AperFunction,ComponentPad*%
%ADD25O,1.700000X2.000000*%
%TD*%
%TA.AperFunction,ComponentPad*%
%ADD26R,1.524000X1.524000*%
%TD*%
%TA.AperFunction,ComponentPad*%
%ADD27O,1.524000X1.524000*%
%TD*%
%TA.AperFunction,ComponentPad*%
%ADD28C,1.524000*%
%TD*%
%TA.AperFunction,Conductor*%
%ADD29C,0.500000*%
%TD*%
%TA.AperFunction,Conductor*%
%ADD30C,0.250000*%
%TD*%
%TA.AperFunction,Conductor*%
%ADD31C,0.300000*%
%TD*%
G04 APERTURE END LIST*
D10*
%TO.P,J10,1,Pin_1*%
%TO.N,LEFT*%
X61420000Y-59040000D03*
D11*
%TO.P,J10,2,Pin_2*%
%TO.N,RIGHT*%
X61420000Y-56500000D03*
%TO.P,J10,3,Pin_3*%
%TO.N,INCREMENT*%
X63960000Y-59040000D03*
%TO.P,J10,4,Pin_4*%
%TO.N,DECREMENT*%
X63960000Y-56500000D03*
%TO.P,J10,5,Pin_5*%
%TO.N,SCL*%
X66500000Y-59040000D03*
%TO.P,J10,6,Pin_6*%
%TO.N,SDA*%
X66500000Y-56500000D03*
%TO.P,J10,7,Pin_7*%
%TO.N,+5V*%
X69040000Y-59040000D03*
%TO.P,J10,8,Pin_8*%
%TO.N,GND*%
X69040000Y-56500000D03*
%TD*%
D12*
%TO.P,R6,1*%
%TO.N,ECHO2*%
X96350000Y-84000000D03*
D13*
%TO.P,R6,2*%
X83650000Y-84000000D03*
%TD*%
D14*
%TO.P,J15,1,Pin_1*%
%TO.N,GND*%
X77300000Y-101120000D03*
D15*
%TO.P,J15,2,Pin_2*%
%TO.N,RX*%
X77300000Y-98580000D03*
%TO.P,J15,3,Pin_3*%
%TO.N,TX*%
X77300000Y-96040000D03*
%TO.P,J15,4,Pin_4*%
%TO.N,ECHO1*%
X77300000Y-93500000D03*
%TO.P,J15,5,Pin_5*%
%TO.N,TRIG1*%
X77300000Y-90960000D03*
%TO.P,J15,6,Pin_6*%
%TO.N,ECHO2*%
X77300000Y-88420000D03*
%TO.P,J15,7,Pin_7*%
%TO.N,TRIG2*%
X77300000Y-85880000D03*
%TO.P,J15,8,Pin_8*%
%TO.N,ECHO3*%
X77300000Y-83340000D03*
%TO.P,J15,9,Pin_9*%
%TO.N,TRIG3*%
X77300000Y-80800000D03*
%TO.P,J15,10,Pin_10*%
%TO.N,SPI_SS1*%
X77300000Y-78260000D03*
%TO.P,J15,11,Pin_11*%
%TO.N,SPI_SS2*%
X77300000Y-75720000D03*
%TO.P,J15,12,Pin_12*%
%TO.N,Net-(IC1-10)*%
X77300000Y-73180000D03*
%TO.P,J15,13,Pin_13*%
%TO.N,SPI_MOSI*%
X77300000Y-70640000D03*
%TO.P,J15,14,Pin_14*%
%TO.N,SPI_MISO*%
X77300000Y-68100000D03*
%TD*%
D14*
%TO.P,J16,1,Pin_1*%
%TO.N,SPI_SCK*%
X52300000Y-68120000D03*
D15*
%TO.P,J16,2,Pin_2*%
%TO.N,RIGHT*%
X52300000Y-70660000D03*
%TO.P,J16,3,Pin_3*%
%TO.N,LEFT*%
X52300000Y-73200000D03*
%TO.P,J16,4,Pin_4*%
%TO.N,DECREMENT*%
X52300000Y-75740000D03*
%TO.P,J16,5,Pin_5*%
%TO.N,INCREMENT*%
X52300000Y-78280000D03*
%TO.P,J16,6,Pin_6*%
%TO.N,SDA*%
X52300000Y-80820000D03*
%TO.P,J16,7,Pin_7*%
%TO.N,SCL*%
X52300000Y-83360000D03*
%TO.P,J16,8,Pin_8*%
%TO.N,Net-(IC1-20)*%
X52300000Y-85900000D03*
%TO.P,J16,9,Pin_9*%
%TO.N,LED*%
X52300000Y-88440000D03*
%TO.P,J16,10,Pin_10*%
%TO.N,SIG_SERVO*%
X52300000Y-90980000D03*
%TO.P,J16,11,Pin_11*%
%TO.N,SIG_ESC*%
X52300000Y-93520000D03*
%TO.P,J16,12,Pin_12*%
%TO.N,Net-(IC1-3.3V(250_MA_MAX))*%
X52300000Y-96060000D03*
%TO.P,J16,13,Pin_13*%
%TO.N,GND*%
X52300000Y-98600000D03*
%TO.P,J16,14,Pin_14*%
%TO.N,+5V*%
X52300000Y-101140000D03*
%TD*%
D12*
%TO.P,R9,1*%
%TO.N,ECHO3*%
X83650000Y-66800000D03*
D13*
%TO.P,R9,2*%
X96350000Y-66800000D03*
%TD*%
D16*
%TO.P,J14,N,NEG*%
%TO.N,-BAT*%
X38800000Y-26000000D03*
D17*
%TO.P,J14,P,POS*%
%TO.N,+BAT*%
X46000000Y-26000000D03*
%TD*%
D10*
%TO.P,J2,1,Pin_1*%
%TO.N,SPI_MISO*%
X63880000Y-31500000D03*
D11*
%TO.P,J2,2,Pin_2*%
%TO.N,+5V*%
X63880000Y-28960000D03*
%TO.P,J2,3,Pin_3*%
%TO.N,SPI_SCK*%
X66420000Y-31500000D03*
%TO.P,J2,4,Pin_4*%
%TO.N,SPI_MOSI*%
X66420000Y-28960000D03*
%TO.P,J2,5,Pin_5*%
%TO.N,unconnected-(J2-Pin_5-Pad5)*%
X68960000Y-31500000D03*
%TO.P,J2,6,Pin_6*%
%TO.N,GND*%
X68960000Y-28960000D03*
%TO.P,J2,7,Pin_7*%
%TO.N,SPI_SS2*%
X71500000Y-31500000D03*
%TO.P,J2,8,Pin_8*%
%TO.N,unconnected-(J2-Pin_8-Pad8)*%
X71500000Y-28960000D03*
%TD*%
D18*
%TO.P,J12,1,1*%
%TO.N,+BAT*%
X26750000Y-32000000D03*
%TO.P,J12,2,2*%
%TO.N,-BAT*%
X26750000Y-37000000D03*
%TD*%
D19*
%TO.P,J6,1,Pin_1*%
%TO.N,+5V*%
X87000000Y-42475000D03*
D20*
%TO.P,J6,2,Pin_2*%
%TO.N,TRIG3*%
X89500000Y-42475000D03*
%TO.P,J6,3,Pin_3*%
%TO.N,ECHO3*%
X92000000Y-42475000D03*
%TO.P,J6,4,Pin_4*%
%TO.N,GND*%
X94500000Y-42475000D03*
%TD*%
D21*
%TO.P,C1,1*%
%TO.N,+BAT*%
X45000000Y-46500000D03*
D22*
%TO.P,C1,2*%
%TO.N,-BAT*%
X40000000Y-46500000D03*
%TD*%
D23*
%TO.P,IC1,1,GND_1*%
%TO.N,GND*%
X72500000Y-101160000D03*
%TO.P,IC1,2,0*%
%TO.N,RX*%
X72500000Y-98620000D03*
%TO.P,IC1,3,1*%
%TO.N,TX*%
X72500000Y-96080000D03*
%TO.P,IC1,4,2*%
%TO.N,ECHO1*%
X72500000Y-93540000D03*
%TO.P,IC1,5,3*%
%TO.N,TRIG1*%
X72500000Y-91000000D03*
%TO.P,IC1,6,4*%
%TO.N,ECHO2*%
X72500000Y-88460000D03*
%TO.P,IC1,7,5*%
%TO.N,TRIG2*%
X72500000Y-85920000D03*
%TO.P,IC1,8,6*%
%TO.N,ECHO3*%
X72500000Y-83380000D03*
%TO.P,IC1,9,7*%
%TO.N,TRIG3*%
X72500000Y-80840000D03*
%TO.P,IC1,10,8*%
%TO.N,SPI_SS1*%
X72500000Y-78300000D03*
%TO.P,IC1,11,9*%
%TO.N,SPI_SS2*%
X72500000Y-75760000D03*
%TO.P,IC1,12,10*%
%TO.N,Net-(IC1-10)*%
X72500000Y-73220000D03*
%TO.P,IC1,13,11*%
%TO.N,SPI_MOSI*%
X72500000Y-70680000D03*
%TO.P,IC1,14,12*%
%TO.N,SPI_MISO*%
X72500000Y-68140000D03*
%TO.P,IC1,20,13*%
%TO.N,SPI_SCK*%
X57260000Y-68140000D03*
%TO.P,IC1,21,14*%
%TO.N,RIGHT*%
X57260000Y-70680000D03*
%TO.P,IC1,22,15*%
%TO.N,LEFT*%
X57260000Y-73220000D03*
%TO.P,IC1,23,16*%
%TO.N,DECREMENT*%
X57260000Y-75760000D03*
%TO.P,IC1,24,17*%
%TO.N,INCREMENT*%
X57260000Y-78300000D03*
%TO.P,IC1,25,18*%
%TO.N,SDA*%
X57260000Y-80840000D03*
%TO.P,IC1,26,19*%
%TO.N,SCL*%
X57260000Y-83380000D03*
%TO.P,IC1,27,20*%
%TO.N,Net-(IC1-20)*%
X57260000Y-85920000D03*
%TO.P,IC1,28,21*%
%TO.N,LED*%
X57260000Y-88460000D03*
%TO.P,IC1,29,22*%
%TO.N,SIG_SERVO*%
X57260000Y-91000000D03*
%TO.P,IC1,30,23*%
%TO.N,SIG_ESC*%
X57260000Y-93540000D03*
%TO.P,IC1,31,3.3V(250_MA_MAX)*%
%TO.N,Net-(IC1-3.3V(250_MA_MAX))*%
X57260000Y-96080000D03*
%TO.P,IC1,32,GND_3*%
%TO.N,GND*%
X57260000Y-98620000D03*
%TO.P,IC1,33,VIN_(3.6_TO_5.5_VOLTS)*%
%TO.N,+5V*%
X57260000Y-101160000D03*
%TO.P,IC1,34,GND_4*%
%TO.N,unconnected-(IC1-GND_4-Pad34)*%
X59800000Y-98620000D03*
%TD*%
D14*
%TO.P,J13,1,Pin_1*%
%TO.N,+BAT*%
X38460000Y-36500000D03*
D15*
%TO.P,J13,2,Pin_2*%
%TO.N,unconnected-(J13-Pin_2-Pad2)*%
X41000000Y-36500000D03*
%TO.P,J13,3,Pin_3*%
%TO.N,+BAT*%
X43540000Y-36500000D03*
%TD*%
D12*
%TO.P,R8,1*%
%TO.N,ECHO3*%
X96350000Y-61500000D03*
D13*
%TO.P,R8,2*%
%TO.N,Net-(R7-Pad1)*%
X83650000Y-61500000D03*
%TD*%
D12*
%TO.P,R5,1*%
%TO.N,ECHO2*%
X96350000Y-90000000D03*
D13*
%TO.P,R5,2*%
%TO.N,Net-(R4-Pad1)*%
X83650000Y-90000000D03*
%TD*%
D24*
%TO.P,D1,1,K*%
%TO.N,GND*%
X52750000Y-45975000D03*
D25*
%TO.P,D1,2,A*%
%TO.N,Net-(D1-A)*%
X55250000Y-45975000D03*
%TD*%
D19*
%TO.P,J4,1,Pin_1*%
%TO.N,+5V*%
X87000000Y-105000000D03*
D20*
%TO.P,J4,2,Pin_2*%
%TO.N,TRIG1*%
X89500000Y-105000000D03*
%TO.P,J4,3,Pin_3*%
%TO.N,ECHO1*%
X92000000Y-105000000D03*
%TO.P,J4,4,Pin_4*%
%TO.N,GND*%
X94500000Y-105000000D03*
%TD*%
D12*
%TO.P,R7,1*%
%TO.N,Net-(R7-Pad1)*%
X83650000Y-56500000D03*
D13*
%TO.P,R7,2*%
%TO.N,GND*%
X96350000Y-56500000D03*
%TD*%
D26*
%TO.P,U1,4,OUT-*%
%TO.N,GND*%
X23500000Y-100881000D03*
D27*
%TO.P,U1,3,OUT+*%
%TO.N,+5V*%
X43500000Y-100881000D03*
D26*
%TO.P,U1,2,IN-*%
%TO.N,-BAT*%
X23500000Y-55381000D03*
D28*
%TO.P,U1,1,IN+*%
%TO.N,+BAT*%
X43500000Y-55381000D03*
%TD*%
D12*
%TO.P,R2,1*%
%TO.N,ECHO1*%
X55000000Y-110000000D03*
D13*
%TO.P,R2,2*%
%TO.N,Net-(R1-Pad1)*%
X42300000Y-110000000D03*
%TD*%
D12*
%TO.P,R1,1*%
%TO.N,Net-(R1-Pad1)*%
X38500000Y-105000000D03*
D13*
%TO.P,R1,2*%
%TO.N,GND*%
X38500000Y-92300000D03*
%TD*%
D14*
%TO.P,J9,1,Pin_1*%
%TO.N,GND*%
X45200000Y-116000000D03*
D15*
%TO.P,J9,2,Pin_2*%
%TO.N,+5V*%
X47740000Y-116000000D03*
%TO.P,J9,3,Pin_3*%
%TO.N,RX*%
X50280000Y-116000000D03*
%TO.P,J9,4,Pin_4*%
%TO.N,TX*%
X52820000Y-116000000D03*
%TD*%
D13*
%TO.P,R3,2*%
%TO.N,ECHO1*%
X73200000Y-110000000D03*
D12*
%TO.P,R3,1*%
X60500000Y-110000000D03*
%TD*%
D19*
%TO.P,J5,1,Pin_1*%
%TO.N,+5V*%
X87000000Y-73737500D03*
D20*
%TO.P,J5,2,Pin_2*%
%TO.N,TRIG2*%
X89500000Y-73737500D03*
%TO.P,J5,3,Pin_3*%
%TO.N,ECHO2*%
X92000000Y-73737500D03*
%TO.P,J5,4,Pin_4*%
%TO.N,GND*%
X94500000Y-73737500D03*
%TD*%
D21*
%TO.P,C2,1*%
%TO.N,+5V*%
X33867677Y-110500000D03*
D22*
%TO.P,C2,2*%
%TO.N,GND*%
X28867677Y-110500000D03*
%TD*%
D14*
%TO.P,J7,1,Pin_1*%
%TO.N,GND*%
X80920000Y-24500000D03*
D15*
%TO.P,J7,2,Pin_2*%
%TO.N,+5V*%
X83460000Y-24500000D03*
%TO.P,J7,3,Pin_3*%
%TO.N,SIG_SERVO*%
X86000000Y-24500000D03*
%TD*%
D19*
%TO.P,J8,1,Pin_1*%
%TO.N,GND*%
X26500000Y-46975000D03*
D20*
%TO.P,J8,2,Pin_2*%
%TO.N,+5V*%
X29000000Y-46975000D03*
%TO.P,J8,3,Pin_3*%
%TO.N,SIG_ESC*%
X31500000Y-46975000D03*
%TD*%
D10*
%TO.P,J1,1,Pin_1*%
%TO.N,SPI_MISO*%
X68000000Y-44500000D03*
D11*
%TO.P,J1,2,Pin_2*%
%TO.N,+5V*%
X68000000Y-41960000D03*
%TO.P,J1,3,Pin_3*%
%TO.N,SPI_SCK*%
X70540000Y-44500000D03*
%TO.P,J1,4,Pin_4*%
%TO.N,SPI_MOSI*%
X70540000Y-41960000D03*
%TO.P,J1,5,Pin_5*%
%TO.N,unconnected-(J1-Pin_5-Pad5)*%
X73080000Y-44500000D03*
%TO.P,J1,6,Pin_6*%
%TO.N,GND*%
X73080000Y-41960000D03*
%TO.P,J1,7,Pin_7*%
%TO.N,SPI_SS1*%
X75620000Y-44500000D03*
%TO.P,J1,8,Pin_8*%
%TO.N,unconnected-(J1-Pin_8-Pad8)*%
X75620000Y-41960000D03*
%TD*%
D12*
%TO.P,R10,1*%
%TO.N,LED*%
X41500000Y-74350000D03*
D13*
%TO.P,R10,2*%
%TO.N,Net-(D1-A)*%
X41500000Y-61650000D03*
%TD*%
D12*
%TO.P,R4,1*%
%TO.N,Net-(R4-Pad1)*%
X83650000Y-96500000D03*
D13*
%TO.P,R4,2*%
%TO.N,GND*%
X96350000Y-96500000D03*
%TD*%
D29*
%TO.N,GND*%
X38500000Y-92300000D02*
X32081000Y-92300000D01*
X94500000Y-42475000D02*
X94500000Y-38080000D01*
X32081000Y-92300000D02*
X23500000Y-100881000D01*
X52750000Y-45975000D02*
X61975000Y-55200000D01*
X61975000Y-55200000D02*
X67740000Y-55200000D01*
X67740000Y-55200000D02*
X69040000Y-56500000D01*
X94500000Y-38080000D02*
X80920000Y-24500000D01*
D30*
%TO.N,SPI_SCK*%
X61601701Y-68140000D02*
X57260000Y-68140000D01*
X70540000Y-44500000D02*
X70540000Y-59201701D01*
X70540000Y-59201701D02*
X61601701Y-68140000D01*
D31*
%TO.N,TRIG3*%
X81000000Y-77100000D02*
X77300000Y-80800000D01*
X89500000Y-42475000D02*
X81000000Y-50975000D01*
X81000000Y-50975000D02*
X81000000Y-77100000D01*
%TO.N,ECHO3*%
X92000000Y-42475000D02*
X92000000Y-58450000D01*
X83000000Y-72500000D02*
X83000000Y-78500000D01*
X94150000Y-69000000D02*
X86500000Y-69000000D01*
X86500000Y-69000000D02*
X83000000Y-72500000D01*
X92000000Y-58450000D02*
X83650000Y-66800000D01*
X83000000Y-78500000D02*
X78160000Y-83340000D01*
X96350000Y-66800000D02*
X94150000Y-69000000D01*
X78160000Y-83340000D02*
X77300000Y-83340000D01*
%TO.N,SPI_SS2*%
X79500000Y-73520000D02*
X77300000Y-75720000D01*
X71500000Y-31500000D02*
X79500000Y-39500000D01*
X79500000Y-39500000D02*
X79500000Y-73520000D01*
%TO.N,ECHO1*%
X87000000Y-110000000D02*
X92000000Y-105000000D01*
X72850000Y-110000000D02*
X87000000Y-110000000D01*
%TD*%
M02*
