%TF.GenerationSoftware,KiCad,Pcbnew,8.0.1*%
%TF.CreationDate,2024-04-25T00:57:38+03:00*%
%TF.ProjectId,Modul_LCD,4d6f6475-6c5f-44c4-9344-2e6b69636164,rev?*%
%TF.SameCoordinates,Original*%
%TF.FileFunction,Legend,Top*%
%TF.FilePolarity,Positive*%
%FSLAX46Y46*%
G04 Gerber Fmt 4.6, Leading zero omitted, Abs format (unit mm)*
G04 Created by KiCad (PCBNEW 8.0.1) date 2024-04-25 00:57:38*
%MOMM*%
%LPD*%
G01*
G04 APERTURE LIST*
%ADD10C,0.150000*%
%ADD11C,0.254000*%
%ADD12C,0.100000*%
%ADD13C,0.000000*%
%ADD14C,0.120000*%
%ADD15C,0.127000*%
G04 APERTURE END LIST*
D10*
X56964819Y-58579523D02*
X57679104Y-58579523D01*
X57679104Y-58579523D02*
X57821961Y-58627142D01*
X57821961Y-58627142D02*
X57917200Y-58722380D01*
X57917200Y-58722380D02*
X57964819Y-58865237D01*
X57964819Y-58865237D02*
X57964819Y-58960475D01*
X57964819Y-57579523D02*
X57964819Y-58150951D01*
X57964819Y-57865237D02*
X56964819Y-57865237D01*
X56964819Y-57865237D02*
X57107676Y-57960475D01*
X57107676Y-57960475D02*
X57202914Y-58055713D01*
X57202914Y-58055713D02*
X57250533Y-58150951D01*
X56964819Y-56960475D02*
X56964819Y-56865237D01*
X56964819Y-56865237D02*
X57012438Y-56769999D01*
X57012438Y-56769999D02*
X57060057Y-56722380D01*
X57060057Y-56722380D02*
X57155295Y-56674761D01*
X57155295Y-56674761D02*
X57345771Y-56627142D01*
X57345771Y-56627142D02*
X57583866Y-56627142D01*
X57583866Y-56627142D02*
X57774342Y-56674761D01*
X57774342Y-56674761D02*
X57869580Y-56722380D01*
X57869580Y-56722380D02*
X57917200Y-56769999D01*
X57917200Y-56769999D02*
X57964819Y-56865237D01*
X57964819Y-56865237D02*
X57964819Y-56960475D01*
X57964819Y-56960475D02*
X57917200Y-57055713D01*
X57917200Y-57055713D02*
X57869580Y-57103332D01*
X57869580Y-57103332D02*
X57774342Y-57150951D01*
X57774342Y-57150951D02*
X57583866Y-57198570D01*
X57583866Y-57198570D02*
X57345771Y-57198570D01*
X57345771Y-57198570D02*
X57155295Y-57150951D01*
X57155295Y-57150951D02*
X57060057Y-57103332D01*
X57060057Y-57103332D02*
X57012438Y-57055713D01*
X57012438Y-57055713D02*
X56964819Y-56960475D01*
X89833333Y-84454819D02*
X89500000Y-83978628D01*
X89261905Y-84454819D02*
X89261905Y-83454819D01*
X89261905Y-83454819D02*
X89642857Y-83454819D01*
X89642857Y-83454819D02*
X89738095Y-83502438D01*
X89738095Y-83502438D02*
X89785714Y-83550057D01*
X89785714Y-83550057D02*
X89833333Y-83645295D01*
X89833333Y-83645295D02*
X89833333Y-83788152D01*
X89833333Y-83788152D02*
X89785714Y-83883390D01*
X89785714Y-83883390D02*
X89738095Y-83931009D01*
X89738095Y-83931009D02*
X89642857Y-83978628D01*
X89642857Y-83978628D02*
X89261905Y-83978628D01*
X90690476Y-83454819D02*
X90500000Y-83454819D01*
X90500000Y-83454819D02*
X90404762Y-83502438D01*
X90404762Y-83502438D02*
X90357143Y-83550057D01*
X90357143Y-83550057D02*
X90261905Y-83692914D01*
X90261905Y-83692914D02*
X90214286Y-83883390D01*
X90214286Y-83883390D02*
X90214286Y-84264342D01*
X90214286Y-84264342D02*
X90261905Y-84359580D01*
X90261905Y-84359580D02*
X90309524Y-84407200D01*
X90309524Y-84407200D02*
X90404762Y-84454819D01*
X90404762Y-84454819D02*
X90595238Y-84454819D01*
X90595238Y-84454819D02*
X90690476Y-84407200D01*
X90690476Y-84407200D02*
X90738095Y-84359580D01*
X90738095Y-84359580D02*
X90785714Y-84264342D01*
X90785714Y-84264342D02*
X90785714Y-84026247D01*
X90785714Y-84026247D02*
X90738095Y-83931009D01*
X90738095Y-83931009D02*
X90690476Y-83883390D01*
X90690476Y-83883390D02*
X90595238Y-83835771D01*
X90595238Y-83835771D02*
X90404762Y-83835771D01*
X90404762Y-83835771D02*
X90309524Y-83883390D01*
X90309524Y-83883390D02*
X90261905Y-83931009D01*
X90261905Y-83931009D02*
X90214286Y-84026247D01*
X76490476Y-102904819D02*
X76490476Y-103619104D01*
X76490476Y-103619104D02*
X76442857Y-103761961D01*
X76442857Y-103761961D02*
X76347619Y-103857200D01*
X76347619Y-103857200D02*
X76204762Y-103904819D01*
X76204762Y-103904819D02*
X76109524Y-103904819D01*
X77490476Y-103904819D02*
X76919048Y-103904819D01*
X77204762Y-103904819D02*
X77204762Y-102904819D01*
X77204762Y-102904819D02*
X77109524Y-103047676D01*
X77109524Y-103047676D02*
X77014286Y-103142914D01*
X77014286Y-103142914D02*
X76919048Y-103190533D01*
X78395238Y-102904819D02*
X77919048Y-102904819D01*
X77919048Y-102904819D02*
X77871429Y-103381009D01*
X77871429Y-103381009D02*
X77919048Y-103333390D01*
X77919048Y-103333390D02*
X78014286Y-103285771D01*
X78014286Y-103285771D02*
X78252381Y-103285771D01*
X78252381Y-103285771D02*
X78347619Y-103333390D01*
X78347619Y-103333390D02*
X78395238Y-103381009D01*
X78395238Y-103381009D02*
X78442857Y-103476247D01*
X78442857Y-103476247D02*
X78442857Y-103714342D01*
X78442857Y-103714342D02*
X78395238Y-103809580D01*
X78395238Y-103809580D02*
X78347619Y-103857200D01*
X78347619Y-103857200D02*
X78252381Y-103904819D01*
X78252381Y-103904819D02*
X78014286Y-103904819D01*
X78014286Y-103904819D02*
X77919048Y-103857200D01*
X77919048Y-103857200D02*
X77871429Y-103809580D01*
X51490476Y-65244819D02*
X51490476Y-65959104D01*
X51490476Y-65959104D02*
X51442857Y-66101961D01*
X51442857Y-66101961D02*
X51347619Y-66197200D01*
X51347619Y-66197200D02*
X51204762Y-66244819D01*
X51204762Y-66244819D02*
X51109524Y-66244819D01*
X52490476Y-66244819D02*
X51919048Y-66244819D01*
X52204762Y-66244819D02*
X52204762Y-65244819D01*
X52204762Y-65244819D02*
X52109524Y-65387676D01*
X52109524Y-65387676D02*
X52014286Y-65482914D01*
X52014286Y-65482914D02*
X51919048Y-65530533D01*
X53347619Y-65244819D02*
X53157143Y-65244819D01*
X53157143Y-65244819D02*
X53061905Y-65292438D01*
X53061905Y-65292438D02*
X53014286Y-65340057D01*
X53014286Y-65340057D02*
X52919048Y-65482914D01*
X52919048Y-65482914D02*
X52871429Y-65673390D01*
X52871429Y-65673390D02*
X52871429Y-66054342D01*
X52871429Y-66054342D02*
X52919048Y-66149580D01*
X52919048Y-66149580D02*
X52966667Y-66197200D01*
X52966667Y-66197200D02*
X53061905Y-66244819D01*
X53061905Y-66244819D02*
X53252381Y-66244819D01*
X53252381Y-66244819D02*
X53347619Y-66197200D01*
X53347619Y-66197200D02*
X53395238Y-66149580D01*
X53395238Y-66149580D02*
X53442857Y-66054342D01*
X53442857Y-66054342D02*
X53442857Y-65816247D01*
X53442857Y-65816247D02*
X53395238Y-65721009D01*
X53395238Y-65721009D02*
X53347619Y-65673390D01*
X53347619Y-65673390D02*
X53252381Y-65625771D01*
X53252381Y-65625771D02*
X53061905Y-65625771D01*
X53061905Y-65625771D02*
X52966667Y-65673390D01*
X52966667Y-65673390D02*
X52919048Y-65721009D01*
X52919048Y-65721009D02*
X52871429Y-65816247D01*
X89833333Y-67254819D02*
X89500000Y-66778628D01*
X89261905Y-67254819D02*
X89261905Y-66254819D01*
X89261905Y-66254819D02*
X89642857Y-66254819D01*
X89642857Y-66254819D02*
X89738095Y-66302438D01*
X89738095Y-66302438D02*
X89785714Y-66350057D01*
X89785714Y-66350057D02*
X89833333Y-66445295D01*
X89833333Y-66445295D02*
X89833333Y-66588152D01*
X89833333Y-66588152D02*
X89785714Y-66683390D01*
X89785714Y-66683390D02*
X89738095Y-66731009D01*
X89738095Y-66731009D02*
X89642857Y-66778628D01*
X89642857Y-66778628D02*
X89261905Y-66778628D01*
X90309524Y-67254819D02*
X90500000Y-67254819D01*
X90500000Y-67254819D02*
X90595238Y-67207200D01*
X90595238Y-67207200D02*
X90642857Y-67159580D01*
X90642857Y-67159580D02*
X90738095Y-67016723D01*
X90738095Y-67016723D02*
X90785714Y-66826247D01*
X90785714Y-66826247D02*
X90785714Y-66445295D01*
X90785714Y-66445295D02*
X90738095Y-66350057D01*
X90738095Y-66350057D02*
X90690476Y-66302438D01*
X90690476Y-66302438D02*
X90595238Y-66254819D01*
X90595238Y-66254819D02*
X90404762Y-66254819D01*
X90404762Y-66254819D02*
X90309524Y-66302438D01*
X90309524Y-66302438D02*
X90261905Y-66350057D01*
X90261905Y-66350057D02*
X90214286Y-66445295D01*
X90214286Y-66445295D02*
X90214286Y-66683390D01*
X90214286Y-66683390D02*
X90261905Y-66778628D01*
X90261905Y-66778628D02*
X90309524Y-66826247D01*
X90309524Y-66826247D02*
X90404762Y-66873866D01*
X90404762Y-66873866D02*
X90595238Y-66873866D01*
X90595238Y-66873866D02*
X90690476Y-66826247D01*
X90690476Y-66826247D02*
X90738095Y-66778628D01*
X90738095Y-66778628D02*
X90785714Y-66683390D01*
X41090476Y-30454819D02*
X41090476Y-31169104D01*
X41090476Y-31169104D02*
X41042857Y-31311961D01*
X41042857Y-31311961D02*
X40947619Y-31407200D01*
X40947619Y-31407200D02*
X40804762Y-31454819D01*
X40804762Y-31454819D02*
X40709524Y-31454819D01*
X42090476Y-31454819D02*
X41519048Y-31454819D01*
X41804762Y-31454819D02*
X41804762Y-30454819D01*
X41804762Y-30454819D02*
X41709524Y-30597676D01*
X41709524Y-30597676D02*
X41614286Y-30692914D01*
X41614286Y-30692914D02*
X41519048Y-30740533D01*
X42947619Y-30788152D02*
X42947619Y-31454819D01*
X42709524Y-30407200D02*
X42471429Y-31121485D01*
X42471429Y-31121485D02*
X43090476Y-31121485D01*
X57234819Y-30563333D02*
X57949104Y-30563333D01*
X57949104Y-30563333D02*
X58091961Y-30610952D01*
X58091961Y-30610952D02*
X58187200Y-30706190D01*
X58187200Y-30706190D02*
X58234819Y-30849047D01*
X58234819Y-30849047D02*
X58234819Y-30944285D01*
X57330057Y-30134761D02*
X57282438Y-30087142D01*
X57282438Y-30087142D02*
X57234819Y-29991904D01*
X57234819Y-29991904D02*
X57234819Y-29753809D01*
X57234819Y-29753809D02*
X57282438Y-29658571D01*
X57282438Y-29658571D02*
X57330057Y-29610952D01*
X57330057Y-29610952D02*
X57425295Y-29563333D01*
X57425295Y-29563333D02*
X57520533Y-29563333D01*
X57520533Y-29563333D02*
X57663390Y-29610952D01*
X57663390Y-29610952D02*
X58234819Y-30182380D01*
X58234819Y-30182380D02*
X58234819Y-29563333D01*
D11*
X28804318Y-32528094D02*
X29711461Y-32528094D01*
X29711461Y-32528094D02*
X29892889Y-32588571D01*
X29892889Y-32588571D02*
X30013842Y-32709523D01*
X30013842Y-32709523D02*
X30074318Y-32890952D01*
X30074318Y-32890952D02*
X30074318Y-33011904D01*
X30074318Y-31258094D02*
X30074318Y-31983809D01*
X30074318Y-31620952D02*
X28804318Y-31620952D01*
X28804318Y-31620952D02*
X28985746Y-31741904D01*
X28985746Y-31741904D02*
X29106699Y-31862856D01*
X29106699Y-31862856D02*
X29167175Y-31983809D01*
X28925270Y-30774285D02*
X28864794Y-30713809D01*
X28864794Y-30713809D02*
X28804318Y-30592856D01*
X28804318Y-30592856D02*
X28804318Y-30290475D01*
X28804318Y-30290475D02*
X28864794Y-30169523D01*
X28864794Y-30169523D02*
X28925270Y-30109047D01*
X28925270Y-30109047D02*
X29046222Y-30048570D01*
X29046222Y-30048570D02*
X29167175Y-30048570D01*
X29167175Y-30048570D02*
X29348603Y-30109047D01*
X29348603Y-30109047D02*
X30074318Y-30834761D01*
X30074318Y-30834761D02*
X30074318Y-30048570D01*
D10*
X90416666Y-38379819D02*
X90416666Y-39094104D01*
X90416666Y-39094104D02*
X90369047Y-39236961D01*
X90369047Y-39236961D02*
X90273809Y-39332200D01*
X90273809Y-39332200D02*
X90130952Y-39379819D01*
X90130952Y-39379819D02*
X90035714Y-39379819D01*
X91321428Y-38379819D02*
X91130952Y-38379819D01*
X91130952Y-38379819D02*
X91035714Y-38427438D01*
X91035714Y-38427438D02*
X90988095Y-38475057D01*
X90988095Y-38475057D02*
X90892857Y-38617914D01*
X90892857Y-38617914D02*
X90845238Y-38808390D01*
X90845238Y-38808390D02*
X90845238Y-39189342D01*
X90845238Y-39189342D02*
X90892857Y-39284580D01*
X90892857Y-39284580D02*
X90940476Y-39332200D01*
X90940476Y-39332200D02*
X91035714Y-39379819D01*
X91035714Y-39379819D02*
X91226190Y-39379819D01*
X91226190Y-39379819D02*
X91321428Y-39332200D01*
X91321428Y-39332200D02*
X91369047Y-39284580D01*
X91369047Y-39284580D02*
X91416666Y-39189342D01*
X91416666Y-39189342D02*
X91416666Y-38951247D01*
X91416666Y-38951247D02*
X91369047Y-38856009D01*
X91369047Y-38856009D02*
X91321428Y-38808390D01*
X91321428Y-38808390D02*
X91226190Y-38760771D01*
X91226190Y-38760771D02*
X91035714Y-38760771D01*
X91035714Y-38760771D02*
X90940476Y-38808390D01*
X90940476Y-38808390D02*
X90892857Y-38856009D01*
X90892857Y-38856009D02*
X90845238Y-38951247D01*
X45833333Y-41359580D02*
X45785714Y-41407200D01*
X45785714Y-41407200D02*
X45642857Y-41454819D01*
X45642857Y-41454819D02*
X45547619Y-41454819D01*
X45547619Y-41454819D02*
X45404762Y-41407200D01*
X45404762Y-41407200D02*
X45309524Y-41311961D01*
X45309524Y-41311961D02*
X45261905Y-41216723D01*
X45261905Y-41216723D02*
X45214286Y-41026247D01*
X45214286Y-41026247D02*
X45214286Y-40883390D01*
X45214286Y-40883390D02*
X45261905Y-40692914D01*
X45261905Y-40692914D02*
X45309524Y-40597676D01*
X45309524Y-40597676D02*
X45404762Y-40502438D01*
X45404762Y-40502438D02*
X45547619Y-40454819D01*
X45547619Y-40454819D02*
X45642857Y-40454819D01*
X45642857Y-40454819D02*
X45785714Y-40502438D01*
X45785714Y-40502438D02*
X45833333Y-40550057D01*
X46785714Y-41454819D02*
X46214286Y-41454819D01*
X46500000Y-41454819D02*
X46500000Y-40454819D01*
X46500000Y-40454819D02*
X46404762Y-40597676D01*
X46404762Y-40597676D02*
X46309524Y-40692914D01*
X46309524Y-40692914D02*
X46214286Y-40740533D01*
D11*
X65454318Y-85889762D02*
X64184318Y-85889762D01*
X65333365Y-84559285D02*
X65393842Y-84619761D01*
X65393842Y-84619761D02*
X65454318Y-84801190D01*
X65454318Y-84801190D02*
X65454318Y-84922142D01*
X65454318Y-84922142D02*
X65393842Y-85103571D01*
X65393842Y-85103571D02*
X65272889Y-85224523D01*
X65272889Y-85224523D02*
X65151937Y-85285000D01*
X65151937Y-85285000D02*
X64910032Y-85345476D01*
X64910032Y-85345476D02*
X64728603Y-85345476D01*
X64728603Y-85345476D02*
X64486699Y-85285000D01*
X64486699Y-85285000D02*
X64365746Y-85224523D01*
X64365746Y-85224523D02*
X64244794Y-85103571D01*
X64244794Y-85103571D02*
X64184318Y-84922142D01*
X64184318Y-84922142D02*
X64184318Y-84801190D01*
X64184318Y-84801190D02*
X64244794Y-84619761D01*
X64244794Y-84619761D02*
X64305270Y-84559285D01*
X65454318Y-83349761D02*
X65454318Y-84075476D01*
X65454318Y-83712619D02*
X64184318Y-83712619D01*
X64184318Y-83712619D02*
X64365746Y-83833571D01*
X64365746Y-83833571D02*
X64486699Y-83954523D01*
X64486699Y-83954523D02*
X64547175Y-84075476D01*
D10*
X37690476Y-32954819D02*
X37690476Y-33669104D01*
X37690476Y-33669104D02*
X37642857Y-33811961D01*
X37642857Y-33811961D02*
X37547619Y-33907200D01*
X37547619Y-33907200D02*
X37404762Y-33954819D01*
X37404762Y-33954819D02*
X37309524Y-33954819D01*
X38690476Y-33954819D02*
X38119048Y-33954819D01*
X38404762Y-33954819D02*
X38404762Y-32954819D01*
X38404762Y-32954819D02*
X38309524Y-33097676D01*
X38309524Y-33097676D02*
X38214286Y-33192914D01*
X38214286Y-33192914D02*
X38119048Y-33240533D01*
X39023810Y-32954819D02*
X39642857Y-32954819D01*
X39642857Y-32954819D02*
X39309524Y-33335771D01*
X39309524Y-33335771D02*
X39452381Y-33335771D01*
X39452381Y-33335771D02*
X39547619Y-33383390D01*
X39547619Y-33383390D02*
X39595238Y-33431009D01*
X39595238Y-33431009D02*
X39642857Y-33526247D01*
X39642857Y-33526247D02*
X39642857Y-33764342D01*
X39642857Y-33764342D02*
X39595238Y-33859580D01*
X39595238Y-33859580D02*
X39547619Y-33907200D01*
X39547619Y-33907200D02*
X39452381Y-33954819D01*
X39452381Y-33954819D02*
X39166667Y-33954819D01*
X39166667Y-33954819D02*
X39071429Y-33907200D01*
X39071429Y-33907200D02*
X39023810Y-33859580D01*
X89833333Y-61954819D02*
X89500000Y-61478628D01*
X89261905Y-61954819D02*
X89261905Y-60954819D01*
X89261905Y-60954819D02*
X89642857Y-60954819D01*
X89642857Y-60954819D02*
X89738095Y-61002438D01*
X89738095Y-61002438D02*
X89785714Y-61050057D01*
X89785714Y-61050057D02*
X89833333Y-61145295D01*
X89833333Y-61145295D02*
X89833333Y-61288152D01*
X89833333Y-61288152D02*
X89785714Y-61383390D01*
X89785714Y-61383390D02*
X89738095Y-61431009D01*
X89738095Y-61431009D02*
X89642857Y-61478628D01*
X89642857Y-61478628D02*
X89261905Y-61478628D01*
X90404762Y-61383390D02*
X90309524Y-61335771D01*
X90309524Y-61335771D02*
X90261905Y-61288152D01*
X90261905Y-61288152D02*
X90214286Y-61192914D01*
X90214286Y-61192914D02*
X90214286Y-61145295D01*
X90214286Y-61145295D02*
X90261905Y-61050057D01*
X90261905Y-61050057D02*
X90309524Y-61002438D01*
X90309524Y-61002438D02*
X90404762Y-60954819D01*
X90404762Y-60954819D02*
X90595238Y-60954819D01*
X90595238Y-60954819D02*
X90690476Y-61002438D01*
X90690476Y-61002438D02*
X90738095Y-61050057D01*
X90738095Y-61050057D02*
X90785714Y-61145295D01*
X90785714Y-61145295D02*
X90785714Y-61192914D01*
X90785714Y-61192914D02*
X90738095Y-61288152D01*
X90738095Y-61288152D02*
X90690476Y-61335771D01*
X90690476Y-61335771D02*
X90595238Y-61383390D01*
X90595238Y-61383390D02*
X90404762Y-61383390D01*
X90404762Y-61383390D02*
X90309524Y-61431009D01*
X90309524Y-61431009D02*
X90261905Y-61478628D01*
X90261905Y-61478628D02*
X90214286Y-61573866D01*
X90214286Y-61573866D02*
X90214286Y-61764342D01*
X90214286Y-61764342D02*
X90261905Y-61859580D01*
X90261905Y-61859580D02*
X90309524Y-61907200D01*
X90309524Y-61907200D02*
X90404762Y-61954819D01*
X90404762Y-61954819D02*
X90595238Y-61954819D01*
X90595238Y-61954819D02*
X90690476Y-61907200D01*
X90690476Y-61907200D02*
X90738095Y-61859580D01*
X90738095Y-61859580D02*
X90785714Y-61764342D01*
X90785714Y-61764342D02*
X90785714Y-61573866D01*
X90785714Y-61573866D02*
X90738095Y-61478628D01*
X90738095Y-61478628D02*
X90690476Y-61431009D01*
X90690476Y-61431009D02*
X90595238Y-61383390D01*
X89833333Y-90454819D02*
X89500000Y-89978628D01*
X89261905Y-90454819D02*
X89261905Y-89454819D01*
X89261905Y-89454819D02*
X89642857Y-89454819D01*
X89642857Y-89454819D02*
X89738095Y-89502438D01*
X89738095Y-89502438D02*
X89785714Y-89550057D01*
X89785714Y-89550057D02*
X89833333Y-89645295D01*
X89833333Y-89645295D02*
X89833333Y-89788152D01*
X89833333Y-89788152D02*
X89785714Y-89883390D01*
X89785714Y-89883390D02*
X89738095Y-89931009D01*
X89738095Y-89931009D02*
X89642857Y-89978628D01*
X89642857Y-89978628D02*
X89261905Y-89978628D01*
X90738095Y-89454819D02*
X90261905Y-89454819D01*
X90261905Y-89454819D02*
X90214286Y-89931009D01*
X90214286Y-89931009D02*
X90261905Y-89883390D01*
X90261905Y-89883390D02*
X90357143Y-89835771D01*
X90357143Y-89835771D02*
X90595238Y-89835771D01*
X90595238Y-89835771D02*
X90690476Y-89883390D01*
X90690476Y-89883390D02*
X90738095Y-89931009D01*
X90738095Y-89931009D02*
X90785714Y-90026247D01*
X90785714Y-90026247D02*
X90785714Y-90264342D01*
X90785714Y-90264342D02*
X90738095Y-90359580D01*
X90738095Y-90359580D02*
X90690476Y-90407200D01*
X90690476Y-90407200D02*
X90595238Y-90454819D01*
X90595238Y-90454819D02*
X90357143Y-90454819D01*
X90357143Y-90454819D02*
X90261905Y-90407200D01*
X90261905Y-90407200D02*
X90214286Y-90359580D01*
X53261905Y-42879819D02*
X53261905Y-41879819D01*
X53261905Y-41879819D02*
X53500000Y-41879819D01*
X53500000Y-41879819D02*
X53642857Y-41927438D01*
X53642857Y-41927438D02*
X53738095Y-42022676D01*
X53738095Y-42022676D02*
X53785714Y-42117914D01*
X53785714Y-42117914D02*
X53833333Y-42308390D01*
X53833333Y-42308390D02*
X53833333Y-42451247D01*
X53833333Y-42451247D02*
X53785714Y-42641723D01*
X53785714Y-42641723D02*
X53738095Y-42736961D01*
X53738095Y-42736961D02*
X53642857Y-42832200D01*
X53642857Y-42832200D02*
X53500000Y-42879819D01*
X53500000Y-42879819D02*
X53261905Y-42879819D01*
X54785714Y-42879819D02*
X54214286Y-42879819D01*
X54500000Y-42879819D02*
X54500000Y-41879819D01*
X54500000Y-41879819D02*
X54404762Y-42022676D01*
X54404762Y-42022676D02*
X54309524Y-42117914D01*
X54309524Y-42117914D02*
X54214286Y-42165533D01*
X90416666Y-100904819D02*
X90416666Y-101619104D01*
X90416666Y-101619104D02*
X90369047Y-101761961D01*
X90369047Y-101761961D02*
X90273809Y-101857200D01*
X90273809Y-101857200D02*
X90130952Y-101904819D01*
X90130952Y-101904819D02*
X90035714Y-101904819D01*
X91321428Y-101238152D02*
X91321428Y-101904819D01*
X91083333Y-100857200D02*
X90845238Y-101571485D01*
X90845238Y-101571485D02*
X91464285Y-101571485D01*
X89833333Y-56954819D02*
X89500000Y-56478628D01*
X89261905Y-56954819D02*
X89261905Y-55954819D01*
X89261905Y-55954819D02*
X89642857Y-55954819D01*
X89642857Y-55954819D02*
X89738095Y-56002438D01*
X89738095Y-56002438D02*
X89785714Y-56050057D01*
X89785714Y-56050057D02*
X89833333Y-56145295D01*
X89833333Y-56145295D02*
X89833333Y-56288152D01*
X89833333Y-56288152D02*
X89785714Y-56383390D01*
X89785714Y-56383390D02*
X89738095Y-56431009D01*
X89738095Y-56431009D02*
X89642857Y-56478628D01*
X89642857Y-56478628D02*
X89261905Y-56478628D01*
X90166667Y-55954819D02*
X90833333Y-55954819D01*
X90833333Y-55954819D02*
X90404762Y-56954819D01*
D12*
X33238095Y-56838419D02*
X33238095Y-57647942D01*
X33238095Y-57647942D02*
X33285714Y-57743180D01*
X33285714Y-57743180D02*
X33333333Y-57790800D01*
X33333333Y-57790800D02*
X33428571Y-57838419D01*
X33428571Y-57838419D02*
X33619047Y-57838419D01*
X33619047Y-57838419D02*
X33714285Y-57790800D01*
X33714285Y-57790800D02*
X33761904Y-57743180D01*
X33761904Y-57743180D02*
X33809523Y-57647942D01*
X33809523Y-57647942D02*
X33809523Y-56838419D01*
X34809523Y-57838419D02*
X34238095Y-57838419D01*
X34523809Y-57838419D02*
X34523809Y-56838419D01*
X34523809Y-56838419D02*
X34428571Y-56981276D01*
X34428571Y-56981276D02*
X34333333Y-57076514D01*
X34333333Y-57076514D02*
X34238095Y-57124133D01*
D10*
X48483333Y-110454819D02*
X48150000Y-109978628D01*
X47911905Y-110454819D02*
X47911905Y-109454819D01*
X47911905Y-109454819D02*
X48292857Y-109454819D01*
X48292857Y-109454819D02*
X48388095Y-109502438D01*
X48388095Y-109502438D02*
X48435714Y-109550057D01*
X48435714Y-109550057D02*
X48483333Y-109645295D01*
X48483333Y-109645295D02*
X48483333Y-109788152D01*
X48483333Y-109788152D02*
X48435714Y-109883390D01*
X48435714Y-109883390D02*
X48388095Y-109931009D01*
X48388095Y-109931009D02*
X48292857Y-109978628D01*
X48292857Y-109978628D02*
X47911905Y-109978628D01*
X48864286Y-109550057D02*
X48911905Y-109502438D01*
X48911905Y-109502438D02*
X49007143Y-109454819D01*
X49007143Y-109454819D02*
X49245238Y-109454819D01*
X49245238Y-109454819D02*
X49340476Y-109502438D01*
X49340476Y-109502438D02*
X49388095Y-109550057D01*
X49388095Y-109550057D02*
X49435714Y-109645295D01*
X49435714Y-109645295D02*
X49435714Y-109740533D01*
X49435714Y-109740533D02*
X49388095Y-109883390D01*
X49388095Y-109883390D02*
X48816667Y-110454819D01*
X48816667Y-110454819D02*
X49435714Y-110454819D01*
X38954819Y-98816666D02*
X38478628Y-99149999D01*
X38954819Y-99388094D02*
X37954819Y-99388094D01*
X37954819Y-99388094D02*
X37954819Y-99007142D01*
X37954819Y-99007142D02*
X38002438Y-98911904D01*
X38002438Y-98911904D02*
X38050057Y-98864285D01*
X38050057Y-98864285D02*
X38145295Y-98816666D01*
X38145295Y-98816666D02*
X38288152Y-98816666D01*
X38288152Y-98816666D02*
X38383390Y-98864285D01*
X38383390Y-98864285D02*
X38431009Y-98911904D01*
X38431009Y-98911904D02*
X38478628Y-99007142D01*
X38478628Y-99007142D02*
X38478628Y-99388094D01*
X38954819Y-97864285D02*
X38954819Y-98435713D01*
X38954819Y-98149999D02*
X37954819Y-98149999D01*
X37954819Y-98149999D02*
X38097676Y-98245237D01*
X38097676Y-98245237D02*
X38192914Y-98340475D01*
X38192914Y-98340475D02*
X38240533Y-98435713D01*
X41666666Y-117454819D02*
X41666666Y-118169104D01*
X41666666Y-118169104D02*
X41619047Y-118311961D01*
X41619047Y-118311961D02*
X41523809Y-118407200D01*
X41523809Y-118407200D02*
X41380952Y-118454819D01*
X41380952Y-118454819D02*
X41285714Y-118454819D01*
X42190476Y-118454819D02*
X42380952Y-118454819D01*
X42380952Y-118454819D02*
X42476190Y-118407200D01*
X42476190Y-118407200D02*
X42523809Y-118359580D01*
X42523809Y-118359580D02*
X42619047Y-118216723D01*
X42619047Y-118216723D02*
X42666666Y-118026247D01*
X42666666Y-118026247D02*
X42666666Y-117645295D01*
X42666666Y-117645295D02*
X42619047Y-117550057D01*
X42619047Y-117550057D02*
X42571428Y-117502438D01*
X42571428Y-117502438D02*
X42476190Y-117454819D01*
X42476190Y-117454819D02*
X42285714Y-117454819D01*
X42285714Y-117454819D02*
X42190476Y-117502438D01*
X42190476Y-117502438D02*
X42142857Y-117550057D01*
X42142857Y-117550057D02*
X42095238Y-117645295D01*
X42095238Y-117645295D02*
X42095238Y-117883390D01*
X42095238Y-117883390D02*
X42142857Y-117978628D01*
X42142857Y-117978628D02*
X42190476Y-118026247D01*
X42190476Y-118026247D02*
X42285714Y-118073866D01*
X42285714Y-118073866D02*
X42476190Y-118073866D01*
X42476190Y-118073866D02*
X42571428Y-118026247D01*
X42571428Y-118026247D02*
X42619047Y-117978628D01*
X42619047Y-117978628D02*
X42666666Y-117883390D01*
X64183333Y-110454819D02*
X63850000Y-109978628D01*
X63611905Y-110454819D02*
X63611905Y-109454819D01*
X63611905Y-109454819D02*
X63992857Y-109454819D01*
X63992857Y-109454819D02*
X64088095Y-109502438D01*
X64088095Y-109502438D02*
X64135714Y-109550057D01*
X64135714Y-109550057D02*
X64183333Y-109645295D01*
X64183333Y-109645295D02*
X64183333Y-109788152D01*
X64183333Y-109788152D02*
X64135714Y-109883390D01*
X64135714Y-109883390D02*
X64088095Y-109931009D01*
X64088095Y-109931009D02*
X63992857Y-109978628D01*
X63992857Y-109978628D02*
X63611905Y-109978628D01*
X64516667Y-109454819D02*
X65135714Y-109454819D01*
X65135714Y-109454819D02*
X64802381Y-109835771D01*
X64802381Y-109835771D02*
X64945238Y-109835771D01*
X64945238Y-109835771D02*
X65040476Y-109883390D01*
X65040476Y-109883390D02*
X65088095Y-109931009D01*
X65088095Y-109931009D02*
X65135714Y-110026247D01*
X65135714Y-110026247D02*
X65135714Y-110264342D01*
X65135714Y-110264342D02*
X65088095Y-110359580D01*
X65088095Y-110359580D02*
X65040476Y-110407200D01*
X65040476Y-110407200D02*
X64945238Y-110454819D01*
X64945238Y-110454819D02*
X64659524Y-110454819D01*
X64659524Y-110454819D02*
X64564286Y-110407200D01*
X64564286Y-110407200D02*
X64516667Y-110359580D01*
X90416666Y-69642319D02*
X90416666Y-70356604D01*
X90416666Y-70356604D02*
X90369047Y-70499461D01*
X90369047Y-70499461D02*
X90273809Y-70594700D01*
X90273809Y-70594700D02*
X90130952Y-70642319D01*
X90130952Y-70642319D02*
X90035714Y-70642319D01*
X91369047Y-69642319D02*
X90892857Y-69642319D01*
X90892857Y-69642319D02*
X90845238Y-70118509D01*
X90845238Y-70118509D02*
X90892857Y-70070890D01*
X90892857Y-70070890D02*
X90988095Y-70023271D01*
X90988095Y-70023271D02*
X91226190Y-70023271D01*
X91226190Y-70023271D02*
X91321428Y-70070890D01*
X91321428Y-70070890D02*
X91369047Y-70118509D01*
X91369047Y-70118509D02*
X91416666Y-70213747D01*
X91416666Y-70213747D02*
X91416666Y-70451842D01*
X91416666Y-70451842D02*
X91369047Y-70547080D01*
X91369047Y-70547080D02*
X91321428Y-70594700D01*
X91321428Y-70594700D02*
X91226190Y-70642319D01*
X91226190Y-70642319D02*
X90988095Y-70642319D01*
X90988095Y-70642319D02*
X90892857Y-70594700D01*
X90892857Y-70594700D02*
X90845238Y-70547080D01*
X31201010Y-117109580D02*
X31153391Y-117157200D01*
X31153391Y-117157200D02*
X31010534Y-117204819D01*
X31010534Y-117204819D02*
X30915296Y-117204819D01*
X30915296Y-117204819D02*
X30772439Y-117157200D01*
X30772439Y-117157200D02*
X30677201Y-117061961D01*
X30677201Y-117061961D02*
X30629582Y-116966723D01*
X30629582Y-116966723D02*
X30581963Y-116776247D01*
X30581963Y-116776247D02*
X30581963Y-116633390D01*
X30581963Y-116633390D02*
X30629582Y-116442914D01*
X30629582Y-116442914D02*
X30677201Y-116347676D01*
X30677201Y-116347676D02*
X30772439Y-116252438D01*
X30772439Y-116252438D02*
X30915296Y-116204819D01*
X30915296Y-116204819D02*
X31010534Y-116204819D01*
X31010534Y-116204819D02*
X31153391Y-116252438D01*
X31153391Y-116252438D02*
X31201010Y-116300057D01*
X31581963Y-116300057D02*
X31629582Y-116252438D01*
X31629582Y-116252438D02*
X31724820Y-116204819D01*
X31724820Y-116204819D02*
X31962915Y-116204819D01*
X31962915Y-116204819D02*
X32058153Y-116252438D01*
X32058153Y-116252438D02*
X32105772Y-116300057D01*
X32105772Y-116300057D02*
X32153391Y-116395295D01*
X32153391Y-116395295D02*
X32153391Y-116490533D01*
X32153391Y-116490533D02*
X32105772Y-116633390D01*
X32105772Y-116633390D02*
X31534344Y-117204819D01*
X31534344Y-117204819D02*
X32153391Y-117204819D01*
X78044819Y-24833333D02*
X78759104Y-24833333D01*
X78759104Y-24833333D02*
X78901961Y-24880952D01*
X78901961Y-24880952D02*
X78997200Y-24976190D01*
X78997200Y-24976190D02*
X79044819Y-25119047D01*
X79044819Y-25119047D02*
X79044819Y-25214285D01*
X78044819Y-24452380D02*
X78044819Y-23785714D01*
X78044819Y-23785714D02*
X79044819Y-24214285D01*
X28666666Y-42879819D02*
X28666666Y-43594104D01*
X28666666Y-43594104D02*
X28619047Y-43736961D01*
X28619047Y-43736961D02*
X28523809Y-43832200D01*
X28523809Y-43832200D02*
X28380952Y-43879819D01*
X28380952Y-43879819D02*
X28285714Y-43879819D01*
X29285714Y-43308390D02*
X29190476Y-43260771D01*
X29190476Y-43260771D02*
X29142857Y-43213152D01*
X29142857Y-43213152D02*
X29095238Y-43117914D01*
X29095238Y-43117914D02*
X29095238Y-43070295D01*
X29095238Y-43070295D02*
X29142857Y-42975057D01*
X29142857Y-42975057D02*
X29190476Y-42927438D01*
X29190476Y-42927438D02*
X29285714Y-42879819D01*
X29285714Y-42879819D02*
X29476190Y-42879819D01*
X29476190Y-42879819D02*
X29571428Y-42927438D01*
X29571428Y-42927438D02*
X29619047Y-42975057D01*
X29619047Y-42975057D02*
X29666666Y-43070295D01*
X29666666Y-43070295D02*
X29666666Y-43117914D01*
X29666666Y-43117914D02*
X29619047Y-43213152D01*
X29619047Y-43213152D02*
X29571428Y-43260771D01*
X29571428Y-43260771D02*
X29476190Y-43308390D01*
X29476190Y-43308390D02*
X29285714Y-43308390D01*
X29285714Y-43308390D02*
X29190476Y-43356009D01*
X29190476Y-43356009D02*
X29142857Y-43403628D01*
X29142857Y-43403628D02*
X29095238Y-43498866D01*
X29095238Y-43498866D02*
X29095238Y-43689342D01*
X29095238Y-43689342D02*
X29142857Y-43784580D01*
X29142857Y-43784580D02*
X29190476Y-43832200D01*
X29190476Y-43832200D02*
X29285714Y-43879819D01*
X29285714Y-43879819D02*
X29476190Y-43879819D01*
X29476190Y-43879819D02*
X29571428Y-43832200D01*
X29571428Y-43832200D02*
X29619047Y-43784580D01*
X29619047Y-43784580D02*
X29666666Y-43689342D01*
X29666666Y-43689342D02*
X29666666Y-43498866D01*
X29666666Y-43498866D02*
X29619047Y-43403628D01*
X29619047Y-43403628D02*
X29571428Y-43356009D01*
X29571428Y-43356009D02*
X29476190Y-43308390D01*
X61354819Y-43563333D02*
X62069104Y-43563333D01*
X62069104Y-43563333D02*
X62211961Y-43610952D01*
X62211961Y-43610952D02*
X62307200Y-43706190D01*
X62307200Y-43706190D02*
X62354819Y-43849047D01*
X62354819Y-43849047D02*
X62354819Y-43944285D01*
X62354819Y-42563333D02*
X62354819Y-43134761D01*
X62354819Y-42849047D02*
X61354819Y-42849047D01*
X61354819Y-42849047D02*
X61497676Y-42944285D01*
X61497676Y-42944285D02*
X61592914Y-43039523D01*
X61592914Y-43039523D02*
X61640533Y-43134761D01*
X41954819Y-70142857D02*
X41478628Y-70476190D01*
X41954819Y-70714285D02*
X40954819Y-70714285D01*
X40954819Y-70714285D02*
X40954819Y-70333333D01*
X40954819Y-70333333D02*
X41002438Y-70238095D01*
X41002438Y-70238095D02*
X41050057Y-70190476D01*
X41050057Y-70190476D02*
X41145295Y-70142857D01*
X41145295Y-70142857D02*
X41288152Y-70142857D01*
X41288152Y-70142857D02*
X41383390Y-70190476D01*
X41383390Y-70190476D02*
X41431009Y-70238095D01*
X41431009Y-70238095D02*
X41478628Y-70333333D01*
X41478628Y-70333333D02*
X41478628Y-70714285D01*
X41954819Y-69190476D02*
X41954819Y-69761904D01*
X41954819Y-69476190D02*
X40954819Y-69476190D01*
X40954819Y-69476190D02*
X41097676Y-69571428D01*
X41097676Y-69571428D02*
X41192914Y-69666666D01*
X41192914Y-69666666D02*
X41240533Y-69761904D01*
X40954819Y-68571428D02*
X40954819Y-68476190D01*
X40954819Y-68476190D02*
X41002438Y-68380952D01*
X41002438Y-68380952D02*
X41050057Y-68333333D01*
X41050057Y-68333333D02*
X41145295Y-68285714D01*
X41145295Y-68285714D02*
X41335771Y-68238095D01*
X41335771Y-68238095D02*
X41573866Y-68238095D01*
X41573866Y-68238095D02*
X41764342Y-68285714D01*
X41764342Y-68285714D02*
X41859580Y-68333333D01*
X41859580Y-68333333D02*
X41907200Y-68380952D01*
X41907200Y-68380952D02*
X41954819Y-68476190D01*
X41954819Y-68476190D02*
X41954819Y-68571428D01*
X41954819Y-68571428D02*
X41907200Y-68666666D01*
X41907200Y-68666666D02*
X41859580Y-68714285D01*
X41859580Y-68714285D02*
X41764342Y-68761904D01*
X41764342Y-68761904D02*
X41573866Y-68809523D01*
X41573866Y-68809523D02*
X41335771Y-68809523D01*
X41335771Y-68809523D02*
X41145295Y-68761904D01*
X41145295Y-68761904D02*
X41050057Y-68714285D01*
X41050057Y-68714285D02*
X41002438Y-68666666D01*
X41002438Y-68666666D02*
X40954819Y-68571428D01*
X89833333Y-96954819D02*
X89500000Y-96478628D01*
X89261905Y-96954819D02*
X89261905Y-95954819D01*
X89261905Y-95954819D02*
X89642857Y-95954819D01*
X89642857Y-95954819D02*
X89738095Y-96002438D01*
X89738095Y-96002438D02*
X89785714Y-96050057D01*
X89785714Y-96050057D02*
X89833333Y-96145295D01*
X89833333Y-96145295D02*
X89833333Y-96288152D01*
X89833333Y-96288152D02*
X89785714Y-96383390D01*
X89785714Y-96383390D02*
X89738095Y-96431009D01*
X89738095Y-96431009D02*
X89642857Y-96478628D01*
X89642857Y-96478628D02*
X89261905Y-96478628D01*
X90690476Y-96288152D02*
X90690476Y-96954819D01*
X90452381Y-95907200D02*
X90214286Y-96621485D01*
X90214286Y-96621485D02*
X90833333Y-96621485D01*
D13*
%TO.C,G\u002A\u002A\u002A*%
G36*
X36987730Y-81784323D02*
G01*
X37111583Y-81829989D01*
X37195625Y-81920310D01*
X37246777Y-82066913D01*
X37271958Y-82281424D01*
X37278137Y-82546252D01*
X37269191Y-82833984D01*
X37238071Y-83043170D01*
X37178349Y-83184933D01*
X37083600Y-83270394D01*
X36947397Y-83310674D01*
X36832250Y-83317907D01*
X36672654Y-83300717D01*
X36555673Y-83236076D01*
X36524992Y-83207625D01*
X36477785Y-83155392D01*
X36446155Y-83098488D01*
X36426998Y-83018505D01*
X36417206Y-82897036D01*
X36413674Y-82715672D01*
X36413302Y-82562036D01*
X36595341Y-82562036D01*
X36599230Y-82783466D01*
X36612524Y-82931304D01*
X36637663Y-83022731D01*
X36666872Y-83065745D01*
X36778552Y-83126370D01*
X36906361Y-83128994D01*
X36995914Y-83082652D01*
X37024606Y-83004416D01*
X37042912Y-82840149D01*
X37050379Y-82594316D01*
X37050538Y-82545520D01*
X37046931Y-82302193D01*
X37032375Y-82135646D01*
X37001267Y-82031776D01*
X36948003Y-81976481D01*
X36866982Y-81955656D01*
X36815437Y-81953763D01*
X36724314Y-81969026D01*
X36661348Y-82023298D01*
X36621935Y-82129303D01*
X36601472Y-82299764D01*
X36595353Y-82547407D01*
X36595341Y-82562036D01*
X36413302Y-82562036D01*
X36413262Y-82545520D01*
X36414282Y-82311958D01*
X36419413Y-82151023D01*
X36431761Y-82044307D01*
X36454432Y-81973402D01*
X36490534Y-81919901D01*
X36524992Y-81883415D01*
X36654137Y-81796495D01*
X36817147Y-81771685D01*
X36987730Y-81784323D01*
G37*
G36*
X35826567Y-81787781D02*
G01*
X35941668Y-81846774D01*
X35988423Y-81888944D01*
X36071797Y-82013339D01*
X36088437Y-82160246D01*
X36036483Y-82338614D01*
X35914074Y-82557387D01*
X35821757Y-82690367D01*
X35685645Y-82878223D01*
X35602372Y-83004337D01*
X35571797Y-83081006D01*
X35593779Y-83120523D01*
X35668177Y-83135184D01*
X35794850Y-83137284D01*
X35816636Y-83137276D01*
X35970823Y-83140484D01*
X36054730Y-83154618D01*
X36089024Y-83186448D01*
X36094624Y-83228315D01*
X36088094Y-83270629D01*
X36057246Y-83297334D01*
X35985192Y-83311986D01*
X35855045Y-83318141D01*
X35662187Y-83319355D01*
X35461279Y-83318016D01*
X35334491Y-83311595D01*
X35264913Y-83296490D01*
X35235636Y-83269095D01*
X35229749Y-83227176D01*
X35256090Y-83155537D01*
X35327617Y-83030659D01*
X35433092Y-82870748D01*
X35548387Y-82711079D01*
X35712011Y-82481912D01*
X35815243Y-82306618D01*
X35862040Y-82174669D01*
X35856357Y-82075536D01*
X35812402Y-82008387D01*
X35704148Y-81956095D01*
X35582176Y-81975813D01*
X35479904Y-82061663D01*
X35475922Y-82067563D01*
X35398927Y-82145009D01*
X35313876Y-82179370D01*
X35248739Y-82165078D01*
X35229749Y-82116575D01*
X35257317Y-82042287D01*
X35325733Y-81938844D01*
X35347595Y-81911736D01*
X35441945Y-81819475D01*
X35544575Y-81779314D01*
X35668302Y-81771685D01*
X35826567Y-81787781D01*
G37*
G36*
X34620705Y-81784323D02*
G01*
X34744558Y-81829989D01*
X34828600Y-81920310D01*
X34879752Y-82066913D01*
X34904933Y-82281424D01*
X34911111Y-82546252D01*
X34902166Y-82833984D01*
X34871046Y-83043170D01*
X34811324Y-83184933D01*
X34716575Y-83270394D01*
X34580372Y-83310674D01*
X34465225Y-83317907D01*
X34305629Y-83300717D01*
X34188648Y-83236076D01*
X34157967Y-83207625D01*
X34110759Y-83155392D01*
X34079130Y-83098488D01*
X34059973Y-83018505D01*
X34050181Y-82897036D01*
X34046649Y-82715672D01*
X34046277Y-82562036D01*
X34228316Y-82562036D01*
X34232205Y-82783466D01*
X34245499Y-82931304D01*
X34270638Y-83022731D01*
X34299847Y-83065745D01*
X34411527Y-83126370D01*
X34539335Y-83128994D01*
X34628889Y-83082652D01*
X34657580Y-83004416D01*
X34675887Y-82840149D01*
X34683354Y-82594316D01*
X34683513Y-82545520D01*
X34679906Y-82302193D01*
X34665350Y-82135646D01*
X34634241Y-82031776D01*
X34580978Y-81976481D01*
X34499957Y-81955656D01*
X34448412Y-81953763D01*
X34357289Y-81969026D01*
X34294323Y-82023298D01*
X34254910Y-82129303D01*
X34234447Y-82299764D01*
X34228328Y-82547407D01*
X34228316Y-82562036D01*
X34046277Y-82562036D01*
X34046237Y-82545520D01*
X34047257Y-82311958D01*
X34052388Y-82151023D01*
X34064736Y-82044307D01*
X34087407Y-81973402D01*
X34123509Y-81919901D01*
X34157967Y-81883415D01*
X34287112Y-81796495D01*
X34450122Y-81771685D01*
X34620705Y-81784323D01*
G37*
G36*
X33117155Y-81778670D02*
G01*
X33323697Y-81788174D01*
X33459885Y-81801962D01*
X33546399Y-81824904D01*
X33603924Y-81861870D01*
X33640632Y-81901907D01*
X33709769Y-82045131D01*
X33726693Y-82214229D01*
X33691612Y-82371655D01*
X33637594Y-82453446D01*
X33580789Y-82517119D01*
X33579621Y-82565363D01*
X33638098Y-82633885D01*
X33660354Y-82656215D01*
X33754788Y-82806552D01*
X33763808Y-82972736D01*
X33687324Y-83138861D01*
X33663314Y-83168877D01*
X33606535Y-83228507D01*
X33545770Y-83266969D01*
X33459398Y-83289942D01*
X33325798Y-83303106D01*
X33123349Y-83312142D01*
X33117077Y-83312369D01*
X32680646Y-83328143D01*
X32680646Y-82636559D01*
X32908244Y-82636559D01*
X32908244Y-82886918D01*
X32908244Y-83137276D01*
X33138835Y-83137276D01*
X33291648Y-83128175D01*
X33417660Y-83105080D01*
X33457473Y-83090155D01*
X33520286Y-83011774D01*
X33546337Y-82889599D01*
X33532196Y-82764552D01*
X33490896Y-82691183D01*
X33417925Y-82661351D01*
X33286737Y-82641511D01*
X33172258Y-82636559D01*
X32908244Y-82636559D01*
X32680646Y-82636559D01*
X32680646Y-82545520D01*
X32680646Y-81953763D01*
X32908244Y-81953763D01*
X32908244Y-82204122D01*
X32908244Y-82454480D01*
X33155351Y-82454480D01*
X33353919Y-82437487D01*
X33469928Y-82386821D01*
X33473989Y-82382949D01*
X33531858Y-82280663D01*
X33545520Y-82204122D01*
X33514410Y-82074433D01*
X33416673Y-81993436D01*
X33245697Y-81956887D01*
X33155351Y-81953763D01*
X32908244Y-81953763D01*
X32680646Y-81953763D01*
X32680646Y-81762897D01*
X33117155Y-81778670D01*
G37*
G36*
X30177061Y-82477240D02*
G01*
X30177061Y-83501434D01*
X30017742Y-83501434D01*
X29858423Y-83501434D01*
X29858423Y-82477240D01*
X29858423Y-81453047D01*
X30017742Y-81453047D01*
X30177061Y-81453047D01*
X30177061Y-82477240D01*
G37*
G36*
X40510036Y-82500000D02*
G01*
X40510036Y-86232616D01*
X33500000Y-86232616D01*
X26489965Y-86232616D01*
X26489965Y-84275269D01*
X29585305Y-84275269D01*
X29721864Y-84275269D01*
X29799933Y-84271065D01*
X29840567Y-84243514D01*
X29855990Y-84170208D01*
X29858423Y-84028739D01*
X29858423Y-84024910D01*
X29858423Y-83774552D01*
X30063262Y-83774552D01*
X30239029Y-83753727D01*
X30356190Y-83686421D01*
X30359140Y-83683513D01*
X30387540Y-83650545D01*
X30409340Y-83607950D01*
X30425408Y-83544216D01*
X30436613Y-83447834D01*
X30443824Y-83307294D01*
X30447910Y-83111086D01*
X30449738Y-82847701D01*
X30450178Y-82505628D01*
X30450180Y-82477240D01*
X30450139Y-82099977D01*
X30447372Y-81803917D01*
X30437915Y-81579234D01*
X30417801Y-81416101D01*
X30383066Y-81304691D01*
X30329744Y-81235176D01*
X30253871Y-81197729D01*
X30151479Y-81182523D01*
X30018605Y-81179732D01*
X29926703Y-81179928D01*
X29585305Y-81179928D01*
X29585305Y-82727599D01*
X29585305Y-84275269D01*
X26489965Y-84275269D01*
X26489965Y-82500000D01*
X26489965Y-81179928D01*
X28447312Y-81179928D01*
X28447312Y-82377501D01*
X28447947Y-82756519D01*
X28450768Y-83054816D01*
X28457152Y-83282707D01*
X28468472Y-83450507D01*
X28486106Y-83568529D01*
X28511428Y-83647090D01*
X28545813Y-83696503D01*
X28590638Y-83727084D01*
X28629391Y-83742962D01*
X28766405Y-83766962D01*
X28940603Y-83767133D01*
X29101646Y-83744714D01*
X29149904Y-83730159D01*
X29266667Y-83685766D01*
X29266667Y-82432847D01*
X29266667Y-81179928D01*
X29152868Y-81179928D01*
X29039068Y-81179928D01*
X29039068Y-82340681D01*
X29039068Y-83501434D01*
X28879749Y-83501434D01*
X28720430Y-83501434D01*
X28720430Y-82340681D01*
X28720430Y-81179928D01*
X28583871Y-81179928D01*
X28447312Y-81179928D01*
X26489965Y-81179928D01*
X26489965Y-80679211D01*
X30768818Y-80679211D01*
X30768818Y-80929570D01*
X30768818Y-81179928D01*
X31041936Y-81179928D01*
X31315054Y-81179928D01*
X31315054Y-81339247D01*
X31307441Y-81446288D01*
X31268828Y-81490191D01*
X31178495Y-81498566D01*
X31041936Y-81498566D01*
X31041936Y-82636559D01*
X31041936Y-83774552D01*
X30905377Y-83774552D01*
X30827308Y-83778756D01*
X30786674Y-83806307D01*
X30771251Y-83879613D01*
X30768818Y-84021082D01*
X30768818Y-84024910D01*
X30768818Y-84275269D01*
X34706273Y-84275269D01*
X38643728Y-84275269D01*
X38643728Y-82477240D01*
X38643728Y-80679211D01*
X34706273Y-80679211D01*
X30768818Y-80679211D01*
X26489965Y-80679211D01*
X26489965Y-78767384D01*
X33500000Y-78767384D01*
X40510036Y-78767384D01*
X40510036Y-82500000D01*
G37*
D14*
%TO.C,J10*%
X56210000Y-53210000D02*
X74250000Y-53210000D01*
X56210000Y-62330000D02*
X56210000Y-53210000D01*
X57510000Y-54520000D02*
X72950000Y-54520000D01*
X57510000Y-61020000D02*
X57510000Y-54520000D01*
X60920000Y-63720000D02*
X61920000Y-63720000D01*
X61420000Y-62720000D02*
X60920000Y-63720000D01*
X61920000Y-63720000D02*
X61420000Y-62720000D01*
X63180000Y-61020000D02*
X57510000Y-61020000D01*
X63180000Y-62330000D02*
X63180000Y-61020000D01*
X67280000Y-61020000D02*
X67280000Y-61020000D01*
X67280000Y-61020000D02*
X67280000Y-62330000D01*
X72950000Y-54520000D02*
X72950000Y-61020000D01*
X72950000Y-61020000D02*
X67280000Y-61020000D01*
X74250000Y-53210000D02*
X74250000Y-62330000D01*
X74250000Y-62330000D02*
X56210000Y-62330000D01*
%TO.C,R6*%
X84930000Y-82080000D02*
X84930000Y-82560000D01*
X84930000Y-85920000D02*
X84930000Y-85440000D01*
X95070000Y-82080000D02*
X84930000Y-82080000D01*
X95070000Y-82560000D02*
X95070000Y-82080000D01*
X95070000Y-85440000D02*
X95070000Y-85920000D01*
X95070000Y-85920000D02*
X84930000Y-85920000D01*
%TO.C,J15*%
X75970000Y-99850000D02*
X75970000Y-66770000D01*
X78630000Y-66770000D02*
X75970000Y-66770000D01*
X78630000Y-99850000D02*
X75970000Y-99850000D01*
X78630000Y-99850000D02*
X78630000Y-66770000D01*
X78630000Y-101120000D02*
X78630000Y-102450000D01*
X78630000Y-102450000D02*
X77300000Y-102450000D01*
%TO.C,J16*%
X50970000Y-66790000D02*
X52300000Y-66790000D01*
X50970000Y-68120000D02*
X50970000Y-66790000D01*
X50970000Y-69390000D02*
X50970000Y-102470000D01*
X50970000Y-69390000D02*
X53630000Y-69390000D01*
X50970000Y-102470000D02*
X53630000Y-102470000D01*
X53630000Y-69390000D02*
X53630000Y-102470000D01*
%TO.C,R9*%
X84930000Y-64880000D02*
X95070000Y-64880000D01*
X84930000Y-65360000D02*
X84930000Y-64880000D01*
X84930000Y-68240000D02*
X84930000Y-68720000D01*
X84930000Y-68720000D02*
X95070000Y-68720000D01*
X95070000Y-64880000D02*
X95070000Y-65360000D01*
X95070000Y-68720000D02*
X95070000Y-68240000D01*
D15*
%TO.C,J14*%
X33900000Y-26000000D02*
X32900000Y-26000000D01*
X34650000Y-24400000D02*
X37450000Y-21950000D01*
X34650000Y-27600000D02*
X34650000Y-24400000D01*
X37450000Y-21950000D02*
X50150000Y-21950000D01*
X37450000Y-30050000D02*
X34650000Y-27600000D01*
X50150000Y-21950000D02*
X50150000Y-30050000D01*
X50150000Y-30050000D02*
X37450000Y-30050000D01*
X51400000Y-26500000D02*
X51400000Y-25500000D01*
X51900000Y-26000000D02*
X50900000Y-26000000D01*
D14*
%TO.C,J2*%
X58670000Y-25670000D02*
X76710000Y-25670000D01*
X58670000Y-34790000D02*
X58670000Y-25670000D01*
X59970000Y-26980000D02*
X75410000Y-26980000D01*
X59970000Y-33480000D02*
X59970000Y-26980000D01*
X63380000Y-36180000D02*
X64380000Y-36180000D01*
X63880000Y-35180000D02*
X63380000Y-36180000D01*
X64380000Y-36180000D02*
X63880000Y-35180000D01*
X65640000Y-33480000D02*
X59970000Y-33480000D01*
X65640000Y-34790000D02*
X65640000Y-33480000D01*
X69740000Y-33480000D02*
X69740000Y-33480000D01*
X69740000Y-33480000D02*
X69740000Y-34790000D01*
X75410000Y-26980000D02*
X75410000Y-33480000D01*
X75410000Y-33480000D02*
X69740000Y-33480000D01*
X76710000Y-25670000D02*
X76710000Y-34790000D01*
X76710000Y-34790000D02*
X58670000Y-34790000D01*
D12*
%TO.C,J12*%
X23250000Y-29500000D02*
X30750000Y-29500000D01*
X23250000Y-39500000D02*
X23250000Y-29500000D01*
X30750000Y-29500000D02*
X30750000Y-39500000D01*
X30750000Y-39500000D02*
X23250000Y-39500000D01*
D14*
%TO.C,J6*%
X84150000Y-39725000D02*
X84150000Y-40975000D01*
X84440000Y-40015000D02*
X84440000Y-45985000D01*
X84440000Y-45985000D02*
X97060000Y-45985000D01*
X84450000Y-40025000D02*
X84450000Y-40775000D01*
X84450000Y-40775000D02*
X86250000Y-40775000D01*
X84450000Y-42275000D02*
X85200000Y-42275000D01*
X85200000Y-42275000D02*
X85200000Y-45225000D01*
X85200000Y-45225000D02*
X90750000Y-45225000D01*
X85400000Y-39725000D02*
X84150000Y-39725000D01*
X86250000Y-40025000D02*
X84450000Y-40025000D01*
X86250000Y-40775000D02*
X86250000Y-40025000D01*
X87750000Y-40025000D02*
X87750000Y-40775000D01*
X87750000Y-40775000D02*
X93750000Y-40775000D01*
X93750000Y-40025000D02*
X87750000Y-40025000D01*
X93750000Y-40775000D02*
X93750000Y-40025000D01*
X95250000Y-40025000D02*
X95250000Y-40775000D01*
X95250000Y-40775000D02*
X97050000Y-40775000D01*
X96300000Y-42275000D02*
X96300000Y-45225000D01*
X96300000Y-45225000D02*
X90750000Y-45225000D01*
X97050000Y-40025000D02*
X95250000Y-40025000D01*
X97050000Y-40775000D02*
X97050000Y-40025000D01*
X97050000Y-42275000D02*
X96300000Y-42275000D01*
X97060000Y-40015000D02*
X84440000Y-40015000D01*
X97060000Y-45985000D02*
X97060000Y-40015000D01*
%TO.C,C1*%
X37419000Y-47099000D02*
X37419000Y-45901000D01*
X37459000Y-47362000D02*
X37459000Y-45638000D01*
X37499000Y-47562000D02*
X37499000Y-45438000D01*
X37539000Y-47730000D02*
X37539000Y-45270000D01*
X37579000Y-47878000D02*
X37579000Y-45122000D01*
X37619000Y-48010000D02*
X37619000Y-44990000D01*
X37659000Y-48130000D02*
X37659000Y-44870000D01*
X37699000Y-48242000D02*
X37699000Y-44758000D01*
X37739000Y-48346000D02*
X37739000Y-44654000D01*
X37779000Y-48444000D02*
X37779000Y-44556000D01*
X37819000Y-48537000D02*
X37819000Y-44463000D01*
X37859000Y-48625000D02*
X37859000Y-44375000D01*
X37899000Y-48709000D02*
X37899000Y-44291000D01*
X37939000Y-48789000D02*
X37939000Y-44211000D01*
X37979000Y-48865000D02*
X37979000Y-44135000D01*
X38019000Y-48939000D02*
X38019000Y-44061000D01*
X38059000Y-49010000D02*
X38059000Y-43990000D01*
X38099000Y-49079000D02*
X38099000Y-43921000D01*
X38139000Y-49145000D02*
X38139000Y-43855000D01*
X38179000Y-49209000D02*
X38179000Y-43791000D01*
X38219000Y-49270000D02*
X38219000Y-43730000D01*
X38259000Y-49330000D02*
X38259000Y-43670000D01*
X38299000Y-49389000D02*
X38299000Y-43611000D01*
X38339000Y-49445000D02*
X38339000Y-43555000D01*
X38379000Y-49500000D02*
X38379000Y-43500000D01*
X38419000Y-49554000D02*
X38419000Y-43446000D01*
X38459000Y-49606000D02*
X38459000Y-43394000D01*
X38499000Y-49656000D02*
X38499000Y-43344000D01*
X38539000Y-49706000D02*
X38539000Y-43294000D01*
X38579000Y-49754000D02*
X38579000Y-43246000D01*
X38619000Y-49801000D02*
X38619000Y-43199000D01*
X38659000Y-49847000D02*
X38659000Y-43153000D01*
X38699000Y-49892000D02*
X38699000Y-43108000D01*
X38739000Y-49936000D02*
X38739000Y-43064000D01*
X38779000Y-45259000D02*
X38779000Y-43022000D01*
X38779000Y-49978000D02*
X38779000Y-47741000D01*
X38819000Y-45259000D02*
X38819000Y-42980000D01*
X38819000Y-50020000D02*
X38819000Y-47741000D01*
X38859000Y-45259000D02*
X38859000Y-42939000D01*
X38859000Y-50061000D02*
X38859000Y-47741000D01*
X38899000Y-45259000D02*
X38899000Y-42899000D01*
X38899000Y-50101000D02*
X38899000Y-47741000D01*
X38939000Y-45259000D02*
X38939000Y-42860000D01*
X38939000Y-50140000D02*
X38939000Y-47741000D01*
X38979000Y-45259000D02*
X38979000Y-42821000D01*
X38979000Y-50179000D02*
X38979000Y-47741000D01*
X39019000Y-45259000D02*
X39019000Y-42784000D01*
X39019000Y-50216000D02*
X39019000Y-47741000D01*
X39059000Y-45259000D02*
X39059000Y-42747000D01*
X39059000Y-50253000D02*
X39059000Y-47741000D01*
X39099000Y-45259000D02*
X39099000Y-42711000D01*
X39099000Y-50289000D02*
X39099000Y-47741000D01*
X39139000Y-45259000D02*
X39139000Y-42676000D01*
X39139000Y-50324000D02*
X39139000Y-47741000D01*
X39179000Y-45259000D02*
X39179000Y-42642000D01*
X39179000Y-50358000D02*
X39179000Y-47741000D01*
X39219000Y-45259000D02*
X39219000Y-42608000D01*
X39219000Y-50392000D02*
X39219000Y-47741000D01*
X39259000Y-45259000D02*
X39259000Y-42575000D01*
X39259000Y-50425000D02*
X39259000Y-47741000D01*
X39299000Y-45259000D02*
X39299000Y-42543000D01*
X39299000Y-50457000D02*
X39299000Y-47741000D01*
X39339000Y-45259000D02*
X39339000Y-42511000D01*
X39339000Y-50489000D02*
X39339000Y-47741000D01*
X39379000Y-45259000D02*
X39379000Y-42480000D01*
X39379000Y-50520000D02*
X39379000Y-47741000D01*
X39419000Y-45259000D02*
X39419000Y-42450000D01*
X39419000Y-50550000D02*
X39419000Y-47741000D01*
X39459000Y-45259000D02*
X39459000Y-42420000D01*
X39459000Y-50580000D02*
X39459000Y-47741000D01*
X39499000Y-45259000D02*
X39499000Y-42390000D01*
X39499000Y-50610000D02*
X39499000Y-47741000D01*
X39539000Y-45259000D02*
X39539000Y-42362000D01*
X39539000Y-50638000D02*
X39539000Y-47741000D01*
X39579000Y-45259000D02*
X39579000Y-42334000D01*
X39579000Y-50666000D02*
X39579000Y-47741000D01*
X39619000Y-45259000D02*
X39619000Y-42306000D01*
X39619000Y-50694000D02*
X39619000Y-47741000D01*
X39659000Y-45259000D02*
X39659000Y-42279000D01*
X39659000Y-50721000D02*
X39659000Y-47741000D01*
X39699000Y-45259000D02*
X39699000Y-42253000D01*
X39699000Y-50747000D02*
X39699000Y-47741000D01*
X39739000Y-45259000D02*
X39739000Y-42227000D01*
X39739000Y-50773000D02*
X39739000Y-47741000D01*
X39779000Y-45259000D02*
X39779000Y-42202000D01*
X39779000Y-50798000D02*
X39779000Y-47741000D01*
X39819000Y-45259000D02*
X39819000Y-42177000D01*
X39819000Y-50823000D02*
X39819000Y-47741000D01*
X39859000Y-45259000D02*
X39859000Y-42153000D01*
X39859000Y-50847000D02*
X39859000Y-47741000D01*
X39899000Y-45259000D02*
X39899000Y-42129000D01*
X39899000Y-50871000D02*
X39899000Y-47741000D01*
X39939000Y-45259000D02*
X39939000Y-42105000D01*
X39939000Y-50895000D02*
X39939000Y-47741000D01*
X39979000Y-45259000D02*
X39979000Y-42083000D01*
X39979000Y-50917000D02*
X39979000Y-47741000D01*
X40019000Y-45259000D02*
X40019000Y-42060000D01*
X40019000Y-50940000D02*
X40019000Y-47741000D01*
X40059000Y-45259000D02*
X40059000Y-42038000D01*
X40059000Y-50962000D02*
X40059000Y-47741000D01*
X40099000Y-45259000D02*
X40099000Y-42017000D01*
X40099000Y-50983000D02*
X40099000Y-47741000D01*
X40139000Y-45259000D02*
X40139000Y-41996000D01*
X40139000Y-51004000D02*
X40139000Y-47741000D01*
X40179000Y-45259000D02*
X40179000Y-41975000D01*
X40179000Y-51025000D02*
X40179000Y-47741000D01*
X40219000Y-45259000D02*
X40219000Y-41955000D01*
X40219000Y-51045000D02*
X40219000Y-47741000D01*
X40259000Y-45259000D02*
X40259000Y-41936000D01*
X40259000Y-51064000D02*
X40259000Y-47741000D01*
X40299000Y-45259000D02*
X40299000Y-41916000D01*
X40299000Y-51084000D02*
X40299000Y-47741000D01*
X40339000Y-45259000D02*
X40339000Y-41897000D01*
X40339000Y-51103000D02*
X40339000Y-47741000D01*
X40379000Y-45259000D02*
X40379000Y-41879000D01*
X40379000Y-51121000D02*
X40379000Y-47741000D01*
X40419000Y-45259000D02*
X40419000Y-41861000D01*
X40419000Y-51139000D02*
X40419000Y-47741000D01*
X40459000Y-45259000D02*
X40459000Y-41843000D01*
X40459000Y-51157000D02*
X40459000Y-47741000D01*
X40499000Y-45259000D02*
X40499000Y-41826000D01*
X40499000Y-51174000D02*
X40499000Y-47741000D01*
X40539000Y-45259000D02*
X40539000Y-41810000D01*
X40539000Y-51190000D02*
X40539000Y-47741000D01*
X40579000Y-45259000D02*
X40579000Y-41793000D01*
X40579000Y-51207000D02*
X40579000Y-47741000D01*
X40619000Y-45259000D02*
X40619000Y-41777000D01*
X40619000Y-51223000D02*
X40619000Y-47741000D01*
X40659000Y-45259000D02*
X40659000Y-41762000D01*
X40659000Y-51238000D02*
X40659000Y-47741000D01*
X40699000Y-45259000D02*
X40699000Y-41746000D01*
X40699000Y-51254000D02*
X40699000Y-47741000D01*
X40739000Y-45259000D02*
X40739000Y-41732000D01*
X40739000Y-51268000D02*
X40739000Y-47741000D01*
X40779000Y-45259000D02*
X40779000Y-41717000D01*
X40779000Y-51283000D02*
X40779000Y-47741000D01*
X40819000Y-45259000D02*
X40819000Y-41703000D01*
X40819000Y-51297000D02*
X40819000Y-47741000D01*
X40859000Y-45259000D02*
X40859000Y-41689000D01*
X40859000Y-51311000D02*
X40859000Y-47741000D01*
X40899000Y-45259000D02*
X40899000Y-41676000D01*
X40899000Y-51324000D02*
X40899000Y-47741000D01*
X40939000Y-45259000D02*
X40939000Y-41663000D01*
X40939000Y-51337000D02*
X40939000Y-47741000D01*
X40979000Y-45259000D02*
X40979000Y-41650000D01*
X40979000Y-51350000D02*
X40979000Y-47741000D01*
X41019000Y-45259000D02*
X41019000Y-41638000D01*
X41019000Y-51362000D02*
X41019000Y-47741000D01*
X41059000Y-45259000D02*
X41059000Y-41626000D01*
X41059000Y-51374000D02*
X41059000Y-47741000D01*
X41099000Y-45259000D02*
X41099000Y-41615000D01*
X41099000Y-51385000D02*
X41099000Y-47741000D01*
X41139000Y-45259000D02*
X41139000Y-41603000D01*
X41139000Y-51397000D02*
X41139000Y-47741000D01*
X41179000Y-45259000D02*
X41179000Y-41593000D01*
X41179000Y-51407000D02*
X41179000Y-47741000D01*
X41219000Y-45259000D02*
X41219000Y-41582000D01*
X41219000Y-51418000D02*
X41219000Y-47741000D01*
X41259000Y-51428000D02*
X41259000Y-41572000D01*
X41299000Y-51438000D02*
X41299000Y-41562000D01*
X41339000Y-51447000D02*
X41339000Y-41553000D01*
X41379000Y-51456000D02*
X41379000Y-41544000D01*
X41419000Y-51465000D02*
X41419000Y-41535000D01*
X41459000Y-51474000D02*
X41459000Y-41526000D01*
X41499000Y-51482000D02*
X41499000Y-41518000D01*
X41539000Y-51490000D02*
X41539000Y-41510000D01*
X41579000Y-51497000D02*
X41579000Y-41503000D01*
X41619000Y-51504000D02*
X41619000Y-41496000D01*
X41659000Y-51511000D02*
X41659000Y-41489000D01*
X41699000Y-51518000D02*
X41699000Y-41482000D01*
X41739000Y-51524000D02*
X41739000Y-41476000D01*
X41779000Y-51530000D02*
X41779000Y-41470000D01*
X41820000Y-51535000D02*
X41820000Y-41465000D01*
X41860000Y-51540000D02*
X41860000Y-41460000D01*
X41900000Y-51545000D02*
X41900000Y-41455000D01*
X41940000Y-51550000D02*
X41940000Y-41450000D01*
X41980000Y-51554000D02*
X41980000Y-41446000D01*
X42020000Y-51558000D02*
X42020000Y-41442000D01*
X42060000Y-51562000D02*
X42060000Y-41438000D01*
X42100000Y-51565000D02*
X42100000Y-41435000D01*
X42140000Y-51568000D02*
X42140000Y-41432000D01*
X42180000Y-51570000D02*
X42180000Y-41430000D01*
X42220000Y-51573000D02*
X42220000Y-41427000D01*
X42260000Y-51575000D02*
X42260000Y-41425000D01*
X42300000Y-51577000D02*
X42300000Y-41423000D01*
X42340000Y-51578000D02*
X42340000Y-41422000D01*
X42380000Y-51579000D02*
X42380000Y-41421000D01*
X42420000Y-51580000D02*
X42420000Y-41420000D01*
X42460000Y-51580000D02*
X42460000Y-41420000D01*
X42500000Y-51580000D02*
X42500000Y-41420000D01*
X47479646Y-49875000D02*
X47479646Y-48875000D01*
X47979646Y-49375000D02*
X46979646Y-49375000D01*
X47620000Y-46500000D02*
G75*
G02*
X37380000Y-46500000I-5120000J0D01*
G01*
X37380000Y-46500000D02*
G75*
G02*
X47620000Y-46500000I5120000J0D01*
G01*
D12*
%TO.C,IC1*%
X55990000Y-66870000D02*
X73770000Y-66870000D01*
X55990000Y-102430000D02*
X55990000Y-66870000D01*
X73770000Y-66870000D02*
X73770000Y-102430000D01*
X73770000Y-102430000D02*
X55990000Y-102430000D01*
D14*
%TO.C,J13*%
X37130000Y-37830000D02*
X37130000Y-36500000D01*
X38460000Y-37830000D02*
X37130000Y-37830000D01*
X39730000Y-35170000D02*
X44870000Y-35170000D01*
X39730000Y-37830000D02*
X39730000Y-35170000D01*
X39730000Y-37830000D02*
X44870000Y-37830000D01*
X44870000Y-37830000D02*
X44870000Y-35170000D01*
%TO.C,R8*%
X84930000Y-59580000D02*
X84930000Y-60060000D01*
X84930000Y-63420000D02*
X84930000Y-62940000D01*
X95070000Y-59580000D02*
X84930000Y-59580000D01*
X95070000Y-60060000D02*
X95070000Y-59580000D01*
X95070000Y-62940000D02*
X95070000Y-63420000D01*
X95070000Y-63420000D02*
X84930000Y-63420000D01*
%TO.C,R5*%
X84930000Y-88080000D02*
X84930000Y-88560000D01*
X84930000Y-91920000D02*
X84930000Y-91440000D01*
X95070000Y-88080000D02*
X84930000Y-88080000D01*
X95070000Y-88560000D02*
X95070000Y-88080000D01*
X95070000Y-91440000D02*
X95070000Y-91920000D01*
X95070000Y-91920000D02*
X84930000Y-91920000D01*
%TO.C,D1*%
X49900000Y-43225000D02*
X49900000Y-44475000D01*
X50190000Y-43515000D02*
X50190000Y-49485000D01*
X50190000Y-49485000D02*
X57810000Y-49485000D01*
X50200000Y-43525000D02*
X50200000Y-44275000D01*
X50200000Y-44275000D02*
X52000000Y-44275000D01*
X50200000Y-45775000D02*
X50950000Y-45775000D01*
X50950000Y-45775000D02*
X50950000Y-48725000D01*
X50950000Y-48725000D02*
X54000000Y-48725000D01*
X51150000Y-43225000D02*
X49900000Y-43225000D01*
X52000000Y-43525000D02*
X50200000Y-43525000D01*
X52000000Y-44275000D02*
X52000000Y-43525000D01*
X53500000Y-43525000D02*
X53500000Y-44275000D01*
X53500000Y-44275000D02*
X54500000Y-44275000D01*
X54500000Y-43525000D02*
X53500000Y-43525000D01*
X54500000Y-44275000D02*
X54500000Y-43525000D01*
X56000000Y-43525000D02*
X56000000Y-44275000D01*
X56000000Y-44275000D02*
X57800000Y-44275000D01*
X57050000Y-45775000D02*
X57050000Y-48725000D01*
X57050000Y-48725000D02*
X54000000Y-48725000D01*
X57800000Y-43525000D02*
X56000000Y-43525000D01*
X57800000Y-44275000D02*
X57800000Y-43525000D01*
X57800000Y-45775000D02*
X57050000Y-45775000D01*
X57810000Y-43515000D02*
X50190000Y-43515000D01*
X57810000Y-49485000D02*
X57810000Y-43515000D01*
%TO.C,J4*%
X84150000Y-102250000D02*
X84150000Y-103500000D01*
X84440000Y-102540000D02*
X84440000Y-108510000D01*
X84440000Y-108510000D02*
X97060000Y-108510000D01*
X84450000Y-102550000D02*
X84450000Y-103300000D01*
X84450000Y-103300000D02*
X86250000Y-103300000D01*
X84450000Y-104800000D02*
X85200000Y-104800000D01*
X85200000Y-104800000D02*
X85200000Y-107750000D01*
X85200000Y-107750000D02*
X90750000Y-107750000D01*
X85400000Y-102250000D02*
X84150000Y-102250000D01*
X86250000Y-102550000D02*
X84450000Y-102550000D01*
X86250000Y-103300000D02*
X86250000Y-102550000D01*
X87750000Y-102550000D02*
X87750000Y-103300000D01*
X87750000Y-103300000D02*
X93750000Y-103300000D01*
X93750000Y-102550000D02*
X87750000Y-102550000D01*
X93750000Y-103300000D02*
X93750000Y-102550000D01*
X95250000Y-102550000D02*
X95250000Y-103300000D01*
X95250000Y-103300000D02*
X97050000Y-103300000D01*
X96300000Y-104800000D02*
X96300000Y-107750000D01*
X96300000Y-107750000D02*
X90750000Y-107750000D01*
X97050000Y-102550000D02*
X95250000Y-102550000D01*
X97050000Y-103300000D02*
X97050000Y-102550000D01*
X97050000Y-104800000D02*
X96300000Y-104800000D01*
X97060000Y-102540000D02*
X84440000Y-102540000D01*
X97060000Y-108510000D02*
X97060000Y-102540000D01*
%TO.C,R7*%
X84930000Y-54580000D02*
X95070000Y-54580000D01*
X84930000Y-55060000D02*
X84930000Y-54580000D01*
X84930000Y-57940000D02*
X84930000Y-58420000D01*
X84930000Y-58420000D02*
X95070000Y-58420000D01*
X95070000Y-54580000D02*
X95070000Y-55060000D01*
X95070000Y-58420000D02*
X95070000Y-57940000D01*
%TO.C,U1*%
D10*
X21746000Y-53881000D02*
X44746000Y-53881000D01*
X44746000Y-102373000D01*
X21746000Y-102373000D01*
X21746000Y-53881000D01*
D14*
%TO.C,R2*%
X43580000Y-108080000D02*
X43580000Y-108560000D01*
X43580000Y-111920000D02*
X43580000Y-111440000D01*
X53720000Y-108080000D02*
X43580000Y-108080000D01*
X53720000Y-108560000D02*
X53720000Y-108080000D01*
X53720000Y-111440000D02*
X53720000Y-111920000D01*
X53720000Y-111920000D02*
X43580000Y-111920000D01*
%TO.C,R1*%
X36580000Y-93580000D02*
X37060000Y-93580000D01*
X36580000Y-103720000D02*
X36580000Y-93580000D01*
X37060000Y-103720000D02*
X36580000Y-103720000D01*
X39940000Y-103720000D02*
X40420000Y-103720000D01*
X40420000Y-93580000D02*
X39940000Y-93580000D01*
X40420000Y-103720000D02*
X40420000Y-93580000D01*
%TO.C,J9*%
X43870000Y-114670000D02*
X45200000Y-114670000D01*
X43870000Y-116000000D02*
X43870000Y-114670000D01*
X46470000Y-114670000D02*
X54150000Y-114670000D01*
X46470000Y-117330000D02*
X46470000Y-114670000D01*
X46470000Y-117330000D02*
X54150000Y-117330000D01*
X54150000Y-117330000D02*
X54150000Y-114670000D01*
%TO.C,R3*%
X61780000Y-108080000D02*
X71920000Y-108080000D01*
X61780000Y-108560000D02*
X61780000Y-108080000D01*
X61780000Y-111440000D02*
X61780000Y-111920000D01*
X61780000Y-111920000D02*
X71920000Y-111920000D01*
X71920000Y-108080000D02*
X71920000Y-108560000D01*
X71920000Y-111920000D02*
X71920000Y-111440000D01*
%TO.C,J5*%
X84150000Y-70987500D02*
X84150000Y-72237500D01*
X84440000Y-71277500D02*
X84440000Y-77247500D01*
X84440000Y-77247500D02*
X97060000Y-77247500D01*
X84450000Y-71287500D02*
X84450000Y-72037500D01*
X84450000Y-72037500D02*
X86250000Y-72037500D01*
X84450000Y-73537500D02*
X85200000Y-73537500D01*
X85200000Y-73537500D02*
X85200000Y-76487500D01*
X85200000Y-76487500D02*
X90750000Y-76487500D01*
X85400000Y-70987500D02*
X84150000Y-70987500D01*
X86250000Y-71287500D02*
X84450000Y-71287500D01*
X86250000Y-72037500D02*
X86250000Y-71287500D01*
X87750000Y-71287500D02*
X87750000Y-72037500D01*
X87750000Y-72037500D02*
X93750000Y-72037500D01*
X93750000Y-71287500D02*
X87750000Y-71287500D01*
X93750000Y-72037500D02*
X93750000Y-71287500D01*
X95250000Y-71287500D02*
X95250000Y-72037500D01*
X95250000Y-72037500D02*
X97050000Y-72037500D01*
X96300000Y-73537500D02*
X96300000Y-76487500D01*
X96300000Y-76487500D02*
X90750000Y-76487500D01*
X97050000Y-71287500D02*
X95250000Y-71287500D01*
X97050000Y-72037500D02*
X97050000Y-71287500D01*
X97050000Y-73537500D02*
X96300000Y-73537500D01*
X97060000Y-71277500D02*
X84440000Y-71277500D01*
X97060000Y-77247500D02*
X97060000Y-71277500D01*
%TO.C,C2*%
X26286677Y-111099000D02*
X26286677Y-109901000D01*
X26326677Y-111362000D02*
X26326677Y-109638000D01*
X26366677Y-111562000D02*
X26366677Y-109438000D01*
X26406677Y-111730000D02*
X26406677Y-109270000D01*
X26446677Y-111878000D02*
X26446677Y-109122000D01*
X26486677Y-112010000D02*
X26486677Y-108990000D01*
X26526677Y-112130000D02*
X26526677Y-108870000D01*
X26566677Y-112242000D02*
X26566677Y-108758000D01*
X26606677Y-112346000D02*
X26606677Y-108654000D01*
X26646677Y-112444000D02*
X26646677Y-108556000D01*
X26686677Y-112537000D02*
X26686677Y-108463000D01*
X26726677Y-112625000D02*
X26726677Y-108375000D01*
X26766677Y-112709000D02*
X26766677Y-108291000D01*
X26806677Y-112789000D02*
X26806677Y-108211000D01*
X26846677Y-112865000D02*
X26846677Y-108135000D01*
X26886677Y-112939000D02*
X26886677Y-108061000D01*
X26926677Y-113010000D02*
X26926677Y-107990000D01*
X26966677Y-113079000D02*
X26966677Y-107921000D01*
X27006677Y-113145000D02*
X27006677Y-107855000D01*
X27046677Y-113209000D02*
X27046677Y-107791000D01*
X27086677Y-113270000D02*
X27086677Y-107730000D01*
X27126677Y-113330000D02*
X27126677Y-107670000D01*
X27166677Y-113389000D02*
X27166677Y-107611000D01*
X27206677Y-113445000D02*
X27206677Y-107555000D01*
X27246677Y-113500000D02*
X27246677Y-107500000D01*
X27286677Y-113554000D02*
X27286677Y-107446000D01*
X27326677Y-113606000D02*
X27326677Y-107394000D01*
X27366677Y-113656000D02*
X27366677Y-107344000D01*
X27406677Y-113706000D02*
X27406677Y-107294000D01*
X27446677Y-113754000D02*
X27446677Y-107246000D01*
X27486677Y-113801000D02*
X27486677Y-107199000D01*
X27526677Y-113847000D02*
X27526677Y-107153000D01*
X27566677Y-113892000D02*
X27566677Y-107108000D01*
X27606677Y-113936000D02*
X27606677Y-107064000D01*
X27646677Y-109259000D02*
X27646677Y-107022000D01*
X27646677Y-113978000D02*
X27646677Y-111741000D01*
X27686677Y-109259000D02*
X27686677Y-106980000D01*
X27686677Y-114020000D02*
X27686677Y-111741000D01*
X27726677Y-109259000D02*
X27726677Y-106939000D01*
X27726677Y-114061000D02*
X27726677Y-111741000D01*
X27766677Y-109259000D02*
X27766677Y-106899000D01*
X27766677Y-114101000D02*
X27766677Y-111741000D01*
X27806677Y-109259000D02*
X27806677Y-106860000D01*
X27806677Y-114140000D02*
X27806677Y-111741000D01*
X27846677Y-109259000D02*
X27846677Y-106821000D01*
X27846677Y-114179000D02*
X27846677Y-111741000D01*
X27886677Y-109259000D02*
X27886677Y-106784000D01*
X27886677Y-114216000D02*
X27886677Y-111741000D01*
X27926677Y-109259000D02*
X27926677Y-106747000D01*
X27926677Y-114253000D02*
X27926677Y-111741000D01*
X27966677Y-109259000D02*
X27966677Y-106711000D01*
X27966677Y-114289000D02*
X27966677Y-111741000D01*
X28006677Y-109259000D02*
X28006677Y-106676000D01*
X28006677Y-114324000D02*
X28006677Y-111741000D01*
X28046677Y-109259000D02*
X28046677Y-106642000D01*
X28046677Y-114358000D02*
X28046677Y-111741000D01*
X28086677Y-109259000D02*
X28086677Y-106608000D01*
X28086677Y-114392000D02*
X28086677Y-111741000D01*
X28126677Y-109259000D02*
X28126677Y-106575000D01*
X28126677Y-114425000D02*
X28126677Y-111741000D01*
X28166677Y-109259000D02*
X28166677Y-106543000D01*
X28166677Y-114457000D02*
X28166677Y-111741000D01*
X28206677Y-109259000D02*
X28206677Y-106511000D01*
X28206677Y-114489000D02*
X28206677Y-111741000D01*
X28246677Y-109259000D02*
X28246677Y-106480000D01*
X28246677Y-114520000D02*
X28246677Y-111741000D01*
X28286677Y-109259000D02*
X28286677Y-106450000D01*
X28286677Y-114550000D02*
X28286677Y-111741000D01*
X28326677Y-109259000D02*
X28326677Y-106420000D01*
X28326677Y-114580000D02*
X28326677Y-111741000D01*
X28366677Y-109259000D02*
X28366677Y-106390000D01*
X28366677Y-114610000D02*
X28366677Y-111741000D01*
X28406677Y-109259000D02*
X28406677Y-106362000D01*
X28406677Y-114638000D02*
X28406677Y-111741000D01*
X28446677Y-109259000D02*
X28446677Y-106334000D01*
X28446677Y-114666000D02*
X28446677Y-111741000D01*
X28486677Y-109259000D02*
X28486677Y-106306000D01*
X28486677Y-114694000D02*
X28486677Y-111741000D01*
X28526677Y-109259000D02*
X28526677Y-106279000D01*
X28526677Y-114721000D02*
X28526677Y-111741000D01*
X28566677Y-109259000D02*
X28566677Y-106253000D01*
X28566677Y-114747000D02*
X28566677Y-111741000D01*
X28606677Y-109259000D02*
X28606677Y-106227000D01*
X28606677Y-114773000D02*
X28606677Y-111741000D01*
X28646677Y-109259000D02*
X28646677Y-106202000D01*
X28646677Y-114798000D02*
X28646677Y-111741000D01*
X28686677Y-109259000D02*
X28686677Y-106177000D01*
X28686677Y-114823000D02*
X28686677Y-111741000D01*
X28726677Y-109259000D02*
X28726677Y-106153000D01*
X28726677Y-114847000D02*
X28726677Y-111741000D01*
X28766677Y-109259000D02*
X28766677Y-106129000D01*
X28766677Y-114871000D02*
X28766677Y-111741000D01*
X28806677Y-109259000D02*
X28806677Y-106105000D01*
X28806677Y-114895000D02*
X28806677Y-111741000D01*
X28846677Y-109259000D02*
X28846677Y-106083000D01*
X28846677Y-114917000D02*
X28846677Y-111741000D01*
X28886677Y-109259000D02*
X28886677Y-106060000D01*
X28886677Y-114940000D02*
X28886677Y-111741000D01*
X28926677Y-109259000D02*
X28926677Y-106038000D01*
X28926677Y-114962000D02*
X28926677Y-111741000D01*
X28966677Y-109259000D02*
X28966677Y-106017000D01*
X28966677Y-114983000D02*
X28966677Y-111741000D01*
X29006677Y-109259000D02*
X29006677Y-105996000D01*
X29006677Y-115004000D02*
X29006677Y-111741000D01*
X29046677Y-109259000D02*
X29046677Y-105975000D01*
X29046677Y-115025000D02*
X29046677Y-111741000D01*
X29086677Y-109259000D02*
X29086677Y-105955000D01*
X29086677Y-115045000D02*
X29086677Y-111741000D01*
X29126677Y-109259000D02*
X29126677Y-105936000D01*
X29126677Y-115064000D02*
X29126677Y-111741000D01*
X29166677Y-109259000D02*
X29166677Y-105916000D01*
X29166677Y-115084000D02*
X29166677Y-111741000D01*
X29206677Y-109259000D02*
X29206677Y-105897000D01*
X29206677Y-115103000D02*
X29206677Y-111741000D01*
X29246677Y-109259000D02*
X29246677Y-105879000D01*
X29246677Y-115121000D02*
X29246677Y-111741000D01*
X29286677Y-109259000D02*
X29286677Y-105861000D01*
X29286677Y-115139000D02*
X29286677Y-111741000D01*
X29326677Y-109259000D02*
X29326677Y-105843000D01*
X29326677Y-115157000D02*
X29326677Y-111741000D01*
X29366677Y-109259000D02*
X29366677Y-105826000D01*
X29366677Y-115174000D02*
X29366677Y-111741000D01*
X29406677Y-109259000D02*
X29406677Y-105810000D01*
X29406677Y-115190000D02*
X29406677Y-111741000D01*
X29446677Y-109259000D02*
X29446677Y-105793000D01*
X29446677Y-115207000D02*
X29446677Y-111741000D01*
X29486677Y-109259000D02*
X29486677Y-105777000D01*
X29486677Y-115223000D02*
X29486677Y-111741000D01*
X29526677Y-109259000D02*
X29526677Y-105762000D01*
X29526677Y-115238000D02*
X29526677Y-111741000D01*
X29566677Y-109259000D02*
X29566677Y-105746000D01*
X29566677Y-115254000D02*
X29566677Y-111741000D01*
X29606677Y-109259000D02*
X29606677Y-105732000D01*
X29606677Y-115268000D02*
X29606677Y-111741000D01*
X29646677Y-109259000D02*
X29646677Y-105717000D01*
X29646677Y-115283000D02*
X29646677Y-111741000D01*
X29686677Y-109259000D02*
X29686677Y-105703000D01*
X29686677Y-115297000D02*
X29686677Y-111741000D01*
X29726677Y-109259000D02*
X29726677Y-105689000D01*
X29726677Y-115311000D02*
X29726677Y-111741000D01*
X29766677Y-109259000D02*
X29766677Y-105676000D01*
X29766677Y-115324000D02*
X29766677Y-111741000D01*
X29806677Y-109259000D02*
X29806677Y-105663000D01*
X29806677Y-115337000D02*
X29806677Y-111741000D01*
X29846677Y-109259000D02*
X29846677Y-105650000D01*
X29846677Y-115350000D02*
X29846677Y-111741000D01*
X29886677Y-109259000D02*
X29886677Y-105638000D01*
X29886677Y-115362000D02*
X29886677Y-111741000D01*
X29926677Y-109259000D02*
X29926677Y-105626000D01*
X29926677Y-115374000D02*
X29926677Y-111741000D01*
X29966677Y-109259000D02*
X29966677Y-105615000D01*
X29966677Y-115385000D02*
X29966677Y-111741000D01*
X30006677Y-109259000D02*
X30006677Y-105603000D01*
X30006677Y-115397000D02*
X30006677Y-111741000D01*
X30046677Y-109259000D02*
X30046677Y-105593000D01*
X30046677Y-115407000D02*
X30046677Y-111741000D01*
X30086677Y-109259000D02*
X30086677Y-105582000D01*
X30086677Y-115418000D02*
X30086677Y-111741000D01*
X30126677Y-115428000D02*
X30126677Y-105572000D01*
X30166677Y-115438000D02*
X30166677Y-105562000D01*
X30206677Y-115447000D02*
X30206677Y-105553000D01*
X30246677Y-115456000D02*
X30246677Y-105544000D01*
X30286677Y-115465000D02*
X30286677Y-105535000D01*
X30326677Y-115474000D02*
X30326677Y-105526000D01*
X30366677Y-115482000D02*
X30366677Y-105518000D01*
X30406677Y-115490000D02*
X30406677Y-105510000D01*
X30446677Y-115497000D02*
X30446677Y-105503000D01*
X30486677Y-115504000D02*
X30486677Y-105496000D01*
X30526677Y-115511000D02*
X30526677Y-105489000D01*
X30566677Y-115518000D02*
X30566677Y-105482000D01*
X30606677Y-115524000D02*
X30606677Y-105476000D01*
X30646677Y-115530000D02*
X30646677Y-105470000D01*
X30687677Y-115535000D02*
X30687677Y-105465000D01*
X30727677Y-115540000D02*
X30727677Y-105460000D01*
X30767677Y-115545000D02*
X30767677Y-105455000D01*
X30807677Y-115550000D02*
X30807677Y-105450000D01*
X30847677Y-115554000D02*
X30847677Y-105446000D01*
X30887677Y-115558000D02*
X30887677Y-105442000D01*
X30927677Y-115562000D02*
X30927677Y-105438000D01*
X30967677Y-115565000D02*
X30967677Y-105435000D01*
X31007677Y-115568000D02*
X31007677Y-105432000D01*
X31047677Y-115570000D02*
X31047677Y-105430000D01*
X31087677Y-115573000D02*
X31087677Y-105427000D01*
X31127677Y-115575000D02*
X31127677Y-105425000D01*
X31167677Y-115577000D02*
X31167677Y-105423000D01*
X31207677Y-115578000D02*
X31207677Y-105422000D01*
X31247677Y-115579000D02*
X31247677Y-105421000D01*
X31287677Y-115580000D02*
X31287677Y-105420000D01*
X31327677Y-115580000D02*
X31327677Y-105420000D01*
X31367677Y-115580000D02*
X31367677Y-105420000D01*
X36347323Y-113875000D02*
X36347323Y-112875000D01*
X36847323Y-113375000D02*
X35847323Y-113375000D01*
X36487677Y-110500000D02*
G75*
G02*
X26247677Y-110500000I-5120000J0D01*
G01*
X26247677Y-110500000D02*
G75*
G02*
X36487677Y-110500000I5120000J0D01*
G01*
%TO.C,J7*%
X79590000Y-25830000D02*
X79590000Y-24500000D01*
X80920000Y-25830000D02*
X79590000Y-25830000D01*
X82190000Y-23170000D02*
X87330000Y-23170000D01*
X82190000Y-25830000D02*
X82190000Y-23170000D01*
X82190000Y-25830000D02*
X87330000Y-25830000D01*
X87330000Y-25830000D02*
X87330000Y-23170000D01*
%TO.C,J8*%
X23650000Y-44225000D02*
X23650000Y-45475000D01*
X23940000Y-44515000D02*
X23940000Y-50485000D01*
X23940000Y-50485000D02*
X34060000Y-50485000D01*
X23950000Y-44525000D02*
X23950000Y-45275000D01*
X23950000Y-45275000D02*
X25750000Y-45275000D01*
X23950000Y-46775000D02*
X24700000Y-46775000D01*
X24700000Y-46775000D02*
X24700000Y-49725000D01*
X24700000Y-49725000D02*
X29000000Y-49725000D01*
X24900000Y-44225000D02*
X23650000Y-44225000D01*
X25750000Y-44525000D02*
X23950000Y-44525000D01*
X25750000Y-45275000D02*
X25750000Y-44525000D01*
X27250000Y-44525000D02*
X27250000Y-45275000D01*
X27250000Y-45275000D02*
X30750000Y-45275000D01*
X30750000Y-44525000D02*
X27250000Y-44525000D01*
X30750000Y-45275000D02*
X30750000Y-44525000D01*
X32250000Y-44525000D02*
X32250000Y-45275000D01*
X32250000Y-45275000D02*
X34050000Y-45275000D01*
X33300000Y-46775000D02*
X33300000Y-49725000D01*
X33300000Y-49725000D02*
X29000000Y-49725000D01*
X34050000Y-44525000D02*
X32250000Y-44525000D01*
X34050000Y-45275000D02*
X34050000Y-44525000D01*
X34050000Y-46775000D02*
X33300000Y-46775000D01*
X34060000Y-44515000D02*
X23940000Y-44515000D01*
X34060000Y-50485000D02*
X34060000Y-44515000D01*
%TO.C,J1*%
X62790000Y-38670000D02*
X80830000Y-38670000D01*
X62790000Y-47790000D02*
X62790000Y-38670000D01*
X64090000Y-39980000D02*
X79530000Y-39980000D01*
X64090000Y-46480000D02*
X64090000Y-39980000D01*
X67500000Y-49180000D02*
X68500000Y-49180000D01*
X68000000Y-48180000D02*
X67500000Y-49180000D01*
X68500000Y-49180000D02*
X68000000Y-48180000D01*
X69760000Y-46480000D02*
X64090000Y-46480000D01*
X69760000Y-47790000D02*
X69760000Y-46480000D01*
X73860000Y-46480000D02*
X73860000Y-46480000D01*
X73860000Y-46480000D02*
X73860000Y-47790000D01*
X79530000Y-39980000D02*
X79530000Y-46480000D01*
X79530000Y-46480000D02*
X73860000Y-46480000D01*
X80830000Y-38670000D02*
X80830000Y-47790000D01*
X80830000Y-47790000D02*
X62790000Y-47790000D01*
%TO.C,R10*%
X39580000Y-62930000D02*
X40060000Y-62930000D01*
X39580000Y-73070000D02*
X39580000Y-62930000D01*
X40060000Y-73070000D02*
X39580000Y-73070000D01*
X42940000Y-73070000D02*
X43420000Y-73070000D01*
X43420000Y-62930000D02*
X42940000Y-62930000D01*
X43420000Y-73070000D02*
X43420000Y-62930000D01*
%TO.C,R4*%
X84930000Y-94580000D02*
X95070000Y-94580000D01*
X84930000Y-95060000D02*
X84930000Y-94580000D01*
X84930000Y-97940000D02*
X84930000Y-98420000D01*
X84930000Y-98420000D02*
X95070000Y-98420000D01*
X95070000Y-94580000D02*
X95070000Y-95060000D01*
X95070000Y-98420000D02*
X95070000Y-97940000D01*
%TD*%
M02*
