%TF.GenerationSoftware,KiCad,Pcbnew,8.0.1*%
%TF.CreationDate,2024-04-25T15:56:44+03:00*%
%TF.ProjectId,Modul_Lcd_Butoane,4d6f6475-6c5f-44c6-9364-5f4275746f61,V1*%
%TF.SameCoordinates,Original*%
%TF.FileFunction,Plated,1,2,PTH,Drill*%
%TF.FilePolarity,Positive*%
%FSLAX46Y46*%
G04 Gerber Fmt 4.6, Leading zero omitted, Abs format (unit mm)*
G04 Created by KiCad (PCBNEW 8.0.1) date 2024-04-25 15:56:44*
%MOMM*%
%LPD*%
G01*
G04 APERTURE LIST*
%TA.AperFunction,ComponentDrill*%
%ADD10C,1.000000*%
%TD*%
%TA.AperFunction,ComponentDrill*%
%ADD11C,1.200000*%
%TD*%
%TA.AperFunction,ComponentDrill*%
%ADD12C,1.300000*%
%TD*%
G04 APERTURE END LIST*
D10*
%TO.C,J12*%
X27100000Y-64730000D03*
X27100000Y-67270000D03*
X27100000Y-69810000D03*
X27100000Y-72350000D03*
%TO.C,J2*%
X27100000Y-150880000D03*
X27100000Y-153420000D03*
X27100000Y-155960000D03*
X27100000Y-158500000D03*
%TO.C,J11*%
X98380000Y-48500000D03*
X98380000Y-51040000D03*
X100920000Y-48500000D03*
X100920000Y-51040000D03*
X103460000Y-48500000D03*
X103460000Y-51040000D03*
X106000000Y-48500000D03*
X106000000Y-51040000D03*
%TO.C,J1*%
X125880000Y-131000000D03*
X125880000Y-133540000D03*
X128420000Y-131000000D03*
X128420000Y-133540000D03*
X130960000Y-131000000D03*
X130960000Y-133540000D03*
X133500000Y-131000000D03*
X133500000Y-133540000D03*
D11*
%TO.C,R14*%
X33400000Y-117500000D03*
X46100000Y-117500000D03*
%TO.C,R13*%
X54733333Y-117500000D03*
X67433333Y-117500000D03*
%TO.C,R11*%
X76066666Y-117500000D03*
X88766666Y-117500000D03*
%TO.C,R12*%
X97400000Y-117500000D03*
X110100000Y-117500000D03*
%TO.C,R4*%
X117500000Y-145500000D03*
X117500000Y-158200000D03*
%TO.C,R1*%
X117500000Y-165500000D03*
X117500000Y-178200000D03*
%TO.C,R3*%
X162500000Y-145500000D03*
X162500000Y-158200000D03*
%TO.C,R2*%
X162500000Y-165500000D03*
X162500000Y-178200000D03*
D12*
%TO.C,SW14*%
X33500000Y-103500000D03*
X33500000Y-108500000D03*
X46000000Y-103500000D03*
X46000000Y-108500000D03*
%TO.C,SW13*%
X54833333Y-103500000D03*
X54833333Y-108500000D03*
X67333333Y-103500000D03*
X67333333Y-108500000D03*
%TO.C,SW11*%
X76166666Y-103500000D03*
X76166666Y-108500000D03*
X88666666Y-103500000D03*
X88666666Y-108500000D03*
%TO.C,SW12*%
X97500000Y-103500000D03*
X97500000Y-108500000D03*
X110000000Y-103500000D03*
X110000000Y-108500000D03*
%TO.C,SW4*%
X123250000Y-149500000D03*
X123250000Y-154500000D03*
%TO.C,SW1*%
X123250000Y-169500000D03*
X123250000Y-174500000D03*
%TO.C,SW4*%
X135750000Y-149500000D03*
X135750000Y-154500000D03*
%TO.C,SW1*%
X135750000Y-169500000D03*
X135750000Y-174500000D03*
%TO.C,SW3*%
X143750000Y-149500000D03*
X143750000Y-154500000D03*
%TO.C,SW2*%
X143750000Y-169500000D03*
X143750000Y-174500000D03*
%TO.C,SW3*%
X156250000Y-149500000D03*
X156250000Y-154500000D03*
%TO.C,SW2*%
X156250000Y-169500000D03*
X156250000Y-174500000D03*
M02*
