%TF.GenerationSoftware,KiCad,Pcbnew,8.0.1*%
%TF.CreationDate,2024-04-25T15:56:31+03:00*%
%TF.ProjectId,Modul_Lcd_Butoane,4d6f6475-6c5f-44c6-9364-5f4275746f61,V1*%
%TF.SameCoordinates,Original*%
%TF.FileFunction,Copper,L1,Top*%
%TF.FilePolarity,Positive*%
%FSLAX46Y46*%
G04 Gerber Fmt 4.6, Leading zero omitted, Abs format (unit mm)*
G04 Created by KiCad (PCBNEW 8.0.1) date 2024-04-25 15:56:31*
%MOMM*%
%LPD*%
G01*
G04 APERTURE LIST*
G04 Aperture macros list*
%AMRoundRect*
0 Rectangle with rounded corners*
0 $1 Rounding radius*
0 $2 $3 $4 $5 $6 $7 $8 $9 X,Y pos of 4 corners*
0 Add a 4 corners polygon primitive as box body*
4,1,4,$2,$3,$4,$5,$6,$7,$8,$9,$2,$3,0*
0 Add four circle primitives for the rounded corners*
1,1,$1+$1,$2,$3*
1,1,$1+$1,$4,$5*
1,1,$1+$1,$6,$7*
1,1,$1+$1,$8,$9*
0 Add four rect primitives between the rounded corners*
20,1,$1+$1,$2,$3,$4,$5,0*
20,1,$1+$1,$4,$5,$6,$7,0*
20,1,$1+$1,$6,$7,$8,$9,0*
20,1,$1+$1,$8,$9,$2,$3,0*%
G04 Aperture macros list end*
%TA.AperFunction,ComponentPad*%
%ADD10O,3.200000X1.900000*%
%TD*%
%TA.AperFunction,ComponentPad*%
%ADD11C,2.400000*%
%TD*%
%TA.AperFunction,ComponentPad*%
%ADD12O,2.400000X2.400000*%
%TD*%
%TA.AperFunction,ComponentPad*%
%ADD13R,1.700000X1.700000*%
%TD*%
%TA.AperFunction,ComponentPad*%
%ADD14O,1.700000X1.700000*%
%TD*%
%TA.AperFunction,ComponentPad*%
%ADD15RoundRect,0.250000X0.600000X-0.600000X0.600000X0.600000X-0.600000X0.600000X-0.600000X-0.600000X0*%
%TD*%
%TA.AperFunction,ComponentPad*%
%ADD16C,1.700000*%
%TD*%
%TA.AperFunction,SMDPad,CuDef*%
%ADD17R,1.300000X0.950000*%
%TD*%
%TA.AperFunction,SMDPad,CuDef*%
%ADD18R,1.300000X3.250000*%
%TD*%
%TA.AperFunction,Conductor*%
%ADD19C,0.300000*%
%TD*%
%TA.AperFunction,Conductor*%
%ADD20C,0.500000*%
%TD*%
G04 APERTURE END LIST*
D10*
%TO.P,SW14,1,1*%
%TO.N,+3.3Vout*%
X33500000Y-103500000D03*
X46000000Y-103500000D03*
%TO.P,SW14,2,2*%
%TO.N,DECREMENT*%
X33500000Y-108500000D03*
X46000000Y-108500000D03*
%TD*%
%TO.P,SW13,1,1*%
%TO.N,+3.3Vout*%
X54833333Y-103500000D03*
X67333333Y-103500000D03*
%TO.P,SW13,2,2*%
%TO.N,INCREMENT*%
X54833333Y-108500000D03*
X67333333Y-108500000D03*
%TD*%
%TO.P,SW12,2,2*%
%TO.N,RIGHT*%
X110000000Y-108500000D03*
X97500000Y-108500000D03*
%TO.P,SW12,1,1*%
%TO.N,+3.3Vout*%
X110000000Y-103500000D03*
X97500000Y-103500000D03*
%TD*%
%TO.P,SW11,1,1*%
%TO.N,+3.3Vout*%
X76166666Y-103500000D03*
X88666666Y-103500000D03*
%TO.P,SW11,2,2*%
%TO.N,LEFT*%
X76166666Y-108500000D03*
X88666666Y-108500000D03*
%TD*%
D11*
%TO.P,R14,1*%
%TO.N,DECREMENT*%
X33400000Y-117500000D03*
D12*
%TO.P,R14,2*%
%TO.N,GND*%
X46100000Y-117500000D03*
%TD*%
%TO.P,R13,2*%
%TO.N,GND*%
X54733333Y-117500000D03*
D11*
%TO.P,R13,1*%
%TO.N,INCREMENT*%
X67433333Y-117500000D03*
%TD*%
D12*
%TO.P,R12,2*%
%TO.N,RIGHT*%
X110100000Y-117500000D03*
D11*
%TO.P,R12,1*%
%TO.N,GND*%
X97400000Y-117500000D03*
%TD*%
D12*
%TO.P,R11,2*%
%TO.N,LEFT*%
X76066666Y-117500000D03*
D11*
%TO.P,R11,1*%
%TO.N,GND*%
X88766666Y-117500000D03*
%TD*%
D13*
%TO.P,J12,1,Pin_1*%
%TO.N,SCL*%
X27100000Y-72350000D03*
D14*
%TO.P,J12,2,Pin_2*%
%TO.N,SDA*%
X27100000Y-69810000D03*
%TO.P,J12,3,Pin_3*%
%TO.N,+5V*%
X27100000Y-67270000D03*
%TO.P,J12,4,Pin_4*%
%TO.N,GND*%
X27100000Y-64730000D03*
%TD*%
D15*
%TO.P,J11,1,Pin_1*%
%TO.N,LEFT*%
X98380000Y-51040000D03*
D16*
%TO.P,J11,2,Pin_2*%
%TO.N,RIGHT*%
X98380000Y-48500000D03*
%TO.P,J11,3,Pin_3*%
%TO.N,INCREMENT*%
X100920000Y-51040000D03*
%TO.P,J11,4,Pin_4*%
%TO.N,DECREMENT*%
X100920000Y-48500000D03*
%TO.P,J11,5,Pin_5*%
%TO.N,SCL*%
X103460000Y-51040000D03*
%TO.P,J11,6,Pin_6*%
%TO.N,SDA*%
X103460000Y-48500000D03*
%TO.P,J11,7,Pin_7*%
%TO.N,+5V*%
X106000000Y-51040000D03*
%TO.P,J11,8,Pin_8*%
%TO.N,GND*%
X106000000Y-48500000D03*
%TD*%
D14*
%TO.P,J2,4,Pin_4*%
%TO.N,GND*%
X27100000Y-150880000D03*
%TO.P,J2,3,Pin_3*%
%TO.N,+5V*%
X27100000Y-153420000D03*
%TO.P,J2,2,Pin_2*%
%TO.N,SDA*%
X27100000Y-155960000D03*
D13*
%TO.P,J2,1,Pin_1*%
%TO.N,SCL*%
X27100000Y-158500000D03*
%TD*%
D17*
%TO.P,IC11,1,GROUND/ADJUST*%
%TO.N,GND*%
X114150000Y-54210000D03*
%TO.P,IC11,2,VOUT_1*%
%TO.N,+3.3Vout*%
X114150000Y-56500000D03*
%TO.P,IC11,3,VIN*%
%TO.N,+5V*%
X114150000Y-58790000D03*
D18*
%TO.P,IC11,4,VOUT_2*%
%TO.N,unconnected-(IC11-VOUT_2-Pad4)*%
X120850000Y-56500000D03*
%TD*%
D17*
%TO.P,IC1,1,GROUND/ADJUST*%
%TO.N,GND*%
X151650000Y-130710000D03*
%TO.P,IC1,2,VOUT_1*%
%TO.N,+3.3Vout*%
X151650000Y-133000000D03*
%TO.P,IC1,3,VIN*%
%TO.N,+5V*%
X151650000Y-135290000D03*
D18*
%TO.P,IC1,4,VOUT_2*%
%TO.N,unconnected-(IC1-VOUT_2-Pad4)*%
X158350000Y-133000000D03*
%TD*%
D10*
%TO.P,SW4,1,1*%
%TO.N,+3.3Vout*%
X123250000Y-149500000D03*
X135750000Y-149500000D03*
%TO.P,SW4,2,2*%
%TO.N,DECREMENT*%
X123250000Y-154500000D03*
X135750000Y-154500000D03*
%TD*%
%TO.P,SW3,1,1*%
%TO.N,+3.3Vout*%
X143750000Y-149500000D03*
X156250000Y-149500000D03*
%TO.P,SW3,2,2*%
%TO.N,INCREMENT*%
X143750000Y-154500000D03*
X156250000Y-154500000D03*
%TD*%
%TO.P,SW2,1,1*%
%TO.N,+3.3Vout*%
X143750000Y-169500000D03*
X156250000Y-169500000D03*
%TO.P,SW2,2,2*%
%TO.N,RIGHT*%
X143750000Y-174500000D03*
X156250000Y-174500000D03*
%TD*%
%TO.P,SW1,1,1*%
%TO.N,+3.3Vout*%
X123250000Y-169500000D03*
X135750000Y-169500000D03*
%TO.P,SW1,2,2*%
%TO.N,LEFT*%
X123250000Y-174500000D03*
X135750000Y-174500000D03*
%TD*%
D11*
%TO.P,R4,1*%
%TO.N,DECREMENT*%
X117500000Y-145500000D03*
D12*
%TO.P,R4,2*%
%TO.N,GND*%
X117500000Y-158200000D03*
%TD*%
D11*
%TO.P,R3,1*%
%TO.N,INCREMENT*%
X162500000Y-145500000D03*
D12*
%TO.P,R3,2*%
%TO.N,GND*%
X162500000Y-158200000D03*
%TD*%
D11*
%TO.P,R2,1*%
%TO.N,GND*%
X162500000Y-165500000D03*
D12*
%TO.P,R2,2*%
%TO.N,RIGHT*%
X162500000Y-178200000D03*
%TD*%
D11*
%TO.P,R1,1*%
%TO.N,GND*%
X117500000Y-165500000D03*
D12*
%TO.P,R1,2*%
%TO.N,LEFT*%
X117500000Y-178200000D03*
%TD*%
D15*
%TO.P,J1,1,Pin_1*%
%TO.N,LEFT*%
X125880000Y-133540000D03*
D16*
%TO.P,J1,2,Pin_2*%
%TO.N,RIGHT*%
X125880000Y-131000000D03*
%TO.P,J1,3,Pin_3*%
%TO.N,INCREMENT*%
X128420000Y-133540000D03*
%TO.P,J1,4,Pin_4*%
%TO.N,DECREMENT*%
X128420000Y-131000000D03*
%TO.P,J1,5,Pin_5*%
%TO.N,SCL*%
X130960000Y-133540000D03*
%TO.P,J1,6,Pin_6*%
%TO.N,SDA*%
X130960000Y-131000000D03*
%TO.P,J1,7,Pin_7*%
%TO.N,+5V*%
X133500000Y-133540000D03*
%TO.P,J1,8,Pin_8*%
%TO.N,GND*%
X133500000Y-131000000D03*
%TD*%
D19*
%TO.N,DECREMENT*%
X33500000Y-108000000D02*
X33500000Y-108500000D01*
X44500000Y-97000000D02*
X33500000Y-108000000D01*
X99720000Y-49700000D02*
X99720000Y-52780000D01*
X99720000Y-52780000D02*
X55500000Y-97000000D01*
X100920000Y-48500000D02*
X99720000Y-49700000D01*
X55500000Y-97000000D02*
X44500000Y-97000000D01*
%TO.N,INCREMENT*%
X63000000Y-101655145D02*
X56155145Y-108500000D01*
X63000000Y-93000000D02*
X63000000Y-101655145D01*
X100920000Y-55080000D02*
X63000000Y-93000000D01*
X56155145Y-108500000D02*
X54833333Y-108500000D01*
X100920000Y-51040000D02*
X100920000Y-55080000D01*
%TO.N,DECREMENT*%
X33400000Y-108600000D02*
X33500000Y-108500000D01*
X33400000Y-117500000D02*
X33400000Y-108600000D01*
%TO.N,INCREMENT*%
X67433333Y-108600000D02*
X67333333Y-108500000D01*
X67433333Y-117500000D02*
X67433333Y-108600000D01*
%TO.N,LEFT*%
X76066666Y-108600000D02*
X76166666Y-108500000D01*
X76066666Y-117500000D02*
X76066666Y-108600000D01*
%TO.N,RIGHT*%
X110100000Y-108600000D02*
X110000000Y-108500000D01*
X110100000Y-117500000D02*
X110100000Y-108600000D01*
D20*
%TO.N,GND*%
X88766666Y-117500000D02*
X97400000Y-117500000D01*
X46100000Y-117500000D02*
X54733333Y-117500000D01*
%TO.N,+3.3Vout*%
X46000000Y-103500000D02*
X54833333Y-103500000D01*
X76166666Y-103500000D02*
X67333333Y-103500000D01*
X97500000Y-103500000D02*
X88666666Y-103500000D01*
%TO.N,GND*%
X50500000Y-44000000D02*
X29770000Y-64730000D01*
X29770000Y-64730000D02*
X27100000Y-64730000D01*
X103000000Y-44000000D02*
X50500000Y-44000000D01*
X106000000Y-47000000D02*
X103000000Y-44000000D01*
X106000000Y-48500000D02*
X106000000Y-47000000D01*
D19*
%TO.N,SDA*%
X51910000Y-45000000D02*
X27100000Y-69810000D01*
X101500000Y-45000000D02*
X51910000Y-45000000D01*
X103500000Y-47000000D02*
X101500000Y-45000000D01*
X103460000Y-47040000D02*
X103500000Y-47000000D01*
X103460000Y-48500000D02*
X103460000Y-47040000D01*
%TO.N,SCL*%
X53450000Y-46000000D02*
X27100000Y-72350000D01*
X101000000Y-46000000D02*
X53450000Y-46000000D01*
X102120000Y-47120000D02*
X101000000Y-46000000D01*
X102120000Y-49700000D02*
X102120000Y-47120000D01*
X103460000Y-51040000D02*
X102120000Y-49700000D01*
D20*
%TO.N,+3.3Vout*%
X114500000Y-56500000D02*
X116500000Y-58500000D01*
X114150000Y-56500000D02*
X114500000Y-56500000D01*
X116500000Y-97000000D02*
X116500000Y-58500000D01*
X110000000Y-103500000D02*
X116500000Y-97000000D01*
%TO.N,+5V*%
X113750000Y-58790000D02*
X106000000Y-51040000D01*
X114150000Y-58790000D02*
X113750000Y-58790000D01*
%TO.N,GND*%
X106000000Y-48500000D02*
X108440000Y-48500000D01*
X108440000Y-48500000D02*
X114150000Y-54210000D01*
D19*
%TO.N,SDA*%
X129500000Y-128000000D02*
X55060000Y-128000000D01*
X130960000Y-129460000D02*
X129500000Y-128000000D01*
X130960000Y-131000000D02*
X130960000Y-129460000D01*
X55060000Y-128000000D02*
X27100000Y-155960000D01*
%TO.N,SCL*%
X56100000Y-129500000D02*
X27100000Y-158500000D01*
X129000000Y-129500000D02*
X56100000Y-129500000D01*
X129620000Y-130120000D02*
X129000000Y-129500000D01*
X130960000Y-133540000D02*
X129620000Y-132200000D01*
X129620000Y-132200000D02*
X129620000Y-130120000D01*
D20*
%TO.N,GND*%
X41500000Y-126500000D02*
X27100000Y-140900000D01*
X27100000Y-140900000D02*
X27100000Y-142100000D01*
X132000000Y-126500000D02*
X41500000Y-126500000D01*
X133500000Y-128000000D02*
X132000000Y-126500000D01*
X133500000Y-131000000D02*
X133500000Y-128000000D01*
X27100000Y-142100000D02*
X27100000Y-150880000D01*
D19*
%TO.N,DECREMENT*%
X117500000Y-148750000D02*
X117500000Y-145500000D01*
X123250000Y-154500000D02*
X117500000Y-148750000D01*
%TO.N,LEFT*%
X123250000Y-174500000D02*
X121200000Y-174500000D01*
X121200000Y-174500000D02*
X117500000Y-178200000D01*
%TO.N,RIGHT*%
X124500000Y-141000000D02*
X124500000Y-132380000D01*
X129500000Y-172500000D02*
X129500000Y-146000000D01*
X134000000Y-177000000D02*
X129500000Y-172500000D01*
X129500000Y-146000000D02*
X124500000Y-141000000D01*
X141250000Y-177000000D02*
X134000000Y-177000000D01*
X124500000Y-132380000D02*
X125880000Y-131000000D01*
X143750000Y-174500000D02*
X141250000Y-177000000D01*
%TO.N,LEFT*%
X131000000Y-169750000D02*
X135750000Y-174500000D01*
X131000000Y-145500000D02*
X131000000Y-169750000D01*
X125880000Y-140380000D02*
X131000000Y-145500000D01*
X125880000Y-133540000D02*
X125880000Y-140380000D01*
D20*
%TO.N,GND*%
X117500000Y-165500000D02*
X117500000Y-158200000D01*
D19*
%TO.N,RIGHT*%
X159950000Y-178200000D02*
X156250000Y-174500000D01*
X162500000Y-178200000D02*
X159950000Y-178200000D01*
D20*
%TO.N,GND*%
X162500000Y-165500000D02*
X162500000Y-158200000D01*
D19*
%TO.N,DECREMENT*%
X133000000Y-151750000D02*
X135750000Y-154500000D01*
X133000000Y-145000000D02*
X133000000Y-151750000D01*
X127220000Y-139220000D02*
X133000000Y-145000000D01*
X127220000Y-132200000D02*
X127220000Y-139220000D01*
X128420000Y-131000000D02*
X127220000Y-132200000D01*
D20*
%TO.N,+3.3Vout*%
X143750000Y-169500000D02*
X135750000Y-169500000D01*
X143000000Y-169500000D02*
X143750000Y-169500000D01*
X139500000Y-166000000D02*
X143000000Y-169500000D01*
X139500000Y-153250000D02*
X139500000Y-166000000D01*
X135750000Y-149500000D02*
X139500000Y-153250000D01*
D19*
%TO.N,INCREMENT*%
X149500000Y-139000000D02*
X151000000Y-140500000D01*
X151000000Y-149250000D02*
X156250000Y-154500000D01*
X133880000Y-139000000D02*
X149500000Y-139000000D01*
X151000000Y-140500000D02*
X151000000Y-149250000D01*
X128420000Y-133540000D02*
X133880000Y-139000000D01*
X162500000Y-148250000D02*
X162500000Y-145500000D01*
X156250000Y-154500000D02*
X162500000Y-148250000D01*
D20*
%TO.N,+3.3Vout*%
X143750000Y-149500000D02*
X135750000Y-149500000D01*
%TO.N,+5V*%
X149710000Y-135290000D02*
X151650000Y-135290000D01*
X147960000Y-133540000D02*
X149710000Y-135290000D01*
X133500000Y-133540000D02*
X147960000Y-133540000D01*
%TO.N,+3.3Vout*%
X152500000Y-133000000D02*
X156250000Y-136750000D01*
X151650000Y-133000000D02*
X152500000Y-133000000D01*
X156250000Y-136750000D02*
X156250000Y-149500000D01*
%TO.N,GND*%
X153000000Y-128500000D02*
X151650000Y-129850000D01*
X160000000Y-128500000D02*
X153000000Y-128500000D01*
X167000000Y-153700000D02*
X167000000Y-135500000D01*
X167000000Y-135500000D02*
X160000000Y-128500000D01*
X162500000Y-158200000D02*
X167000000Y-153700000D01*
X151650000Y-129850000D02*
X151650000Y-130710000D01*
X133790000Y-130710000D02*
X133500000Y-131000000D01*
X151650000Y-130710000D02*
X133790000Y-130710000D01*
%TD*%
M02*
