%TF.GenerationSoftware,KiCad,Pcbnew,8.0.1*%
%TF.CreationDate,2024-04-25T15:56:32+03:00*%
%TF.ProjectId,Modul_Lcd_Butoane,4d6f6475-6c5f-44c6-9364-5f4275746f61,V1*%
%TF.SameCoordinates,Original*%
%TF.FileFunction,Profile,NP*%
%FSLAX46Y46*%
G04 Gerber Fmt 4.6, Leading zero omitted, Abs format (unit mm)*
G04 Created by KiCad (PCBNEW 8.0.1) date 2024-04-25 15:56:32*
%MOMM*%
%LPD*%
G01*
G04 APERTURE LIST*
%TA.AperFunction,Profile*%
%ADD10C,0.050000*%
%TD*%
G04 APERTURE END LIST*
D10*
X107500000Y-123500000D02*
X171000000Y-123500000D01*
X107500000Y-122000000D02*
X123500000Y-122000000D01*
X107500000Y-122000000D02*
X107500000Y-123500000D01*
X89000000Y-122000000D02*
X102500000Y-122000000D01*
X102500000Y-123500000D01*
X89000000Y-123500000D01*
X89000000Y-122000000D01*
X71000000Y-122000000D02*
X84000000Y-122000000D01*
X84000000Y-123500000D01*
X71000000Y-123500000D01*
X71000000Y-122000000D01*
X66000000Y-123500000D02*
X53000000Y-123500000D01*
X53000000Y-122000000D02*
X66000000Y-122000000D01*
X35000000Y-122000000D02*
X48000000Y-122000000D01*
X39000000Y-123500000D02*
X48000000Y-123500000D01*
X35000000Y-123500000D02*
X39000000Y-123500000D01*
X66000000Y-123500000D02*
X66000000Y-122000000D01*
X53000000Y-123500000D02*
X53000000Y-122000000D01*
X35000000Y-123500000D02*
X35000000Y-122000000D01*
X48000000Y-122000000D02*
X48000000Y-123500000D01*
X21000000Y-123500000D02*
X30000000Y-123500000D01*
X21000000Y-186500000D02*
X21000000Y-123500000D01*
X171000000Y-186500000D02*
X21000000Y-186500000D01*
X171000000Y-123500000D02*
X171000000Y-186500000D01*
X123500000Y-42500000D02*
X123500000Y-122000000D01*
X21000000Y-42500000D02*
X123500000Y-42500000D01*
X21000000Y-122000000D02*
X21000000Y-42500000D01*
X30000000Y-122000000D02*
X21000000Y-122000000D01*
X30000000Y-122000000D02*
X30000000Y-123500000D01*
M02*
