%TF.GenerationSoftware,KiCad,Pcbnew,8.0.1*%
%TF.CreationDate,2024-04-25T15:56:32+03:00*%
%TF.ProjectId,Modul_Lcd_Butoane,4d6f6475-6c5f-44c6-9364-5f4275746f61,V1*%
%TF.SameCoordinates,Original*%
%TF.FileFunction,Soldermask,Top*%
%TF.FilePolarity,Negative*%
%FSLAX46Y46*%
G04 Gerber Fmt 4.6, Leading zero omitted, Abs format (unit mm)*
G04 Created by KiCad (PCBNEW 8.0.1) date 2024-04-25 15:56:32*
%MOMM*%
%LPD*%
G01*
G04 APERTURE LIST*
G04 Aperture macros list*
%AMRoundRect*
0 Rectangle with rounded corners*
0 $1 Rounding radius*
0 $2 $3 $4 $5 $6 $7 $8 $9 X,Y pos of 4 corners*
0 Add a 4 corners polygon primitive as box body*
4,1,4,$2,$3,$4,$5,$6,$7,$8,$9,$2,$3,0*
0 Add four circle primitives for the rounded corners*
1,1,$1+$1,$2,$3*
1,1,$1+$1,$4,$5*
1,1,$1+$1,$6,$7*
1,1,$1+$1,$8,$9*
0 Add four rect primitives between the rounded corners*
20,1,$1+$1,$2,$3,$4,$5,0*
20,1,$1+$1,$4,$5,$6,$7,0*
20,1,$1+$1,$6,$7,$8,$9,0*
20,1,$1+$1,$8,$9,$2,$3,0*%
G04 Aperture macros list end*
%ADD10C,3.200000*%
%ADD11O,3.200000X1.900000*%
%ADD12C,2.400000*%
%ADD13O,2.400000X2.400000*%
%ADD14R,1.700000X1.700000*%
%ADD15O,1.700000X1.700000*%
%ADD16RoundRect,0.250000X0.600000X-0.600000X0.600000X0.600000X-0.600000X0.600000X-0.600000X-0.600000X0*%
%ADD17C,1.700000*%
%ADD18R,1.300000X0.950000*%
%ADD19R,1.300000X3.250000*%
G04 APERTURE END LIST*
D10*
%TO.C,H16*%
X109000000Y-178000000D03*
%TD*%
%TO.C,H15*%
X109000000Y-147500000D03*
%TD*%
%TO.C,H14*%
X120000000Y-46000000D03*
%TD*%
%TO.C,H13*%
X109000000Y-61500000D03*
%TD*%
%TO.C,H12*%
X24500000Y-46000000D03*
%TD*%
%TO.C,H11*%
X109000000Y-92500000D03*
%TD*%
%TO.C,H6*%
X24500000Y-118500000D03*
%TD*%
%TO.C,H5*%
X120000000Y-118500000D03*
%TD*%
%TO.C,H4*%
X167500000Y-183000000D03*
%TD*%
%TO.C,H3*%
X24500000Y-183000000D03*
%TD*%
%TO.C,H2*%
X167500000Y-127000000D03*
%TD*%
%TO.C,H1*%
X24500000Y-127000000D03*
%TD*%
D11*
%TO.C,SW14*%
X33500000Y-103500000D03*
X46000000Y-103500000D03*
X33500000Y-108500000D03*
X46000000Y-108500000D03*
%TD*%
%TO.C,SW13*%
X54833333Y-103500000D03*
X67333333Y-103500000D03*
X54833333Y-108500000D03*
X67333333Y-108500000D03*
%TD*%
%TO.C,SW12*%
X110000000Y-108500000D03*
X97500000Y-108500000D03*
X110000000Y-103500000D03*
X97500000Y-103500000D03*
%TD*%
%TO.C,SW11*%
X76166666Y-103500000D03*
X88666666Y-103500000D03*
X76166666Y-108500000D03*
X88666666Y-108500000D03*
%TD*%
D12*
%TO.C,R14*%
X33400000Y-117500000D03*
D13*
X46100000Y-117500000D03*
%TD*%
%TO.C,R13*%
X54733333Y-117500000D03*
D12*
X67433333Y-117500000D03*
%TD*%
D13*
%TO.C,R12*%
X110100000Y-117500000D03*
D12*
X97400000Y-117500000D03*
%TD*%
D13*
%TO.C,R11*%
X76066666Y-117500000D03*
D12*
X88766666Y-117500000D03*
%TD*%
D14*
%TO.C,J12*%
X27100000Y-72350000D03*
D15*
X27100000Y-69810000D03*
X27100000Y-67270000D03*
X27100000Y-64730000D03*
%TD*%
D16*
%TO.C,J11*%
X98380000Y-51040000D03*
D17*
X98380000Y-48500000D03*
X100920000Y-51040000D03*
X100920000Y-48500000D03*
X103460000Y-51040000D03*
X103460000Y-48500000D03*
X106000000Y-51040000D03*
X106000000Y-48500000D03*
%TD*%
D15*
%TO.C,J2*%
X27100000Y-150880000D03*
X27100000Y-153420000D03*
X27100000Y-155960000D03*
D14*
X27100000Y-158500000D03*
%TD*%
D18*
%TO.C,IC11*%
X114150000Y-54210000D03*
X114150000Y-56500000D03*
X114150000Y-58790000D03*
D19*
X120850000Y-56500000D03*
%TD*%
D18*
%TO.C,IC1*%
X151650000Y-130710000D03*
X151650000Y-133000000D03*
X151650000Y-135290000D03*
D19*
X158350000Y-133000000D03*
%TD*%
D11*
%TO.C,SW4*%
X123250000Y-149500000D03*
X135750000Y-149500000D03*
X123250000Y-154500000D03*
X135750000Y-154500000D03*
%TD*%
%TO.C,SW3*%
X143750000Y-149500000D03*
X156250000Y-149500000D03*
X143750000Y-154500000D03*
X156250000Y-154500000D03*
%TD*%
%TO.C,SW2*%
X143750000Y-169500000D03*
X156250000Y-169500000D03*
X143750000Y-174500000D03*
X156250000Y-174500000D03*
%TD*%
%TO.C,SW1*%
X123250000Y-169500000D03*
X135750000Y-169500000D03*
X123250000Y-174500000D03*
X135750000Y-174500000D03*
%TD*%
D12*
%TO.C,R4*%
X117500000Y-145500000D03*
D13*
X117500000Y-158200000D03*
%TD*%
D12*
%TO.C,R3*%
X162500000Y-145500000D03*
D13*
X162500000Y-158200000D03*
%TD*%
D12*
%TO.C,R2*%
X162500000Y-165500000D03*
D13*
X162500000Y-178200000D03*
%TD*%
D12*
%TO.C,R1*%
X117500000Y-165500000D03*
D13*
X117500000Y-178200000D03*
%TD*%
D16*
%TO.C,J1*%
X125880000Y-133540000D03*
D17*
X125880000Y-131000000D03*
X128420000Y-133540000D03*
X128420000Y-131000000D03*
X130960000Y-133540000D03*
X130960000Y-131000000D03*
X133500000Y-133540000D03*
X133500000Y-131000000D03*
%TD*%
M02*
