%TF.GenerationSoftware,KiCad,Pcbnew,8.0.1*%
%TF.CreationDate,2024-04-25T15:56:32+03:00*%
%TF.ProjectId,Modul_Lcd_Butoane,4d6f6475-6c5f-44c6-9364-5f4275746f61,V1*%
%TF.SameCoordinates,Original*%
%TF.FileFunction,Legend,Top*%
%TF.FilePolarity,Positive*%
%FSLAX46Y46*%
G04 Gerber Fmt 4.6, Leading zero omitted, Abs format (unit mm)*
G04 Created by KiCad (PCBNEW 8.0.1) date 2024-04-25 15:56:32*
%MOMM*%
%LPD*%
G01*
G04 APERTURE LIST*
%ADD10C,0.100000*%
%ADD11C,0.150000*%
%ADD12C,0.254000*%
%ADD13C,0.000000*%
%ADD14C,0.120000*%
%ADD15C,0.200000*%
G04 APERTURE END LIST*
D10*
X31500000Y-58000000D02*
X112500000Y-58000000D01*
X112500000Y-96000000D01*
X31500000Y-96000000D01*
X31500000Y-58000000D01*
X31500000Y-144000000D02*
X112500000Y-144000000D01*
X112500000Y-181500000D01*
X31500000Y-181500000D01*
X31500000Y-144000000D01*
D11*
X37520476Y-98497200D02*
X37663333Y-98544819D01*
X37663333Y-98544819D02*
X37901428Y-98544819D01*
X37901428Y-98544819D02*
X37996666Y-98497200D01*
X37996666Y-98497200D02*
X38044285Y-98449580D01*
X38044285Y-98449580D02*
X38091904Y-98354342D01*
X38091904Y-98354342D02*
X38091904Y-98259104D01*
X38091904Y-98259104D02*
X38044285Y-98163866D01*
X38044285Y-98163866D02*
X37996666Y-98116247D01*
X37996666Y-98116247D02*
X37901428Y-98068628D01*
X37901428Y-98068628D02*
X37710952Y-98021009D01*
X37710952Y-98021009D02*
X37615714Y-97973390D01*
X37615714Y-97973390D02*
X37568095Y-97925771D01*
X37568095Y-97925771D02*
X37520476Y-97830533D01*
X37520476Y-97830533D02*
X37520476Y-97735295D01*
X37520476Y-97735295D02*
X37568095Y-97640057D01*
X37568095Y-97640057D02*
X37615714Y-97592438D01*
X37615714Y-97592438D02*
X37710952Y-97544819D01*
X37710952Y-97544819D02*
X37949047Y-97544819D01*
X37949047Y-97544819D02*
X38091904Y-97592438D01*
X38425238Y-97544819D02*
X38663333Y-98544819D01*
X38663333Y-98544819D02*
X38853809Y-97830533D01*
X38853809Y-97830533D02*
X39044285Y-98544819D01*
X39044285Y-98544819D02*
X39282381Y-97544819D01*
X40187142Y-98544819D02*
X39615714Y-98544819D01*
X39901428Y-98544819D02*
X39901428Y-97544819D01*
X39901428Y-97544819D02*
X39806190Y-97687676D01*
X39806190Y-97687676D02*
X39710952Y-97782914D01*
X39710952Y-97782914D02*
X39615714Y-97830533D01*
X41044285Y-97878152D02*
X41044285Y-98544819D01*
X40806190Y-97497200D02*
X40568095Y-98211485D01*
X40568095Y-98211485D02*
X41187142Y-98211485D01*
X58853809Y-98497200D02*
X58996666Y-98544819D01*
X58996666Y-98544819D02*
X59234761Y-98544819D01*
X59234761Y-98544819D02*
X59329999Y-98497200D01*
X59329999Y-98497200D02*
X59377618Y-98449580D01*
X59377618Y-98449580D02*
X59425237Y-98354342D01*
X59425237Y-98354342D02*
X59425237Y-98259104D01*
X59425237Y-98259104D02*
X59377618Y-98163866D01*
X59377618Y-98163866D02*
X59329999Y-98116247D01*
X59329999Y-98116247D02*
X59234761Y-98068628D01*
X59234761Y-98068628D02*
X59044285Y-98021009D01*
X59044285Y-98021009D02*
X58949047Y-97973390D01*
X58949047Y-97973390D02*
X58901428Y-97925771D01*
X58901428Y-97925771D02*
X58853809Y-97830533D01*
X58853809Y-97830533D02*
X58853809Y-97735295D01*
X58853809Y-97735295D02*
X58901428Y-97640057D01*
X58901428Y-97640057D02*
X58949047Y-97592438D01*
X58949047Y-97592438D02*
X59044285Y-97544819D01*
X59044285Y-97544819D02*
X59282380Y-97544819D01*
X59282380Y-97544819D02*
X59425237Y-97592438D01*
X59758571Y-97544819D02*
X59996666Y-98544819D01*
X59996666Y-98544819D02*
X60187142Y-97830533D01*
X60187142Y-97830533D02*
X60377618Y-98544819D01*
X60377618Y-98544819D02*
X60615714Y-97544819D01*
X61520475Y-98544819D02*
X60949047Y-98544819D01*
X61234761Y-98544819D02*
X61234761Y-97544819D01*
X61234761Y-97544819D02*
X61139523Y-97687676D01*
X61139523Y-97687676D02*
X61044285Y-97782914D01*
X61044285Y-97782914D02*
X60949047Y-97830533D01*
X61853809Y-97544819D02*
X62472856Y-97544819D01*
X62472856Y-97544819D02*
X62139523Y-97925771D01*
X62139523Y-97925771D02*
X62282380Y-97925771D01*
X62282380Y-97925771D02*
X62377618Y-97973390D01*
X62377618Y-97973390D02*
X62425237Y-98021009D01*
X62425237Y-98021009D02*
X62472856Y-98116247D01*
X62472856Y-98116247D02*
X62472856Y-98354342D01*
X62472856Y-98354342D02*
X62425237Y-98449580D01*
X62425237Y-98449580D02*
X62377618Y-98497200D01*
X62377618Y-98497200D02*
X62282380Y-98544819D01*
X62282380Y-98544819D02*
X61996666Y-98544819D01*
X61996666Y-98544819D02*
X61901428Y-98497200D01*
X61901428Y-98497200D02*
X61853809Y-98449580D01*
X101520476Y-98497200D02*
X101663333Y-98544819D01*
X101663333Y-98544819D02*
X101901428Y-98544819D01*
X101901428Y-98544819D02*
X101996666Y-98497200D01*
X101996666Y-98497200D02*
X102044285Y-98449580D01*
X102044285Y-98449580D02*
X102091904Y-98354342D01*
X102091904Y-98354342D02*
X102091904Y-98259104D01*
X102091904Y-98259104D02*
X102044285Y-98163866D01*
X102044285Y-98163866D02*
X101996666Y-98116247D01*
X101996666Y-98116247D02*
X101901428Y-98068628D01*
X101901428Y-98068628D02*
X101710952Y-98021009D01*
X101710952Y-98021009D02*
X101615714Y-97973390D01*
X101615714Y-97973390D02*
X101568095Y-97925771D01*
X101568095Y-97925771D02*
X101520476Y-97830533D01*
X101520476Y-97830533D02*
X101520476Y-97735295D01*
X101520476Y-97735295D02*
X101568095Y-97640057D01*
X101568095Y-97640057D02*
X101615714Y-97592438D01*
X101615714Y-97592438D02*
X101710952Y-97544819D01*
X101710952Y-97544819D02*
X101949047Y-97544819D01*
X101949047Y-97544819D02*
X102091904Y-97592438D01*
X102425238Y-97544819D02*
X102663333Y-98544819D01*
X102663333Y-98544819D02*
X102853809Y-97830533D01*
X102853809Y-97830533D02*
X103044285Y-98544819D01*
X103044285Y-98544819D02*
X103282381Y-97544819D01*
X104187142Y-98544819D02*
X103615714Y-98544819D01*
X103901428Y-98544819D02*
X103901428Y-97544819D01*
X103901428Y-97544819D02*
X103806190Y-97687676D01*
X103806190Y-97687676D02*
X103710952Y-97782914D01*
X103710952Y-97782914D02*
X103615714Y-97830533D01*
X104568095Y-97640057D02*
X104615714Y-97592438D01*
X104615714Y-97592438D02*
X104710952Y-97544819D01*
X104710952Y-97544819D02*
X104949047Y-97544819D01*
X104949047Y-97544819D02*
X105044285Y-97592438D01*
X105044285Y-97592438D02*
X105091904Y-97640057D01*
X105091904Y-97640057D02*
X105139523Y-97735295D01*
X105139523Y-97735295D02*
X105139523Y-97830533D01*
X105139523Y-97830533D02*
X105091904Y-97973390D01*
X105091904Y-97973390D02*
X104520476Y-98544819D01*
X104520476Y-98544819D02*
X105139523Y-98544819D01*
X80187142Y-98497200D02*
X80329999Y-98544819D01*
X80329999Y-98544819D02*
X80568094Y-98544819D01*
X80568094Y-98544819D02*
X80663332Y-98497200D01*
X80663332Y-98497200D02*
X80710951Y-98449580D01*
X80710951Y-98449580D02*
X80758570Y-98354342D01*
X80758570Y-98354342D02*
X80758570Y-98259104D01*
X80758570Y-98259104D02*
X80710951Y-98163866D01*
X80710951Y-98163866D02*
X80663332Y-98116247D01*
X80663332Y-98116247D02*
X80568094Y-98068628D01*
X80568094Y-98068628D02*
X80377618Y-98021009D01*
X80377618Y-98021009D02*
X80282380Y-97973390D01*
X80282380Y-97973390D02*
X80234761Y-97925771D01*
X80234761Y-97925771D02*
X80187142Y-97830533D01*
X80187142Y-97830533D02*
X80187142Y-97735295D01*
X80187142Y-97735295D02*
X80234761Y-97640057D01*
X80234761Y-97640057D02*
X80282380Y-97592438D01*
X80282380Y-97592438D02*
X80377618Y-97544819D01*
X80377618Y-97544819D02*
X80615713Y-97544819D01*
X80615713Y-97544819D02*
X80758570Y-97592438D01*
X81091904Y-97544819D02*
X81329999Y-98544819D01*
X81329999Y-98544819D02*
X81520475Y-97830533D01*
X81520475Y-97830533D02*
X81710951Y-98544819D01*
X81710951Y-98544819D02*
X81949047Y-97544819D01*
X82853808Y-98544819D02*
X82282380Y-98544819D01*
X82568094Y-98544819D02*
X82568094Y-97544819D01*
X82568094Y-97544819D02*
X82472856Y-97687676D01*
X82472856Y-97687676D02*
X82377618Y-97782914D01*
X82377618Y-97782914D02*
X82282380Y-97830533D01*
X83806189Y-98544819D02*
X83234761Y-98544819D01*
X83520475Y-98544819D02*
X83520475Y-97544819D01*
X83520475Y-97544819D02*
X83425237Y-97687676D01*
X83425237Y-97687676D02*
X83329999Y-97782914D01*
X83329999Y-97782914D02*
X83234761Y-97830533D01*
X39107142Y-117954819D02*
X38773809Y-117478628D01*
X38535714Y-117954819D02*
X38535714Y-116954819D01*
X38535714Y-116954819D02*
X38916666Y-116954819D01*
X38916666Y-116954819D02*
X39011904Y-117002438D01*
X39011904Y-117002438D02*
X39059523Y-117050057D01*
X39059523Y-117050057D02*
X39107142Y-117145295D01*
X39107142Y-117145295D02*
X39107142Y-117288152D01*
X39107142Y-117288152D02*
X39059523Y-117383390D01*
X39059523Y-117383390D02*
X39011904Y-117431009D01*
X39011904Y-117431009D02*
X38916666Y-117478628D01*
X38916666Y-117478628D02*
X38535714Y-117478628D01*
X40059523Y-117954819D02*
X39488095Y-117954819D01*
X39773809Y-117954819D02*
X39773809Y-116954819D01*
X39773809Y-116954819D02*
X39678571Y-117097676D01*
X39678571Y-117097676D02*
X39583333Y-117192914D01*
X39583333Y-117192914D02*
X39488095Y-117240533D01*
X40916666Y-117288152D02*
X40916666Y-117954819D01*
X40678571Y-116907200D02*
X40440476Y-117621485D01*
X40440476Y-117621485D02*
X41059523Y-117621485D01*
X60357142Y-117954819D02*
X60023809Y-117478628D01*
X59785714Y-117954819D02*
X59785714Y-116954819D01*
X59785714Y-116954819D02*
X60166666Y-116954819D01*
X60166666Y-116954819D02*
X60261904Y-117002438D01*
X60261904Y-117002438D02*
X60309523Y-117050057D01*
X60309523Y-117050057D02*
X60357142Y-117145295D01*
X60357142Y-117145295D02*
X60357142Y-117288152D01*
X60357142Y-117288152D02*
X60309523Y-117383390D01*
X60309523Y-117383390D02*
X60261904Y-117431009D01*
X60261904Y-117431009D02*
X60166666Y-117478628D01*
X60166666Y-117478628D02*
X59785714Y-117478628D01*
X61309523Y-117954819D02*
X60738095Y-117954819D01*
X61023809Y-117954819D02*
X61023809Y-116954819D01*
X61023809Y-116954819D02*
X60928571Y-117097676D01*
X60928571Y-117097676D02*
X60833333Y-117192914D01*
X60833333Y-117192914D02*
X60738095Y-117240533D01*
X61642857Y-116954819D02*
X62261904Y-116954819D01*
X62261904Y-116954819D02*
X61928571Y-117335771D01*
X61928571Y-117335771D02*
X62071428Y-117335771D01*
X62071428Y-117335771D02*
X62166666Y-117383390D01*
X62166666Y-117383390D02*
X62214285Y-117431009D01*
X62214285Y-117431009D02*
X62261904Y-117526247D01*
X62261904Y-117526247D02*
X62261904Y-117764342D01*
X62261904Y-117764342D02*
X62214285Y-117859580D01*
X62214285Y-117859580D02*
X62166666Y-117907200D01*
X62166666Y-117907200D02*
X62071428Y-117954819D01*
X62071428Y-117954819D02*
X61785714Y-117954819D01*
X61785714Y-117954819D02*
X61690476Y-117907200D01*
X61690476Y-117907200D02*
X61642857Y-117859580D01*
X103357142Y-117954819D02*
X103023809Y-117478628D01*
X102785714Y-117954819D02*
X102785714Y-116954819D01*
X102785714Y-116954819D02*
X103166666Y-116954819D01*
X103166666Y-116954819D02*
X103261904Y-117002438D01*
X103261904Y-117002438D02*
X103309523Y-117050057D01*
X103309523Y-117050057D02*
X103357142Y-117145295D01*
X103357142Y-117145295D02*
X103357142Y-117288152D01*
X103357142Y-117288152D02*
X103309523Y-117383390D01*
X103309523Y-117383390D02*
X103261904Y-117431009D01*
X103261904Y-117431009D02*
X103166666Y-117478628D01*
X103166666Y-117478628D02*
X102785714Y-117478628D01*
X104309523Y-117954819D02*
X103738095Y-117954819D01*
X104023809Y-117954819D02*
X104023809Y-116954819D01*
X104023809Y-116954819D02*
X103928571Y-117097676D01*
X103928571Y-117097676D02*
X103833333Y-117192914D01*
X103833333Y-117192914D02*
X103738095Y-117240533D01*
X104690476Y-117050057D02*
X104738095Y-117002438D01*
X104738095Y-117002438D02*
X104833333Y-116954819D01*
X104833333Y-116954819D02*
X105071428Y-116954819D01*
X105071428Y-116954819D02*
X105166666Y-117002438D01*
X105166666Y-117002438D02*
X105214285Y-117050057D01*
X105214285Y-117050057D02*
X105261904Y-117145295D01*
X105261904Y-117145295D02*
X105261904Y-117240533D01*
X105261904Y-117240533D02*
X105214285Y-117383390D01*
X105214285Y-117383390D02*
X104642857Y-117954819D01*
X104642857Y-117954819D02*
X105261904Y-117954819D01*
X81773808Y-117954819D02*
X81440475Y-117478628D01*
X81202380Y-117954819D02*
X81202380Y-116954819D01*
X81202380Y-116954819D02*
X81583332Y-116954819D01*
X81583332Y-116954819D02*
X81678570Y-117002438D01*
X81678570Y-117002438D02*
X81726189Y-117050057D01*
X81726189Y-117050057D02*
X81773808Y-117145295D01*
X81773808Y-117145295D02*
X81773808Y-117288152D01*
X81773808Y-117288152D02*
X81726189Y-117383390D01*
X81726189Y-117383390D02*
X81678570Y-117431009D01*
X81678570Y-117431009D02*
X81583332Y-117478628D01*
X81583332Y-117478628D02*
X81202380Y-117478628D01*
X82726189Y-117954819D02*
X82154761Y-117954819D01*
X82440475Y-117954819D02*
X82440475Y-116954819D01*
X82440475Y-116954819D02*
X82345237Y-117097676D01*
X82345237Y-117097676D02*
X82249999Y-117192914D01*
X82249999Y-117192914D02*
X82154761Y-117240533D01*
X83678570Y-117954819D02*
X83107142Y-117954819D01*
X83392856Y-117954819D02*
X83392856Y-116954819D01*
X83392856Y-116954819D02*
X83297618Y-117097676D01*
X83297618Y-117097676D02*
X83202380Y-117192914D01*
X83202380Y-117192914D02*
X83107142Y-117240533D01*
X28190476Y-74574819D02*
X28190476Y-75289104D01*
X28190476Y-75289104D02*
X28142857Y-75431961D01*
X28142857Y-75431961D02*
X28047619Y-75527200D01*
X28047619Y-75527200D02*
X27904762Y-75574819D01*
X27904762Y-75574819D02*
X27809524Y-75574819D01*
X29190476Y-75574819D02*
X28619048Y-75574819D01*
X28904762Y-75574819D02*
X28904762Y-74574819D01*
X28904762Y-74574819D02*
X28809524Y-74717676D01*
X28809524Y-74717676D02*
X28714286Y-74812914D01*
X28714286Y-74812914D02*
X28619048Y-74860533D01*
X29571429Y-74670057D02*
X29619048Y-74622438D01*
X29619048Y-74622438D02*
X29714286Y-74574819D01*
X29714286Y-74574819D02*
X29952381Y-74574819D01*
X29952381Y-74574819D02*
X30047619Y-74622438D01*
X30047619Y-74622438D02*
X30095238Y-74670057D01*
X30095238Y-74670057D02*
X30142857Y-74765295D01*
X30142857Y-74765295D02*
X30142857Y-74860533D01*
X30142857Y-74860533D02*
X30095238Y-75003390D01*
X30095238Y-75003390D02*
X29523810Y-75574819D01*
X29523810Y-75574819D02*
X30142857Y-75574819D01*
X91734819Y-50579523D02*
X92449104Y-50579523D01*
X92449104Y-50579523D02*
X92591961Y-50627142D01*
X92591961Y-50627142D02*
X92687200Y-50722380D01*
X92687200Y-50722380D02*
X92734819Y-50865237D01*
X92734819Y-50865237D02*
X92734819Y-50960475D01*
X92734819Y-49579523D02*
X92734819Y-50150951D01*
X92734819Y-49865237D02*
X91734819Y-49865237D01*
X91734819Y-49865237D02*
X91877676Y-49960475D01*
X91877676Y-49960475D02*
X91972914Y-50055713D01*
X91972914Y-50055713D02*
X92020533Y-50150951D01*
X92734819Y-48627142D02*
X92734819Y-49198570D01*
X92734819Y-48912856D02*
X91734819Y-48912856D01*
X91734819Y-48912856D02*
X91877676Y-49008094D01*
X91877676Y-49008094D02*
X91972914Y-49103332D01*
X91972914Y-49103332D02*
X92020533Y-49198570D01*
X28666666Y-160724819D02*
X28666666Y-161439104D01*
X28666666Y-161439104D02*
X28619047Y-161581961D01*
X28619047Y-161581961D02*
X28523809Y-161677200D01*
X28523809Y-161677200D02*
X28380952Y-161724819D01*
X28380952Y-161724819D02*
X28285714Y-161724819D01*
X29095238Y-160820057D02*
X29142857Y-160772438D01*
X29142857Y-160772438D02*
X29238095Y-160724819D01*
X29238095Y-160724819D02*
X29476190Y-160724819D01*
X29476190Y-160724819D02*
X29571428Y-160772438D01*
X29571428Y-160772438D02*
X29619047Y-160820057D01*
X29619047Y-160820057D02*
X29666666Y-160915295D01*
X29666666Y-160915295D02*
X29666666Y-161010533D01*
X29666666Y-161010533D02*
X29619047Y-161153390D01*
X29619047Y-161153390D02*
X29047619Y-161724819D01*
X29047619Y-161724819D02*
X29666666Y-161724819D01*
D12*
X118574318Y-58344524D02*
X117304318Y-58344524D01*
X118453365Y-57014047D02*
X118513842Y-57074523D01*
X118513842Y-57074523D02*
X118574318Y-57255952D01*
X118574318Y-57255952D02*
X118574318Y-57376904D01*
X118574318Y-57376904D02*
X118513842Y-57558333D01*
X118513842Y-57558333D02*
X118392889Y-57679285D01*
X118392889Y-57679285D02*
X118271937Y-57739762D01*
X118271937Y-57739762D02*
X118030032Y-57800238D01*
X118030032Y-57800238D02*
X117848603Y-57800238D01*
X117848603Y-57800238D02*
X117606699Y-57739762D01*
X117606699Y-57739762D02*
X117485746Y-57679285D01*
X117485746Y-57679285D02*
X117364794Y-57558333D01*
X117364794Y-57558333D02*
X117304318Y-57376904D01*
X117304318Y-57376904D02*
X117304318Y-57255952D01*
X117304318Y-57255952D02*
X117364794Y-57074523D01*
X117364794Y-57074523D02*
X117425270Y-57014047D01*
X118574318Y-55804523D02*
X118574318Y-56530238D01*
X118574318Y-56167381D02*
X117304318Y-56167381D01*
X117304318Y-56167381D02*
X117485746Y-56288333D01*
X117485746Y-56288333D02*
X117606699Y-56409285D01*
X117606699Y-56409285D02*
X117667175Y-56530238D01*
X118574318Y-54594999D02*
X118574318Y-55320714D01*
X118574318Y-54957857D02*
X117304318Y-54957857D01*
X117304318Y-54957857D02*
X117485746Y-55078809D01*
X117485746Y-55078809D02*
X117606699Y-55199761D01*
X117606699Y-55199761D02*
X117667175Y-55320714D01*
X153760237Y-133574318D02*
X153760237Y-132304318D01*
X155090714Y-133453365D02*
X155030238Y-133513842D01*
X155030238Y-133513842D02*
X154848809Y-133574318D01*
X154848809Y-133574318D02*
X154727857Y-133574318D01*
X154727857Y-133574318D02*
X154546428Y-133513842D01*
X154546428Y-133513842D02*
X154425476Y-133392889D01*
X154425476Y-133392889D02*
X154364999Y-133271937D01*
X154364999Y-133271937D02*
X154304523Y-133030032D01*
X154304523Y-133030032D02*
X154304523Y-132848603D01*
X154304523Y-132848603D02*
X154364999Y-132606699D01*
X154364999Y-132606699D02*
X154425476Y-132485746D01*
X154425476Y-132485746D02*
X154546428Y-132364794D01*
X154546428Y-132364794D02*
X154727857Y-132304318D01*
X154727857Y-132304318D02*
X154848809Y-132304318D01*
X154848809Y-132304318D02*
X155030238Y-132364794D01*
X155030238Y-132364794D02*
X155090714Y-132425270D01*
X156300238Y-133574318D02*
X155574523Y-133574318D01*
X155937380Y-133574318D02*
X155937380Y-132304318D01*
X155937380Y-132304318D02*
X155816428Y-132485746D01*
X155816428Y-132485746D02*
X155695476Y-132606699D01*
X155695476Y-132606699D02*
X155574523Y-132667175D01*
D11*
X127746667Y-144497200D02*
X127889524Y-144544819D01*
X127889524Y-144544819D02*
X128127619Y-144544819D01*
X128127619Y-144544819D02*
X128222857Y-144497200D01*
X128222857Y-144497200D02*
X128270476Y-144449580D01*
X128270476Y-144449580D02*
X128318095Y-144354342D01*
X128318095Y-144354342D02*
X128318095Y-144259104D01*
X128318095Y-144259104D02*
X128270476Y-144163866D01*
X128270476Y-144163866D02*
X128222857Y-144116247D01*
X128222857Y-144116247D02*
X128127619Y-144068628D01*
X128127619Y-144068628D02*
X127937143Y-144021009D01*
X127937143Y-144021009D02*
X127841905Y-143973390D01*
X127841905Y-143973390D02*
X127794286Y-143925771D01*
X127794286Y-143925771D02*
X127746667Y-143830533D01*
X127746667Y-143830533D02*
X127746667Y-143735295D01*
X127746667Y-143735295D02*
X127794286Y-143640057D01*
X127794286Y-143640057D02*
X127841905Y-143592438D01*
X127841905Y-143592438D02*
X127937143Y-143544819D01*
X127937143Y-143544819D02*
X128175238Y-143544819D01*
X128175238Y-143544819D02*
X128318095Y-143592438D01*
X128651429Y-143544819D02*
X128889524Y-144544819D01*
X128889524Y-144544819D02*
X129080000Y-143830533D01*
X129080000Y-143830533D02*
X129270476Y-144544819D01*
X129270476Y-144544819D02*
X129508572Y-143544819D01*
X130318095Y-143878152D02*
X130318095Y-144544819D01*
X130080000Y-143497200D02*
X129841905Y-144211485D01*
X129841905Y-144211485D02*
X130460952Y-144211485D01*
X148246667Y-144497200D02*
X148389524Y-144544819D01*
X148389524Y-144544819D02*
X148627619Y-144544819D01*
X148627619Y-144544819D02*
X148722857Y-144497200D01*
X148722857Y-144497200D02*
X148770476Y-144449580D01*
X148770476Y-144449580D02*
X148818095Y-144354342D01*
X148818095Y-144354342D02*
X148818095Y-144259104D01*
X148818095Y-144259104D02*
X148770476Y-144163866D01*
X148770476Y-144163866D02*
X148722857Y-144116247D01*
X148722857Y-144116247D02*
X148627619Y-144068628D01*
X148627619Y-144068628D02*
X148437143Y-144021009D01*
X148437143Y-144021009D02*
X148341905Y-143973390D01*
X148341905Y-143973390D02*
X148294286Y-143925771D01*
X148294286Y-143925771D02*
X148246667Y-143830533D01*
X148246667Y-143830533D02*
X148246667Y-143735295D01*
X148246667Y-143735295D02*
X148294286Y-143640057D01*
X148294286Y-143640057D02*
X148341905Y-143592438D01*
X148341905Y-143592438D02*
X148437143Y-143544819D01*
X148437143Y-143544819D02*
X148675238Y-143544819D01*
X148675238Y-143544819D02*
X148818095Y-143592438D01*
X149151429Y-143544819D02*
X149389524Y-144544819D01*
X149389524Y-144544819D02*
X149580000Y-143830533D01*
X149580000Y-143830533D02*
X149770476Y-144544819D01*
X149770476Y-144544819D02*
X150008572Y-143544819D01*
X150294286Y-143544819D02*
X150913333Y-143544819D01*
X150913333Y-143544819D02*
X150580000Y-143925771D01*
X150580000Y-143925771D02*
X150722857Y-143925771D01*
X150722857Y-143925771D02*
X150818095Y-143973390D01*
X150818095Y-143973390D02*
X150865714Y-144021009D01*
X150865714Y-144021009D02*
X150913333Y-144116247D01*
X150913333Y-144116247D02*
X150913333Y-144354342D01*
X150913333Y-144354342D02*
X150865714Y-144449580D01*
X150865714Y-144449580D02*
X150818095Y-144497200D01*
X150818095Y-144497200D02*
X150722857Y-144544819D01*
X150722857Y-144544819D02*
X150437143Y-144544819D01*
X150437143Y-144544819D02*
X150341905Y-144497200D01*
X150341905Y-144497200D02*
X150294286Y-144449580D01*
X148246667Y-164497200D02*
X148389524Y-164544819D01*
X148389524Y-164544819D02*
X148627619Y-164544819D01*
X148627619Y-164544819D02*
X148722857Y-164497200D01*
X148722857Y-164497200D02*
X148770476Y-164449580D01*
X148770476Y-164449580D02*
X148818095Y-164354342D01*
X148818095Y-164354342D02*
X148818095Y-164259104D01*
X148818095Y-164259104D02*
X148770476Y-164163866D01*
X148770476Y-164163866D02*
X148722857Y-164116247D01*
X148722857Y-164116247D02*
X148627619Y-164068628D01*
X148627619Y-164068628D02*
X148437143Y-164021009D01*
X148437143Y-164021009D02*
X148341905Y-163973390D01*
X148341905Y-163973390D02*
X148294286Y-163925771D01*
X148294286Y-163925771D02*
X148246667Y-163830533D01*
X148246667Y-163830533D02*
X148246667Y-163735295D01*
X148246667Y-163735295D02*
X148294286Y-163640057D01*
X148294286Y-163640057D02*
X148341905Y-163592438D01*
X148341905Y-163592438D02*
X148437143Y-163544819D01*
X148437143Y-163544819D02*
X148675238Y-163544819D01*
X148675238Y-163544819D02*
X148818095Y-163592438D01*
X149151429Y-163544819D02*
X149389524Y-164544819D01*
X149389524Y-164544819D02*
X149580000Y-163830533D01*
X149580000Y-163830533D02*
X149770476Y-164544819D01*
X149770476Y-164544819D02*
X150008572Y-163544819D01*
X150341905Y-163640057D02*
X150389524Y-163592438D01*
X150389524Y-163592438D02*
X150484762Y-163544819D01*
X150484762Y-163544819D02*
X150722857Y-163544819D01*
X150722857Y-163544819D02*
X150818095Y-163592438D01*
X150818095Y-163592438D02*
X150865714Y-163640057D01*
X150865714Y-163640057D02*
X150913333Y-163735295D01*
X150913333Y-163735295D02*
X150913333Y-163830533D01*
X150913333Y-163830533D02*
X150865714Y-163973390D01*
X150865714Y-163973390D02*
X150294286Y-164544819D01*
X150294286Y-164544819D02*
X150913333Y-164544819D01*
X127746667Y-164497200D02*
X127889524Y-164544819D01*
X127889524Y-164544819D02*
X128127619Y-164544819D01*
X128127619Y-164544819D02*
X128222857Y-164497200D01*
X128222857Y-164497200D02*
X128270476Y-164449580D01*
X128270476Y-164449580D02*
X128318095Y-164354342D01*
X128318095Y-164354342D02*
X128318095Y-164259104D01*
X128318095Y-164259104D02*
X128270476Y-164163866D01*
X128270476Y-164163866D02*
X128222857Y-164116247D01*
X128222857Y-164116247D02*
X128127619Y-164068628D01*
X128127619Y-164068628D02*
X127937143Y-164021009D01*
X127937143Y-164021009D02*
X127841905Y-163973390D01*
X127841905Y-163973390D02*
X127794286Y-163925771D01*
X127794286Y-163925771D02*
X127746667Y-163830533D01*
X127746667Y-163830533D02*
X127746667Y-163735295D01*
X127746667Y-163735295D02*
X127794286Y-163640057D01*
X127794286Y-163640057D02*
X127841905Y-163592438D01*
X127841905Y-163592438D02*
X127937143Y-163544819D01*
X127937143Y-163544819D02*
X128175238Y-163544819D01*
X128175238Y-163544819D02*
X128318095Y-163592438D01*
X128651429Y-163544819D02*
X128889524Y-164544819D01*
X128889524Y-164544819D02*
X129080000Y-163830533D01*
X129080000Y-163830533D02*
X129270476Y-164544819D01*
X129270476Y-164544819D02*
X129508572Y-163544819D01*
X130413333Y-164544819D02*
X129841905Y-164544819D01*
X130127619Y-164544819D02*
X130127619Y-163544819D01*
X130127619Y-163544819D02*
X130032381Y-163687676D01*
X130032381Y-163687676D02*
X129937143Y-163782914D01*
X129937143Y-163782914D02*
X129841905Y-163830533D01*
X117954819Y-152166666D02*
X117478628Y-152499999D01*
X117954819Y-152738094D02*
X116954819Y-152738094D01*
X116954819Y-152738094D02*
X116954819Y-152357142D01*
X116954819Y-152357142D02*
X117002438Y-152261904D01*
X117002438Y-152261904D02*
X117050057Y-152214285D01*
X117050057Y-152214285D02*
X117145295Y-152166666D01*
X117145295Y-152166666D02*
X117288152Y-152166666D01*
X117288152Y-152166666D02*
X117383390Y-152214285D01*
X117383390Y-152214285D02*
X117431009Y-152261904D01*
X117431009Y-152261904D02*
X117478628Y-152357142D01*
X117478628Y-152357142D02*
X117478628Y-152738094D01*
X117288152Y-151309523D02*
X117954819Y-151309523D01*
X116907200Y-151547618D02*
X117621485Y-151785713D01*
X117621485Y-151785713D02*
X117621485Y-151166666D01*
X162954819Y-152166666D02*
X162478628Y-152499999D01*
X162954819Y-152738094D02*
X161954819Y-152738094D01*
X161954819Y-152738094D02*
X161954819Y-152357142D01*
X161954819Y-152357142D02*
X162002438Y-152261904D01*
X162002438Y-152261904D02*
X162050057Y-152214285D01*
X162050057Y-152214285D02*
X162145295Y-152166666D01*
X162145295Y-152166666D02*
X162288152Y-152166666D01*
X162288152Y-152166666D02*
X162383390Y-152214285D01*
X162383390Y-152214285D02*
X162431009Y-152261904D01*
X162431009Y-152261904D02*
X162478628Y-152357142D01*
X162478628Y-152357142D02*
X162478628Y-152738094D01*
X161954819Y-151833332D02*
X161954819Y-151214285D01*
X161954819Y-151214285D02*
X162335771Y-151547618D01*
X162335771Y-151547618D02*
X162335771Y-151404761D01*
X162335771Y-151404761D02*
X162383390Y-151309523D01*
X162383390Y-151309523D02*
X162431009Y-151261904D01*
X162431009Y-151261904D02*
X162526247Y-151214285D01*
X162526247Y-151214285D02*
X162764342Y-151214285D01*
X162764342Y-151214285D02*
X162859580Y-151261904D01*
X162859580Y-151261904D02*
X162907200Y-151309523D01*
X162907200Y-151309523D02*
X162954819Y-151404761D01*
X162954819Y-151404761D02*
X162954819Y-151690475D01*
X162954819Y-151690475D02*
X162907200Y-151785713D01*
X162907200Y-151785713D02*
X162859580Y-151833332D01*
X162954819Y-172166666D02*
X162478628Y-172499999D01*
X162954819Y-172738094D02*
X161954819Y-172738094D01*
X161954819Y-172738094D02*
X161954819Y-172357142D01*
X161954819Y-172357142D02*
X162002438Y-172261904D01*
X162002438Y-172261904D02*
X162050057Y-172214285D01*
X162050057Y-172214285D02*
X162145295Y-172166666D01*
X162145295Y-172166666D02*
X162288152Y-172166666D01*
X162288152Y-172166666D02*
X162383390Y-172214285D01*
X162383390Y-172214285D02*
X162431009Y-172261904D01*
X162431009Y-172261904D02*
X162478628Y-172357142D01*
X162478628Y-172357142D02*
X162478628Y-172738094D01*
X162050057Y-171785713D02*
X162002438Y-171738094D01*
X162002438Y-171738094D02*
X161954819Y-171642856D01*
X161954819Y-171642856D02*
X161954819Y-171404761D01*
X161954819Y-171404761D02*
X162002438Y-171309523D01*
X162002438Y-171309523D02*
X162050057Y-171261904D01*
X162050057Y-171261904D02*
X162145295Y-171214285D01*
X162145295Y-171214285D02*
X162240533Y-171214285D01*
X162240533Y-171214285D02*
X162383390Y-171261904D01*
X162383390Y-171261904D02*
X162954819Y-171833332D01*
X162954819Y-171833332D02*
X162954819Y-171214285D01*
X117954819Y-172016666D02*
X117478628Y-172349999D01*
X117954819Y-172588094D02*
X116954819Y-172588094D01*
X116954819Y-172588094D02*
X116954819Y-172207142D01*
X116954819Y-172207142D02*
X117002438Y-172111904D01*
X117002438Y-172111904D02*
X117050057Y-172064285D01*
X117050057Y-172064285D02*
X117145295Y-172016666D01*
X117145295Y-172016666D02*
X117288152Y-172016666D01*
X117288152Y-172016666D02*
X117383390Y-172064285D01*
X117383390Y-172064285D02*
X117431009Y-172111904D01*
X117431009Y-172111904D02*
X117478628Y-172207142D01*
X117478628Y-172207142D02*
X117478628Y-172588094D01*
X117954819Y-171064285D02*
X117954819Y-171635713D01*
X117954819Y-171349999D02*
X116954819Y-171349999D01*
X116954819Y-171349999D02*
X117097676Y-171445237D01*
X117097676Y-171445237D02*
X117192914Y-171540475D01*
X117192914Y-171540475D02*
X117240533Y-171635713D01*
X119234819Y-132603333D02*
X119949104Y-132603333D01*
X119949104Y-132603333D02*
X120091961Y-132650952D01*
X120091961Y-132650952D02*
X120187200Y-132746190D01*
X120187200Y-132746190D02*
X120234819Y-132889047D01*
X120234819Y-132889047D02*
X120234819Y-132984285D01*
X120234819Y-131603333D02*
X120234819Y-132174761D01*
X120234819Y-131889047D02*
X119234819Y-131889047D01*
X119234819Y-131889047D02*
X119377676Y-131984285D01*
X119377676Y-131984285D02*
X119472914Y-132079523D01*
X119472914Y-132079523D02*
X119520533Y-132174761D01*
D13*
%TO.C,G\u002A\u002A\u002A*%
G36*
X77510036Y-77000000D02*
G01*
X77510036Y-80732616D01*
X70500000Y-80732616D01*
X63489965Y-80732616D01*
X63489965Y-78775269D01*
X66585305Y-78775269D01*
X66721864Y-78775269D01*
X66799933Y-78771065D01*
X66840567Y-78743514D01*
X66855990Y-78670208D01*
X66858423Y-78528739D01*
X66858423Y-78524910D01*
X66858423Y-78274552D01*
X67063262Y-78274552D01*
X67239029Y-78253727D01*
X67356190Y-78186421D01*
X67359140Y-78183513D01*
X67387540Y-78150545D01*
X67409340Y-78107950D01*
X67425408Y-78044216D01*
X67436613Y-77947834D01*
X67443824Y-77807294D01*
X67447910Y-77611086D01*
X67449738Y-77347701D01*
X67450178Y-77005628D01*
X67450180Y-76977240D01*
X67450139Y-76599977D01*
X67447372Y-76303917D01*
X67437915Y-76079234D01*
X67417801Y-75916101D01*
X67383066Y-75804691D01*
X67329744Y-75735176D01*
X67253871Y-75697729D01*
X67151479Y-75682523D01*
X67018605Y-75679732D01*
X66926703Y-75679928D01*
X66585305Y-75679928D01*
X66585305Y-77227599D01*
X66585305Y-78775269D01*
X63489965Y-78775269D01*
X63489965Y-77000000D01*
X63489965Y-75679928D01*
X65447312Y-75679928D01*
X65447312Y-76877501D01*
X65447947Y-77256519D01*
X65450768Y-77554816D01*
X65457152Y-77782707D01*
X65468472Y-77950507D01*
X65486106Y-78068529D01*
X65511428Y-78147090D01*
X65545813Y-78196503D01*
X65590638Y-78227084D01*
X65629391Y-78242962D01*
X65766405Y-78266962D01*
X65940603Y-78267133D01*
X66101646Y-78244714D01*
X66149904Y-78230159D01*
X66266667Y-78185766D01*
X66266667Y-76932847D01*
X66266667Y-75679928D01*
X66152868Y-75679928D01*
X66039068Y-75679928D01*
X66039068Y-76840681D01*
X66039068Y-78001434D01*
X65879749Y-78001434D01*
X65720430Y-78001434D01*
X65720430Y-76840681D01*
X65720430Y-75679928D01*
X65583871Y-75679928D01*
X65447312Y-75679928D01*
X63489965Y-75679928D01*
X63489965Y-75179211D01*
X67768818Y-75179211D01*
X67768818Y-75429570D01*
X67768818Y-75679928D01*
X68041936Y-75679928D01*
X68315054Y-75679928D01*
X68315054Y-75839247D01*
X68307441Y-75946288D01*
X68268828Y-75990191D01*
X68178495Y-75998566D01*
X68041936Y-75998566D01*
X68041936Y-77136559D01*
X68041936Y-78274552D01*
X67905377Y-78274552D01*
X67827308Y-78278756D01*
X67786674Y-78306307D01*
X67771251Y-78379613D01*
X67768818Y-78521082D01*
X67768818Y-78524910D01*
X67768818Y-78775269D01*
X71706273Y-78775269D01*
X75643728Y-78775269D01*
X75643728Y-76977240D01*
X75643728Y-75179211D01*
X71706273Y-75179211D01*
X67768818Y-75179211D01*
X63489965Y-75179211D01*
X63489965Y-73267384D01*
X70500000Y-73267384D01*
X77510036Y-73267384D01*
X77510036Y-77000000D01*
G37*
G36*
X70117155Y-76278670D02*
G01*
X70323697Y-76288174D01*
X70459885Y-76301962D01*
X70546399Y-76324904D01*
X70603924Y-76361870D01*
X70640632Y-76401907D01*
X70709769Y-76545131D01*
X70726693Y-76714229D01*
X70691612Y-76871655D01*
X70637594Y-76953446D01*
X70580789Y-77017119D01*
X70579621Y-77065363D01*
X70638098Y-77133885D01*
X70660354Y-77156215D01*
X70754788Y-77306552D01*
X70763808Y-77472736D01*
X70687324Y-77638861D01*
X70663314Y-77668877D01*
X70606535Y-77728507D01*
X70545770Y-77766969D01*
X70459398Y-77789942D01*
X70325798Y-77803106D01*
X70123349Y-77812142D01*
X70117077Y-77812369D01*
X69680646Y-77828143D01*
X69680646Y-77136559D01*
X69908244Y-77136559D01*
X69908244Y-77386918D01*
X69908244Y-77637276D01*
X70138835Y-77637276D01*
X70291648Y-77628175D01*
X70417660Y-77605080D01*
X70457473Y-77590155D01*
X70520286Y-77511774D01*
X70546337Y-77389599D01*
X70532196Y-77264552D01*
X70490896Y-77191183D01*
X70417925Y-77161351D01*
X70286737Y-77141511D01*
X70172258Y-77136559D01*
X69908244Y-77136559D01*
X69680646Y-77136559D01*
X69680646Y-77045520D01*
X69680646Y-76453763D01*
X69908244Y-76453763D01*
X69908244Y-76704122D01*
X69908244Y-76954480D01*
X70155351Y-76954480D01*
X70353919Y-76937487D01*
X70469928Y-76886821D01*
X70473989Y-76882949D01*
X70531858Y-76780663D01*
X70545520Y-76704122D01*
X70514410Y-76574433D01*
X70416673Y-76493436D01*
X70245697Y-76456887D01*
X70155351Y-76453763D01*
X69908244Y-76453763D01*
X69680646Y-76453763D01*
X69680646Y-76262897D01*
X70117155Y-76278670D01*
G37*
G36*
X73987730Y-76284323D02*
G01*
X74111583Y-76329989D01*
X74195625Y-76420310D01*
X74246777Y-76566913D01*
X74271958Y-76781424D01*
X74278137Y-77046252D01*
X74269191Y-77333984D01*
X74238071Y-77543170D01*
X74178349Y-77684933D01*
X74083600Y-77770394D01*
X73947397Y-77810674D01*
X73832250Y-77817907D01*
X73672654Y-77800717D01*
X73555673Y-77736076D01*
X73524992Y-77707625D01*
X73477785Y-77655392D01*
X73446155Y-77598488D01*
X73426998Y-77518505D01*
X73417206Y-77397036D01*
X73413674Y-77215672D01*
X73413302Y-77062036D01*
X73595341Y-77062036D01*
X73599230Y-77283466D01*
X73612524Y-77431304D01*
X73637663Y-77522731D01*
X73666872Y-77565745D01*
X73778552Y-77626370D01*
X73906361Y-77628994D01*
X73995914Y-77582652D01*
X74024606Y-77504416D01*
X74042912Y-77340149D01*
X74050379Y-77094316D01*
X74050538Y-77045520D01*
X74046931Y-76802193D01*
X74032375Y-76635646D01*
X74001267Y-76531776D01*
X73948003Y-76476481D01*
X73866982Y-76455656D01*
X73815437Y-76453763D01*
X73724314Y-76469026D01*
X73661348Y-76523298D01*
X73621935Y-76629303D01*
X73601472Y-76799764D01*
X73595353Y-77047407D01*
X73595341Y-77062036D01*
X73413302Y-77062036D01*
X73413262Y-77045520D01*
X73414282Y-76811958D01*
X73419413Y-76651023D01*
X73431761Y-76544307D01*
X73454432Y-76473402D01*
X73490534Y-76419901D01*
X73524992Y-76383415D01*
X73654137Y-76296495D01*
X73817147Y-76271685D01*
X73987730Y-76284323D01*
G37*
G36*
X71620705Y-76284323D02*
G01*
X71744558Y-76329989D01*
X71828600Y-76420310D01*
X71879752Y-76566913D01*
X71904933Y-76781424D01*
X71911111Y-77046252D01*
X71902166Y-77333984D01*
X71871046Y-77543170D01*
X71811324Y-77684933D01*
X71716575Y-77770394D01*
X71580372Y-77810674D01*
X71465225Y-77817907D01*
X71305629Y-77800717D01*
X71188648Y-77736076D01*
X71157967Y-77707625D01*
X71110759Y-77655392D01*
X71079130Y-77598488D01*
X71059973Y-77518505D01*
X71050181Y-77397036D01*
X71046649Y-77215672D01*
X71046277Y-77062036D01*
X71228316Y-77062036D01*
X71232205Y-77283466D01*
X71245499Y-77431304D01*
X71270638Y-77522731D01*
X71299847Y-77565745D01*
X71411527Y-77626370D01*
X71539335Y-77628994D01*
X71628889Y-77582652D01*
X71657580Y-77504416D01*
X71675887Y-77340149D01*
X71683354Y-77094316D01*
X71683513Y-77045520D01*
X71679906Y-76802193D01*
X71665350Y-76635646D01*
X71634241Y-76531776D01*
X71580978Y-76476481D01*
X71499957Y-76455656D01*
X71448412Y-76453763D01*
X71357289Y-76469026D01*
X71294323Y-76523298D01*
X71254910Y-76629303D01*
X71234447Y-76799764D01*
X71228328Y-77047407D01*
X71228316Y-77062036D01*
X71046277Y-77062036D01*
X71046237Y-77045520D01*
X71047257Y-76811958D01*
X71052388Y-76651023D01*
X71064736Y-76544307D01*
X71087407Y-76473402D01*
X71123509Y-76419901D01*
X71157967Y-76383415D01*
X71287112Y-76296495D01*
X71450122Y-76271685D01*
X71620705Y-76284323D01*
G37*
G36*
X72826567Y-76287781D02*
G01*
X72941668Y-76346774D01*
X72988423Y-76388944D01*
X73071797Y-76513339D01*
X73088437Y-76660246D01*
X73036483Y-76838614D01*
X72914074Y-77057387D01*
X72821757Y-77190367D01*
X72685645Y-77378223D01*
X72602372Y-77504337D01*
X72571797Y-77581006D01*
X72593779Y-77620523D01*
X72668177Y-77635184D01*
X72794850Y-77637284D01*
X72816636Y-77637276D01*
X72970823Y-77640484D01*
X73054730Y-77654618D01*
X73089024Y-77686448D01*
X73094624Y-77728315D01*
X73088094Y-77770629D01*
X73057246Y-77797334D01*
X72985192Y-77811986D01*
X72855045Y-77818141D01*
X72662187Y-77819355D01*
X72461279Y-77818016D01*
X72334491Y-77811595D01*
X72264913Y-77796490D01*
X72235636Y-77769095D01*
X72229749Y-77727176D01*
X72256090Y-77655537D01*
X72327617Y-77530659D01*
X72433092Y-77370748D01*
X72548387Y-77211079D01*
X72712011Y-76981912D01*
X72815243Y-76806618D01*
X72862040Y-76674669D01*
X72856357Y-76575536D01*
X72812402Y-76508387D01*
X72704148Y-76456095D01*
X72582176Y-76475813D01*
X72479904Y-76561663D01*
X72475922Y-76567563D01*
X72398927Y-76645009D01*
X72313876Y-76679370D01*
X72248739Y-76665078D01*
X72229749Y-76616575D01*
X72257317Y-76542287D01*
X72325733Y-76438844D01*
X72347595Y-76411736D01*
X72441945Y-76319475D01*
X72544575Y-76279314D01*
X72668302Y-76271685D01*
X72826567Y-76287781D01*
G37*
G36*
X67177061Y-76977240D02*
G01*
X67177061Y-78001434D01*
X67017742Y-78001434D01*
X66858423Y-78001434D01*
X66858423Y-76977240D01*
X66858423Y-75953047D01*
X67017742Y-75953047D01*
X67177061Y-75953047D01*
X67177061Y-76977240D01*
G37*
G36*
X77510036Y-162500000D02*
G01*
X77510036Y-166232616D01*
X70500000Y-166232616D01*
X63489965Y-166232616D01*
X63489965Y-164275269D01*
X66585305Y-164275269D01*
X66721864Y-164275269D01*
X66799933Y-164271065D01*
X66840567Y-164243514D01*
X66855990Y-164170208D01*
X66858423Y-164028739D01*
X66858423Y-164024910D01*
X66858423Y-163774552D01*
X67063262Y-163774552D01*
X67239029Y-163753727D01*
X67356190Y-163686421D01*
X67359140Y-163683513D01*
X67387540Y-163650545D01*
X67409340Y-163607950D01*
X67425408Y-163544216D01*
X67436613Y-163447834D01*
X67443824Y-163307294D01*
X67447910Y-163111086D01*
X67449738Y-162847701D01*
X67450178Y-162505628D01*
X67450180Y-162477240D01*
X67450139Y-162099977D01*
X67447372Y-161803917D01*
X67437915Y-161579234D01*
X67417801Y-161416101D01*
X67383066Y-161304691D01*
X67329744Y-161235176D01*
X67253871Y-161197729D01*
X67151479Y-161182523D01*
X67018605Y-161179732D01*
X66926703Y-161179928D01*
X66585305Y-161179928D01*
X66585305Y-162727599D01*
X66585305Y-164275269D01*
X63489965Y-164275269D01*
X63489965Y-162500000D01*
X63489965Y-161179928D01*
X65447312Y-161179928D01*
X65447312Y-162377501D01*
X65447947Y-162756519D01*
X65450768Y-163054816D01*
X65457152Y-163282707D01*
X65468472Y-163450507D01*
X65486106Y-163568529D01*
X65511428Y-163647090D01*
X65545813Y-163696503D01*
X65590638Y-163727084D01*
X65629391Y-163742962D01*
X65766405Y-163766962D01*
X65940603Y-163767133D01*
X66101646Y-163744714D01*
X66149904Y-163730159D01*
X66266667Y-163685766D01*
X66266667Y-162432847D01*
X66266667Y-161179928D01*
X66152868Y-161179928D01*
X66039068Y-161179928D01*
X66039068Y-162340681D01*
X66039068Y-163501434D01*
X65879749Y-163501434D01*
X65720430Y-163501434D01*
X65720430Y-162340681D01*
X65720430Y-161179928D01*
X65583871Y-161179928D01*
X65447312Y-161179928D01*
X63489965Y-161179928D01*
X63489965Y-160679211D01*
X67768818Y-160679211D01*
X67768818Y-160929570D01*
X67768818Y-161179928D01*
X68041936Y-161179928D01*
X68315054Y-161179928D01*
X68315054Y-161339247D01*
X68307441Y-161446288D01*
X68268828Y-161490191D01*
X68178495Y-161498566D01*
X68041936Y-161498566D01*
X68041936Y-162636559D01*
X68041936Y-163774552D01*
X67905377Y-163774552D01*
X67827308Y-163778756D01*
X67786674Y-163806307D01*
X67771251Y-163879613D01*
X67768818Y-164021082D01*
X67768818Y-164024910D01*
X67768818Y-164275269D01*
X71706273Y-164275269D01*
X75643728Y-164275269D01*
X75643728Y-162477240D01*
X75643728Y-160679211D01*
X71706273Y-160679211D01*
X67768818Y-160679211D01*
X63489965Y-160679211D01*
X63489965Y-158767384D01*
X70500000Y-158767384D01*
X77510036Y-158767384D01*
X77510036Y-162500000D01*
G37*
G36*
X67177061Y-162477240D02*
G01*
X67177061Y-163501434D01*
X67017742Y-163501434D01*
X66858423Y-163501434D01*
X66858423Y-162477240D01*
X66858423Y-161453047D01*
X67017742Y-161453047D01*
X67177061Y-161453047D01*
X67177061Y-162477240D01*
G37*
G36*
X70117155Y-161778670D02*
G01*
X70323697Y-161788174D01*
X70459885Y-161801962D01*
X70546399Y-161824904D01*
X70603924Y-161861870D01*
X70640632Y-161901907D01*
X70709769Y-162045131D01*
X70726693Y-162214229D01*
X70691612Y-162371655D01*
X70637594Y-162453446D01*
X70580789Y-162517119D01*
X70579621Y-162565363D01*
X70638098Y-162633885D01*
X70660354Y-162656215D01*
X70754788Y-162806552D01*
X70763808Y-162972736D01*
X70687324Y-163138861D01*
X70663314Y-163168877D01*
X70606535Y-163228507D01*
X70545770Y-163266969D01*
X70459398Y-163289942D01*
X70325798Y-163303106D01*
X70123349Y-163312142D01*
X70117077Y-163312369D01*
X69680646Y-163328143D01*
X69680646Y-162636559D01*
X69908244Y-162636559D01*
X69908244Y-162886918D01*
X69908244Y-163137276D01*
X70138835Y-163137276D01*
X70291648Y-163128175D01*
X70417660Y-163105080D01*
X70457473Y-163090155D01*
X70520286Y-163011774D01*
X70546337Y-162889599D01*
X70532196Y-162764552D01*
X70490896Y-162691183D01*
X70417925Y-162661351D01*
X70286737Y-162641511D01*
X70172258Y-162636559D01*
X69908244Y-162636559D01*
X69680646Y-162636559D01*
X69680646Y-162545520D01*
X69680646Y-161953763D01*
X69908244Y-161953763D01*
X69908244Y-162204122D01*
X69908244Y-162454480D01*
X70155351Y-162454480D01*
X70353919Y-162437487D01*
X70469928Y-162386821D01*
X70473989Y-162382949D01*
X70531858Y-162280663D01*
X70545520Y-162204122D01*
X70514410Y-162074433D01*
X70416673Y-161993436D01*
X70245697Y-161956887D01*
X70155351Y-161953763D01*
X69908244Y-161953763D01*
X69680646Y-161953763D01*
X69680646Y-161762897D01*
X70117155Y-161778670D01*
G37*
G36*
X71620705Y-161784323D02*
G01*
X71744558Y-161829989D01*
X71828600Y-161920310D01*
X71879752Y-162066913D01*
X71904933Y-162281424D01*
X71911111Y-162546252D01*
X71902166Y-162833984D01*
X71871046Y-163043170D01*
X71811324Y-163184933D01*
X71716575Y-163270394D01*
X71580372Y-163310674D01*
X71465225Y-163317907D01*
X71305629Y-163300717D01*
X71188648Y-163236076D01*
X71157967Y-163207625D01*
X71110759Y-163155392D01*
X71079130Y-163098488D01*
X71059973Y-163018505D01*
X71050181Y-162897036D01*
X71046649Y-162715672D01*
X71046277Y-162562036D01*
X71228316Y-162562036D01*
X71232205Y-162783466D01*
X71245499Y-162931304D01*
X71270638Y-163022731D01*
X71299847Y-163065745D01*
X71411527Y-163126370D01*
X71539335Y-163128994D01*
X71628889Y-163082652D01*
X71657580Y-163004416D01*
X71675887Y-162840149D01*
X71683354Y-162594316D01*
X71683513Y-162545520D01*
X71679906Y-162302193D01*
X71665350Y-162135646D01*
X71634241Y-162031776D01*
X71580978Y-161976481D01*
X71499957Y-161955656D01*
X71448412Y-161953763D01*
X71357289Y-161969026D01*
X71294323Y-162023298D01*
X71254910Y-162129303D01*
X71234447Y-162299764D01*
X71228328Y-162547407D01*
X71228316Y-162562036D01*
X71046277Y-162562036D01*
X71046237Y-162545520D01*
X71047257Y-162311958D01*
X71052388Y-162151023D01*
X71064736Y-162044307D01*
X71087407Y-161973402D01*
X71123509Y-161919901D01*
X71157967Y-161883415D01*
X71287112Y-161796495D01*
X71450122Y-161771685D01*
X71620705Y-161784323D01*
G37*
G36*
X72826567Y-161787781D02*
G01*
X72941668Y-161846774D01*
X72988423Y-161888944D01*
X73071797Y-162013339D01*
X73088437Y-162160246D01*
X73036483Y-162338614D01*
X72914074Y-162557387D01*
X72821757Y-162690367D01*
X72685645Y-162878223D01*
X72602372Y-163004337D01*
X72571797Y-163081006D01*
X72593779Y-163120523D01*
X72668177Y-163135184D01*
X72794850Y-163137284D01*
X72816636Y-163137276D01*
X72970823Y-163140484D01*
X73054730Y-163154618D01*
X73089024Y-163186448D01*
X73094624Y-163228315D01*
X73088094Y-163270629D01*
X73057246Y-163297334D01*
X72985192Y-163311986D01*
X72855045Y-163318141D01*
X72662187Y-163319355D01*
X72461279Y-163318016D01*
X72334491Y-163311595D01*
X72264913Y-163296490D01*
X72235636Y-163269095D01*
X72229749Y-163227176D01*
X72256090Y-163155537D01*
X72327617Y-163030659D01*
X72433092Y-162870748D01*
X72548387Y-162711079D01*
X72712011Y-162481912D01*
X72815243Y-162306618D01*
X72862040Y-162174669D01*
X72856357Y-162075536D01*
X72812402Y-162008387D01*
X72704148Y-161956095D01*
X72582176Y-161975813D01*
X72479904Y-162061663D01*
X72475922Y-162067563D01*
X72398927Y-162145009D01*
X72313876Y-162179370D01*
X72248739Y-162165078D01*
X72229749Y-162116575D01*
X72257317Y-162042287D01*
X72325733Y-161938844D01*
X72347595Y-161911736D01*
X72441945Y-161819475D01*
X72544575Y-161779314D01*
X72668302Y-161771685D01*
X72826567Y-161787781D01*
G37*
G36*
X73987730Y-161784323D02*
G01*
X74111583Y-161829989D01*
X74195625Y-161920310D01*
X74246777Y-162066913D01*
X74271958Y-162281424D01*
X74278137Y-162546252D01*
X74269191Y-162833984D01*
X74238071Y-163043170D01*
X74178349Y-163184933D01*
X74083600Y-163270394D01*
X73947397Y-163310674D01*
X73832250Y-163317907D01*
X73672654Y-163300717D01*
X73555673Y-163236076D01*
X73524992Y-163207625D01*
X73477785Y-163155392D01*
X73446155Y-163098488D01*
X73426998Y-163018505D01*
X73417206Y-162897036D01*
X73413674Y-162715672D01*
X73413302Y-162562036D01*
X73595341Y-162562036D01*
X73599230Y-162783466D01*
X73612524Y-162931304D01*
X73637663Y-163022731D01*
X73666872Y-163065745D01*
X73778552Y-163126370D01*
X73906361Y-163128994D01*
X73995914Y-163082652D01*
X74024606Y-163004416D01*
X74042912Y-162840149D01*
X74050379Y-162594316D01*
X74050538Y-162545520D01*
X74046931Y-162302193D01*
X74032375Y-162135646D01*
X74001267Y-162031776D01*
X73948003Y-161976481D01*
X73866982Y-161955656D01*
X73815437Y-161953763D01*
X73724314Y-161969026D01*
X73661348Y-162023298D01*
X73621935Y-162129303D01*
X73601472Y-162299764D01*
X73595353Y-162547407D01*
X73595341Y-162562036D01*
X73413302Y-162562036D01*
X73413262Y-162545520D01*
X73414282Y-162311958D01*
X73419413Y-162151023D01*
X73431761Y-162044307D01*
X73454432Y-161973402D01*
X73490534Y-161919901D01*
X73524992Y-161883415D01*
X73654137Y-161796495D01*
X73817147Y-161771685D01*
X73987730Y-161784323D01*
G37*
D14*
%TO.C,SW14*%
X33640000Y-99890000D02*
X33640000Y-102400000D01*
X33640000Y-99890000D02*
X45860000Y-99890000D01*
X33640000Y-104700000D02*
X33640000Y-107300000D01*
X33640000Y-109600000D02*
X33640000Y-112110000D01*
X45860000Y-99890000D02*
X45860000Y-102400000D01*
X45860000Y-104700000D02*
X45860000Y-107300000D01*
X45860000Y-109600000D02*
X45860000Y-112110000D01*
X45860000Y-112110000D02*
X33640000Y-112110000D01*
X43300000Y-106000000D02*
G75*
G02*
X36200000Y-106000000I-3550000J0D01*
G01*
X36200000Y-106000000D02*
G75*
G02*
X43300000Y-106000000I3550000J0D01*
G01*
%TO.C,SW13*%
X54973333Y-99890000D02*
X54973333Y-102400000D01*
X54973333Y-99890000D02*
X67193333Y-99890000D01*
X54973333Y-104700000D02*
X54973333Y-107300000D01*
X54973333Y-109600000D02*
X54973333Y-112110000D01*
X67193333Y-99890000D02*
X67193333Y-102400000D01*
X67193333Y-104700000D02*
X67193333Y-107300000D01*
X67193333Y-109600000D02*
X67193333Y-112110000D01*
X67193333Y-112110000D02*
X54973333Y-112110000D01*
X64633333Y-106000000D02*
G75*
G02*
X57533333Y-106000000I-3550000J0D01*
G01*
X57533333Y-106000000D02*
G75*
G02*
X64633333Y-106000000I3550000J0D01*
G01*
%TO.C,SW12*%
X107300000Y-106000000D02*
G75*
G02*
X100200000Y-106000000I-3550000J0D01*
G01*
X100200000Y-106000000D02*
G75*
G02*
X107300000Y-106000000I3550000J0D01*
G01*
X109860000Y-112110000D02*
X97640000Y-112110000D01*
X109860000Y-109600000D02*
X109860000Y-112110000D01*
X109860000Y-104700000D02*
X109860000Y-107300000D01*
X109860000Y-99890000D02*
X109860000Y-102400000D01*
X97640000Y-109600000D02*
X97640000Y-112110000D01*
X97640000Y-104700000D02*
X97640000Y-107300000D01*
X97640000Y-99890000D02*
X109860000Y-99890000D01*
X97640000Y-99890000D02*
X97640000Y-102400000D01*
%TO.C,SW11*%
X76306666Y-99890000D02*
X76306666Y-102400000D01*
X76306666Y-99890000D02*
X88526666Y-99890000D01*
X76306666Y-104700000D02*
X76306666Y-107300000D01*
X76306666Y-109600000D02*
X76306666Y-112110000D01*
X88526666Y-99890000D02*
X88526666Y-102400000D01*
X88526666Y-104700000D02*
X88526666Y-107300000D01*
X88526666Y-109600000D02*
X88526666Y-112110000D01*
X88526666Y-112110000D02*
X76306666Y-112110000D01*
X85966666Y-106000000D02*
G75*
G02*
X78866666Y-106000000I-3550000J0D01*
G01*
X78866666Y-106000000D02*
G75*
G02*
X85966666Y-106000000I3550000J0D01*
G01*
%TO.C,R14*%
X34680000Y-115580000D02*
X44820000Y-115580000D01*
X34680000Y-116060000D02*
X34680000Y-115580000D01*
X34680000Y-118940000D02*
X34680000Y-119420000D01*
X34680000Y-119420000D02*
X44820000Y-119420000D01*
X44820000Y-115580000D02*
X44820000Y-116060000D01*
X44820000Y-119420000D02*
X44820000Y-118940000D01*
%TO.C,R13*%
X56013333Y-115580000D02*
X56013333Y-116060000D01*
X56013333Y-119420000D02*
X56013333Y-118940000D01*
X66153333Y-115580000D02*
X56013333Y-115580000D01*
X66153333Y-116060000D02*
X66153333Y-115580000D01*
X66153333Y-118940000D02*
X66153333Y-119420000D01*
X66153333Y-119420000D02*
X56013333Y-119420000D01*
%TO.C,R12*%
X108820000Y-119420000D02*
X108820000Y-118940000D01*
X108820000Y-115580000D02*
X108820000Y-116060000D01*
X98680000Y-119420000D02*
X108820000Y-119420000D01*
X98680000Y-118940000D02*
X98680000Y-119420000D01*
X98680000Y-116060000D02*
X98680000Y-115580000D01*
X98680000Y-115580000D02*
X108820000Y-115580000D01*
%TO.C,R11*%
X77346666Y-115580000D02*
X77346666Y-116060000D01*
X77346666Y-119420000D02*
X77346666Y-118940000D01*
X87486666Y-115580000D02*
X77346666Y-115580000D01*
X87486666Y-116060000D02*
X87486666Y-115580000D01*
X87486666Y-118940000D02*
X87486666Y-119420000D01*
X87486666Y-119420000D02*
X77346666Y-119420000D01*
%TO.C,J12*%
X37190000Y-73680000D02*
X37190000Y-63400000D01*
X37190000Y-73680000D02*
X28560000Y-73680000D01*
X37190000Y-73560000D02*
X28560000Y-73560000D01*
X37190000Y-73441905D02*
X28560000Y-73441905D01*
X37190000Y-73323810D02*
X28560000Y-73323810D01*
X37190000Y-73205715D02*
X28560000Y-73205715D01*
X37190000Y-73087620D02*
X28560000Y-73087620D01*
X37190000Y-72969525D02*
X28560000Y-72969525D01*
X37190000Y-72851430D02*
X28560000Y-72851430D01*
X37190000Y-72733335D02*
X28560000Y-72733335D01*
X37190000Y-72615240D02*
X28560000Y-72615240D01*
X37190000Y-72497145D02*
X28560000Y-72497145D01*
X37190000Y-72379050D02*
X28560000Y-72379050D01*
X37190000Y-72260955D02*
X28560000Y-72260955D01*
X37190000Y-72142860D02*
X28560000Y-72142860D01*
X37190000Y-72024765D02*
X28560000Y-72024765D01*
X37190000Y-71906670D02*
X28560000Y-71906670D01*
X37190000Y-71788575D02*
X28560000Y-71788575D01*
X37190000Y-71670480D02*
X28560000Y-71670480D01*
X37190000Y-71552385D02*
X28560000Y-71552385D01*
X37190000Y-71434290D02*
X28560000Y-71434290D01*
X37190000Y-71316195D02*
X28560000Y-71316195D01*
X37190000Y-71198100D02*
X28560000Y-71198100D01*
X37190000Y-71080000D02*
X28560000Y-71080000D01*
X37190000Y-68540000D02*
X28560000Y-68540000D01*
X37190000Y-66000000D02*
X28560000Y-66000000D01*
X37190000Y-63400000D02*
X28560000Y-63400000D01*
X28560000Y-73680000D02*
X28560000Y-63400000D01*
X28560000Y-72710000D02*
X28210000Y-72710000D01*
X28560000Y-71990000D02*
X28210000Y-71990000D01*
X28560000Y-70170000D02*
X28150000Y-70170000D01*
X28560000Y-69450000D02*
X28150000Y-69450000D01*
X28560000Y-67630000D02*
X28150000Y-67630000D01*
X28560000Y-66910000D02*
X28150000Y-66910000D01*
X28560000Y-65090000D02*
X28150000Y-65090000D01*
X28560000Y-64370000D02*
X28150000Y-64370000D01*
X27100000Y-73680000D02*
X25990000Y-73680000D01*
X25990000Y-73680000D02*
X25990000Y-72350000D01*
%TO.C,J11*%
X97880000Y-55720000D02*
X98880000Y-55720000D01*
X98880000Y-55720000D02*
X98380000Y-54720000D01*
X98380000Y-54720000D02*
X97880000Y-55720000D01*
X93170000Y-54330000D02*
X93170000Y-45210000D01*
X100140000Y-54330000D02*
X100140000Y-53020000D01*
X111210000Y-54330000D02*
X93170000Y-54330000D01*
X94470000Y-53020000D02*
X94470000Y-46520000D01*
X100140000Y-53020000D02*
X94470000Y-53020000D01*
X104240000Y-53020000D02*
X104240000Y-54330000D01*
X104240000Y-53020000D02*
X104240000Y-53020000D01*
X109910000Y-53020000D02*
X104240000Y-53020000D01*
X94470000Y-46520000D02*
X109910000Y-46520000D01*
X109910000Y-46520000D02*
X109910000Y-53020000D01*
X93170000Y-45210000D02*
X111210000Y-45210000D01*
X111210000Y-45210000D02*
X111210000Y-54330000D01*
%TO.C,J2*%
X25990000Y-159830000D02*
X25990000Y-158500000D01*
X27100000Y-159830000D02*
X25990000Y-159830000D01*
X28560000Y-150520000D02*
X28150000Y-150520000D01*
X28560000Y-151240000D02*
X28150000Y-151240000D01*
X28560000Y-153060000D02*
X28150000Y-153060000D01*
X28560000Y-153780000D02*
X28150000Y-153780000D01*
X28560000Y-155600000D02*
X28150000Y-155600000D01*
X28560000Y-156320000D02*
X28150000Y-156320000D01*
X28560000Y-158140000D02*
X28210000Y-158140000D01*
X28560000Y-158860000D02*
X28210000Y-158860000D01*
X28560000Y-159830000D02*
X28560000Y-149550000D01*
X37190000Y-149550000D02*
X28560000Y-149550000D01*
X37190000Y-152150000D02*
X28560000Y-152150000D01*
X37190000Y-154690000D02*
X28560000Y-154690000D01*
X37190000Y-157230000D02*
X28560000Y-157230000D01*
X37190000Y-157348100D02*
X28560000Y-157348100D01*
X37190000Y-157466195D02*
X28560000Y-157466195D01*
X37190000Y-157584290D02*
X28560000Y-157584290D01*
X37190000Y-157702385D02*
X28560000Y-157702385D01*
X37190000Y-157820480D02*
X28560000Y-157820480D01*
X37190000Y-157938575D02*
X28560000Y-157938575D01*
X37190000Y-158056670D02*
X28560000Y-158056670D01*
X37190000Y-158174765D02*
X28560000Y-158174765D01*
X37190000Y-158292860D02*
X28560000Y-158292860D01*
X37190000Y-158410955D02*
X28560000Y-158410955D01*
X37190000Y-158529050D02*
X28560000Y-158529050D01*
X37190000Y-158647145D02*
X28560000Y-158647145D01*
X37190000Y-158765240D02*
X28560000Y-158765240D01*
X37190000Y-158883335D02*
X28560000Y-158883335D01*
X37190000Y-159001430D02*
X28560000Y-159001430D01*
X37190000Y-159119525D02*
X28560000Y-159119525D01*
X37190000Y-159237620D02*
X28560000Y-159237620D01*
X37190000Y-159355715D02*
X28560000Y-159355715D01*
X37190000Y-159473810D02*
X28560000Y-159473810D01*
X37190000Y-159591905D02*
X28560000Y-159591905D01*
X37190000Y-159710000D02*
X28560000Y-159710000D01*
X37190000Y-159830000D02*
X28560000Y-159830000D01*
X37190000Y-159830000D02*
X37190000Y-149550000D01*
D15*
%TO.C,IC11*%
X115748000Y-53248000D02*
X119252000Y-53248000D01*
X119252000Y-53248000D02*
X119252000Y-59752000D01*
X119252000Y-59752000D02*
X115748000Y-59752000D01*
X115748000Y-59752000D02*
X115748000Y-53248000D01*
X113500000Y-53385000D02*
X114800000Y-53385000D01*
%TO.C,IC1*%
X153248000Y-129748000D02*
X156752000Y-129748000D01*
X156752000Y-129748000D02*
X156752000Y-136252000D01*
X156752000Y-136252000D02*
X153248000Y-136252000D01*
X153248000Y-136252000D02*
X153248000Y-129748000D01*
X151000000Y-129885000D02*
X152300000Y-129885000D01*
D14*
%TO.C,SW4*%
X123390000Y-145890000D02*
X123390000Y-148400000D01*
X123390000Y-145890000D02*
X135610000Y-145890000D01*
X123390000Y-150700000D02*
X123390000Y-153300000D01*
X123390000Y-155600000D02*
X123390000Y-158110000D01*
X135610000Y-145890000D02*
X135610000Y-148400000D01*
X135610000Y-150700000D02*
X135610000Y-153300000D01*
X135610000Y-155600000D02*
X135610000Y-158110000D01*
X135610000Y-158110000D02*
X123390000Y-158110000D01*
X133050000Y-152000000D02*
G75*
G02*
X125950000Y-152000000I-3550000J0D01*
G01*
X125950000Y-152000000D02*
G75*
G02*
X133050000Y-152000000I3550000J0D01*
G01*
%TO.C,SW3*%
X143890000Y-145890000D02*
X143890000Y-148400000D01*
X143890000Y-145890000D02*
X156110000Y-145890000D01*
X143890000Y-150700000D02*
X143890000Y-153300000D01*
X143890000Y-155600000D02*
X143890000Y-158110000D01*
X156110000Y-145890000D02*
X156110000Y-148400000D01*
X156110000Y-150700000D02*
X156110000Y-153300000D01*
X156110000Y-155600000D02*
X156110000Y-158110000D01*
X156110000Y-158110000D02*
X143890000Y-158110000D01*
X153550000Y-152000000D02*
G75*
G02*
X146450000Y-152000000I-3550000J0D01*
G01*
X146450000Y-152000000D02*
G75*
G02*
X153550000Y-152000000I3550000J0D01*
G01*
%TO.C,SW2*%
X143890000Y-165890000D02*
X143890000Y-168400000D01*
X143890000Y-165890000D02*
X156110000Y-165890000D01*
X143890000Y-170700000D02*
X143890000Y-173300000D01*
X143890000Y-175600000D02*
X143890000Y-178110000D01*
X156110000Y-165890000D02*
X156110000Y-168400000D01*
X156110000Y-170700000D02*
X156110000Y-173300000D01*
X156110000Y-175600000D02*
X156110000Y-178110000D01*
X156110000Y-178110000D02*
X143890000Y-178110000D01*
X153550000Y-172000000D02*
G75*
G02*
X146450000Y-172000000I-3550000J0D01*
G01*
X146450000Y-172000000D02*
G75*
G02*
X153550000Y-172000000I3550000J0D01*
G01*
%TO.C,SW1*%
X123390000Y-165890000D02*
X123390000Y-168400000D01*
X123390000Y-165890000D02*
X135610000Y-165890000D01*
X123390000Y-170700000D02*
X123390000Y-173300000D01*
X123390000Y-175600000D02*
X123390000Y-178110000D01*
X135610000Y-165890000D02*
X135610000Y-168400000D01*
X135610000Y-170700000D02*
X135610000Y-173300000D01*
X135610000Y-175600000D02*
X135610000Y-178110000D01*
X135610000Y-178110000D02*
X123390000Y-178110000D01*
X133050000Y-172000000D02*
G75*
G02*
X125950000Y-172000000I-3550000J0D01*
G01*
X125950000Y-172000000D02*
G75*
G02*
X133050000Y-172000000I3550000J0D01*
G01*
%TO.C,R4*%
X119420000Y-146780000D02*
X119420000Y-156920000D01*
X118940000Y-146780000D02*
X119420000Y-146780000D01*
X116060000Y-146780000D02*
X115580000Y-146780000D01*
X115580000Y-146780000D02*
X115580000Y-156920000D01*
X119420000Y-156920000D02*
X118940000Y-156920000D01*
X115580000Y-156920000D02*
X116060000Y-156920000D01*
%TO.C,R3*%
X164420000Y-146780000D02*
X164420000Y-156920000D01*
X163940000Y-146780000D02*
X164420000Y-146780000D01*
X161060000Y-146780000D02*
X160580000Y-146780000D01*
X160580000Y-146780000D02*
X160580000Y-156920000D01*
X164420000Y-156920000D02*
X163940000Y-156920000D01*
X160580000Y-156920000D02*
X161060000Y-156920000D01*
%TO.C,R2*%
X164420000Y-166780000D02*
X164420000Y-176920000D01*
X163940000Y-166780000D02*
X164420000Y-166780000D01*
X161060000Y-166780000D02*
X160580000Y-166780000D01*
X160580000Y-166780000D02*
X160580000Y-176920000D01*
X164420000Y-176920000D02*
X163940000Y-176920000D01*
X160580000Y-176920000D02*
X161060000Y-176920000D01*
%TO.C,R1*%
X119420000Y-166780000D02*
X119420000Y-176920000D01*
X118940000Y-166780000D02*
X119420000Y-166780000D01*
X116060000Y-166780000D02*
X115580000Y-166780000D01*
X115580000Y-166780000D02*
X115580000Y-176920000D01*
X119420000Y-176920000D02*
X118940000Y-176920000D01*
X115580000Y-176920000D02*
X116060000Y-176920000D01*
%TO.C,J1*%
X125380000Y-138220000D02*
X126380000Y-138220000D01*
X126380000Y-138220000D02*
X125880000Y-137220000D01*
X125880000Y-137220000D02*
X125380000Y-138220000D01*
X120670000Y-136830000D02*
X120670000Y-127710000D01*
X127640000Y-136830000D02*
X127640000Y-135520000D01*
X138710000Y-136830000D02*
X120670000Y-136830000D01*
X121970000Y-135520000D02*
X121970000Y-129020000D01*
X127640000Y-135520000D02*
X121970000Y-135520000D01*
X131740000Y-135520000D02*
X131740000Y-136830000D01*
X131740000Y-135520000D02*
X131740000Y-135520000D01*
X137410000Y-135520000D02*
X131740000Y-135520000D01*
X121970000Y-129020000D02*
X137410000Y-129020000D01*
X137410000Y-129020000D02*
X137410000Y-135520000D01*
X120670000Y-127710000D02*
X138710000Y-127710000D01*
X138710000Y-127710000D02*
X138710000Y-136830000D01*
%TD*%
M02*
